<?xml version="1.0" encoding="utf-8"?>
<!-- Generator: Adobe Illustrator 18.1.0, SVG Export Plug-In . SVG Version: 6.00 Build 0)  -->
<svg version="1.1" id="Layer_1" xmlns="http://www.w3.org/2000/svg" xmlns:xlink="http://www.w3.org/1999/xlink" x="0px" y="0px"
	 width="19px" height="19px" viewBox="0 0 19 19" enable-background="new 0 0 19 19" xml:space="preserve">
<g>
	<g>
		<path fill="#FFFFFF" d="M18.6,5.8c0-0.3-0.3-0.6-0.6-0.6h-3.9c-0.3,0-0.6-0.3-0.6-0.6V0.9c0-0.3-0.3-0.6-0.6-0.6H9
			c-0.5,0-0.8,0.4-0.8,0.8v2.9c0,0,0,0,0,0l3.3,3.3c0.3,0.3,0.4,0.6,0.4,1h0v5.7h5.9c0.5,0,0.8-0.4,0.8-0.8L18.6,5.8L18.6,5.8z"/>
		<path fill="#FFFFFF" d="M15.3,0.5c-0.2-0.2-0.5-0.1-0.5,0.2v3.3c0,0.2,0.1,0.3,0.3,0.3h3.3c0.3,0,0.4-0.3,0.2-0.5L15.3,0.5z"/>
		<path fill="#FFFFFF" d="M1.2,18.6L1.2,18.6H10l0,0c0.5,0,0.8-0.4,0.8-0.8v-3.7v-3.7c0-0.3-0.3-0.6-0.6-0.6h-2H6.4
			c-0.3,0-0.6-0.3-0.6-0.6V8.4v-3c0-0.3-0.3-0.6-0.6-0.6H1.2c-0.5,0-0.8,0.4-0.8,0.7v12.1c0,0.2,0,0.3,0.1,0.4
			C0.6,18.4,0.9,18.6,1.2,18.6z"/>
		<path fill="#FFFFFF" d="M7.2,8.7h1h2.3c0.2,0,0.3-0.1,0.3-0.3c0-0.1,0-0.1-0.1-0.2L8.2,5.7L7.4,5C7.4,4.9,7.3,4.9,7.2,4.9
			C7.1,4.9,7,5,7,5.2v3.3l0,0C7,8.6,7.1,8.7,7.2,8.7z"/>
	</g>
</g>
</svg>
