<?xml version="1.0" encoding="utf-8"?>
<!-- Generator: Adobe Illustrator 18.1.0, SVG Export Plug-In . SVG Version: 6.00 Build 0)  -->
<svg version="1.1" id="Layer_1" xmlns="http://www.w3.org/2000/svg" xmlns:xlink="http://www.w3.org/1999/xlink" x="0px" y="0px"
	 width="14px" height="14px" viewBox="0 0 14 14" enable-background="new 0 0 14 14" xml:space="preserve">
<path fill="#BFC6C9" d="M7,0C3.1,0,0,3.1,0,7c0,3.9,3.1,7,7,7c3.9,0,7-3.1,7-7C14,3.1,10.9,0,7,0z M7,12c-0.7,0-1.3-0.6-1.3-1.3
	c0-0.7,0.6-1.3,1.3-1.3c0.7,0,1.3,0.6,1.3,1.3C8.3,11.4,7.7,12,7,12z M8.5,7.4c-0.1,0-0.1,0.1-0.2,0.1C8.2,7.6,8,7.6,8,7.7
	C7.9,7.8,7.9,8,7.9,8.3c0,0.3-0.1,0.5-0.8,0.5H6.8c-0.7,0-0.7-0.2-0.7-1v0c0-1,0.3-1.5,0.9-1.7L7.2,6C7.8,5.9,8.5,5.8,8.5,5
	c0-0.8-1-0.9-1.2-0.9c-1,0-1.1,0.4-1.2,0.7C6,5.3,5.8,5.5,5.1,5.5c-0.3,0-0.6,0-0.8-0.3C4.2,5.1,4.2,5,4.2,4.7
	c0-1.5,1.9-2.1,2.9-2.1h0.1c1.8,0,3.1,1,3.1,2.7C10.3,6.2,9.7,6.9,8.5,7.4z"/>
</svg>
