<?xml version="1.0" encoding="utf-8"?>
<!-- Generator: Adobe Illustrator 18.1.0, SVG Export Plug-In . SVG Version: 6.00 Build 0)  -->
<svg version="1.1" id="Layer_1" xmlns="http://www.w3.org/2000/svg" xmlns:xlink="http://www.w3.org/1999/xlink" x="0px" y="0px"
	 width="30px" height="30px" viewBox="7 -8 30 30" enable-background="new 7 -8 30 30" xml:space="preserve">
<g>
	<g>
		<g>
			<g>
				<path fill="#3B8FCD" d="M22,22c8.3,0,15-6.7,15-15S30.3-8,22-8S7-1.3,7,7S13.8,22,22,22z M22-6.4c7.4,0,13.4,6,13.4,13.4
					s-6,13.4-13.4,13.4S8.6,14.4,8.6,7S14.6-6.4,22-6.4z"/>
			</g>
			<g>
				<circle fill="#3B8FCD" cx="22" cy="-1.6" r="2.2"/>
				<path fill="#3B8FCD" d="M14.4,5.9l4.1-3.8c0.3-0.3,1-0.7,1.6-0.7h1.7h0.7h1.7c0.6,0,1.1,0.3,1.6,0.7l4.1,3.8
					c0.3,0.3,0.4,0.9,0.1,1.3c-0.3,0.4-0.8,0.4-1.2,0.1l-3.1-2.6c-0.4-0.3-0.8-0.4-0.9-0.3c-0.2,0.1-0.2,0.7-0.2,1.1
					c0,0,0.7,7.1,1.1,10.7l0,0l0,0c0,0.1,0,0.2,0,0.3c0,0.4,0,1.2-0.8,1.2H24c-0.6,0-0.9-0.4-0.9-0.8l-0.3-5.5
					c0-0.3-0.2-0.7-0.6-0.8c-0.3,0.1-0.6,0.4-0.6,0.8l-0.3,5.5c0,0.6-0.4,0.8-0.9,0.8h-0.9c-0.8,0-0.8-0.8-0.8-1.2
					c0-0.1,0-0.2,0-0.3l0,0l0,0c0.7-3.7,1.1-10.7,1.1-10.7c0-0.6-0.1-1-0.2-1.1c-0.2-0.1-0.7,0-0.9,0.3l-3.1,2.6
					c-0.4,0.3-0.9,0.2-1.2-0.1C13.9,6.7,14.1,6.2,14.4,5.9z"/>
			</g>
		</g>
	</g>
</g>
</svg>
