<?xml version="1.0" encoding="utf-8"?>
<!-- Generator: Adobe Illustrator 18.1.0, SVG Export Plug-In . SVG Version: 6.00 Build 0)  -->
<svg version="1.1" id="Layer_1" xmlns="http://www.w3.org/2000/svg" xmlns:xlink="http://www.w3.org/1999/xlink" x="0px" y="0px"
	 width="30px" height="30px" viewBox="7 -8 30 30" enable-background="new 7 -8 30 30" xml:space="preserve">
<g>
	<g>
		<g>
			<g>
				<path fill="#3B8FCD" d="M22,22c8.3,0,15-6.7,15-15S30.3-8,22-8S7-1.3,7,7S13.8,22,22,22z M22-6.4c7.4,0,13.4,6,13.4,13.4
					s-6,13.4-13.4,13.4S8.6,14.4,8.6,7S14.6-6.4,22-6.4z"/>
			</g>
		</g>
		<g>
			<path fill="#3B8FCD" d="M23.8-0.4c-1.8,0-3.4,0.8-4.4,2.1c0.2,0,0.5,0,0.7,0c4,0,7.2,3.2,7.2,7.2c0,0.2,0,0.5,0,0.7
				c1.3-1,2.1-2.6,2.1-4.4C29.4,2.1,26.9-0.4,23.8-0.4z"/>
			<path fill="#3B8FCD" d="M20.2,3.2c-3.1,0-5.6,2.5-5.6,5.6s2.5,5.6,5.6,5.6s5.6-2.5,5.6-5.6S23.3,3.2,20.2,3.2z M18.5,11.6
				c-0.3,0-0.5-0.2-0.5-0.5s0.2-0.5,0.5-0.5h0.8V7h-0.7c-0.3,0-0.5-0.2-0.5-0.5S18.3,6,18.6,6h2.1c0.3,0,0.5,0.2,0.5,0.5v4.2H22
				c0.3,0,0.5,0.2,0.5,0.5s-0.2,0.5-0.5,0.5h-3.5V11.6z"/>
		</g>
	</g>
</g>
</svg>
