<?xml version="1.0" encoding="utf-8"?>
<!-- Generator: Adobe Illustrator 18.1.0, SVG Export Plug-In . SVG Version: 6.00 Build 0)  -->
<svg version="1.1" id="Layer_1" xmlns="http://www.w3.org/2000/svg" xmlns:xlink="http://www.w3.org/1999/xlink" x="0px" y="0px"
	 width="30px" height="30px" viewBox="-282 405.9 30 30" enable-background="new -282 405.9 30 30" xml:space="preserve">
<g>
	<g>
		<g>
			<path fill="#3B8FCD" d="M-267,435.9c8.3,0,15-6.7,15-15c0-8.3-6.7-15-15-15c-8.3,0-15,6.7-15,15
				C-282,429.2-275.2,435.9-267,435.9z M-267,407.5c7.4,0,13.4,6,13.4,13.4c0,7.4-6,13.4-13.4,13.4c-7.4,0-13.4-6-13.4-13.4
				C-280.4,413.5-274.4,407.5-267,407.5z"/>
		</g>
	</g>
	<g>
		<g>
			<path fill="#3B8FCD" d="M-258.7,419.7l-8.2-8.2c-0.3-0.3-0.7-0.5-1.2-0.5s-0.8,0.2-1.2,0.5l-4.5,4.5c-0.6,0.6-0.6,1.7,0,2.4
				l0.7,0.8h1.7l-1.6-1.6c-0.1-0.1-0.1-0.3-0.1-0.3c0-0.1,0-0.2,0.1-0.3l0.6-0.6l2.8,2.8h2.7l-4.2-4.2l2.5-2.5
				c0.1-0.1,0.2-0.1,0.3-0.1c0.1,0,0.2,0,0.3,0.1l8.2,8.2c0.1,0.1,0.1,0.2,0.1,0.3c0,0.1,0,0.2-0.1,0.3l-0.5,0.5v1.7l1.3-1.3
				C-258.1,421.4-258.1,420.4-258.7,419.7z"/>
			<path fill="#3B8FCD" d="M-262.5,419.9h-11.6c-0.9,0-1.7,0.7-1.7,1.6v4.4h14.9v-4.4C-260.9,420.6-261.6,419.9-262.5,419.9z
				 M-271.7,424.4c-0.3,0-0.6-0.1-0.8-0.3c-0.2,0.2-0.5,0.3-0.8,0.3c-0.7,0-1.2-0.5-1.2-1.2c0-0.7,0.5-1.2,1.2-1.2
				c0.3,0,0.6,0.1,0.8,0.3c0.2-0.2,0.5-0.3,0.8-0.3c0.7,0,1.2,0.5,1.2,1.2C-270.5,423.9-271.1,424.4-271.7,424.4z"/>
			<path fill="#3B8FCD" d="M-275.8,427.9c0,0.9,0.8,1.7,1.7,1.7h11.6c0.9,0,1.6-0.7,1.6-1.7v-0.1L-275.8,427.9L-275.8,427.9z"/>
		</g>
	</g>
</g>
</svg>
