<?xml version="1.0" encoding="utf-8"?>
<!-- Generator: Adobe Illustrator 18.1.0, SVG Export Plug-In . SVG Version: 6.00 Build 0)  -->
<svg version="1.1" id="Layer_1" xmlns="http://www.w3.org/2000/svg" xmlns:xlink="http://www.w3.org/1999/xlink" x="0px" y="0px"
	 width="30px" height="30px" viewBox="7 -8 30 30" enable-background="new 7 -8 30 30" xml:space="preserve">
<g>
	<g>
		<g>
			<g>
				<path fill="#3B8FCD" d="M22,22c8.3,0,15-6.7,15-15S30.3-8,22-8S7-1.3,7,7S13.8,22,22,22z M22-6.4c7.4,0,13.4,6,13.4,13.4
					s-6,13.4-13.4,13.4S8.6,14.4,8.6,7S14.6-6.4,22-6.4z"/>
			</g>
		</g>
		<g>
			<g>
				<path fill="#3B8FCD" d="M29.6,12.8c-0.3-0.8-3.7-1.9-5.3-2.5l-0.1-0.1c-0.7,0.3-1.4,0.5-2.3,0.5c-0.8,0-1.4-0.2-2.1-0.4
					c-0.1,0.1-0.1,0.1-0.2,0.1c-1,0.3-4.7,1.7-5.2,2.5s-0.3,1.6-0.3,1.6h15.7C29.9,14.3,29.9,13.7,29.6,12.8z"/>
			</g>
			<path fill="#3B8FCD" d="M25.9,3.7c-0.4,2.9-1.8,4.9-4,4.9S18.3,6.5,18,3.7c-0.4-2.8,1.7-5.2,3.9-5.2S26.4,0.9,25.9,3.7z"/>
		</g>
	</g>
</g>
</svg>
