<?xml version="1.0" encoding="utf-8"?>
<!-- Generator: Adobe Illustrator 18.1.0, SVG Export Plug-In . SVG Version: 6.00 Build 0)  -->
<svg version="1.1" id="Layer_1" xmlns="http://www.w3.org/2000/svg" xmlns:xlink="http://www.w3.org/1999/xlink" x="0px" y="0px"
	 width="24px" height="24px" viewBox="0 0 24 24" enable-background="new 0 0 24 24" xml:space="preserve">
<g>
	<g>
		<g id="drive-pdf_8_">
			<path fill="#BFC6C9" d="M11.1,7.6L11.1,7.6C11.2,7.6,11.2,7.6,11.1,7.6c0.1-0.5,0.3-0.8,0.3-1.2V6.2c0.1-0.6,0.1-1.2,0-1.3
				c0,0,0,0,0-0.1l-0.1-0.1l0,0l0,0c0,0,0,0.1-0.1,0.1C10.8,5.5,10.8,6.4,11.1,7.6L11.1,7.6z M7.2,16.5c-0.3,0.1-0.5,0.3-0.6,0.4
				C5.6,17.7,5,18.6,4.9,19l0,0l0,0l0,0C5.6,18.9,6.4,18.1,7.2,16.5C7.3,16.5,7.3,16.5,7.2,16.5C7.3,16.5,7.2,16.5,7.2,16.5z
				 M19.1,14.6c-0.1-0.1-0.6-0.5-2.5-0.5c-0.1,0-0.1,0-0.3,0l0,0c0,0,0,0,0,0.1c0.9,0.4,1.8,0.6,2.5,0.6c0.1,0,0.1,0,0.3,0l0,0h0.1
				c0,0,0,0,0-0.1l0,0C19.3,14.7,19.1,14.7,19.1,14.6z M21.1,0.3H2.9c-1.4,0-2.6,1.2-2.6,2.6v18.1c0,1.4,1.2,2.6,2.6,2.6h18.1
				c1.4,0,2.6-1.2,2.6-2.6V2.9C23.7,1.5,22.5,0.3,21.1,0.3z M19.6,15.6c-0.3,0.1-0.6,0.3-1.2,0.3c-1,0-2.6-0.3-3.9-0.9
				c-2.2,0.3-3.9,0.5-5.2,1c-0.1,0-0.1,0-0.3,0.1c-1.6,2.7-2.9,4-3.9,4c-0.3,0-0.4,0-0.5-0.1l-0.6-0.4v-0.1C4,19.3,4,19.1,4,18.9
				c0.1-0.6,0.9-1.8,2.5-2.7c0.3-0.1,0.6-0.4,1.2-0.6c0.4-0.6,0.8-1.4,1.3-2.3c0.6-1.3,1-2.6,1.4-3.8l0,0c-0.5-1.6-0.8-2.5-0.3-4.3
				c0.1-0.5,0.5-1,1-1h0.3c0.3,0,0.5,0.1,0.8,0.3c0.9,0.9,0.5,3,0,4.7c0,0.1,0,0.1,0,0.1c0.5,1.4,1.3,2.6,2.1,3.4
				c0.4,0.3,0.6,0.5,1.2,0.8c0.6,0,1.2-0.1,1.7-0.1c1.6,0,2.6,0.3,3,0.9c0.1,0.3,0.1,0.5,0.1,0.8C20,15,19.9,15.4,19.6,15.6z
				 M11.2,10.6c-0.3,0.9-0.8,1.9-1.3,3.1c-0.3,0.5-0.5,0.9-0.8,1.4h0.1h0.1l0,0c1.7-0.6,3.2-1,4.3-1.2c-0.3-0.1-0.4-0.3-0.5-0.4
				C12.5,12.8,11.7,11.7,11.2,10.6z"/>
		</g>
	</g>
</g>
</svg>
