<?xml version="1.0" encoding="utf-8"?>
<!-- Generator: Adobe Illustrator 18.1.0, SVG Export Plug-In . SVG Version: 6.00 Build 0)  -->
<svg version="1.1" id="Layer_1" xmlns="http://www.w3.org/2000/svg" xmlns:xlink="http://www.w3.org/1999/xlink" x="0px" y="0px"
	 width="15px" height="15px" viewBox="0 0 15 15" enable-background="new 0 0 15 15" xml:space="preserve">
<path fill="#FFFFFF" d="M6.7,13.2c-0.1,0-0.4,0-0.6-0.1c-0.2-0.1-0.9-0.6-1.1-0.8L0.4,7.8c-0.2-0.2-0.2-0.5,0-0.7l1.8-1.8
	c0.2-0.2,0.5-0.2,0.7,0l3.2,3.2c0.2,0.2,0.5,0.2,0.6,0L11.9,2c0.2-0.2,0.5-0.2,0.7-0.1l2,1.6c0.2,0.2,0.2,0.5,0.1,0.7l-6.4,8
	c-0.2,0.2-0.5,0.5-0.6,0.7C7.6,12.9,7.2,13.2,6.7,13.2C6.7,13.2,6.7,13.2,6.7,13.2z"/>
</svg>
