<?xml version="1.0" encoding="utf-8"?>
<!-- Generator: Adobe Illustrator 18.1.0, SVG Export Plug-In . SVG Version: 6.00 Build 0)  -->
<svg version="1.1" id="Layer_1" xmlns="http://www.w3.org/2000/svg" xmlns:xlink="http://www.w3.org/1999/xlink" x="0px" y="0px"
	 width="34px" height="30px" viewBox="9 -8 34 30" enable-background="new 9 -8 34 30" xml:space="preserve">
<g>
	<g>
		<path fill="#D6DADC" d="M9.6,7c0-8.3,6.7-15,15-15h17.9v30H23.9l0,0C15.9,21.6,9.6,15.1,9.6,7z"/>
		<g>
			<g>
				<path fill="#FFFFFF" d="M25,19.9c7.1,0,12.9-5.8,12.9-12.9S32-5.9,25-5.9S12.1-0.1,12.1,7S18,19.9,25,19.9z M25-4.5
					c6.3,0,11.5,5.2,11.5,11.5S31.3,18.5,25,18.5S13.4,13.3,13.4,7S18.6-4.5,25-4.5z"/>
			</g>
			<g>
				<circle fill="#FFFFFF" cx="25" cy="-0.4" r="1.9"/>
				<path fill="#FFFFFF" d="M18.5,6l3.6-3.3c0.3-0.3,0.9-0.6,1.3-0.6h1.4h0.6h1.4c0.5,0,1,0.3,1.3,0.6L31.6,6
					c0.3,0.3,0.4,0.8,0.1,1.2S31,7.6,30.6,7.3l-2.7-2.2c-0.4-0.3-0.7-0.4-0.8-0.3c-0.2,0.1-0.2,0.6-0.2,1c0,0,0.6,6.1,1,9.2l0,0l0,0
					c0,0.1,0,0.2,0,0.3c0,0.4,0,1.1-0.7,1.1h-0.8c-0.5,0-0.8-0.4-0.8-0.7L25.4,11c0-0.3-0.2-0.6-0.5-0.7c-0.3,0.1-0.5,0.4-0.5,0.7
					L24,15.7c0,0.5-0.4,0.7-0.8,0.7h-0.8c-0.7,0-0.7-0.7-0.7-1.1c0-0.1,0-0.2,0-0.3l0,0l0,0c0.6-3.2,1-9.2,1-9.2
					c0-0.5-0.1-0.9-0.2-1c-0.2-0.1-0.6,0-0.8,0.3L19,7.3c-0.4,0.3-0.8,0.2-1.1-0.1C18.1,6.7,18.1,6.3,18.5,6z"/>
			</g>
		</g>
	</g>
</g>
</svg>
