<?xml version="1.0" encoding="utf-8"?>
<!-- Generator: Adobe Illustrator 18.1.0, SVG Export Plug-In . SVG Version: 6.00 Build 0)  -->
<svg version="1.1" id="Layer_1" xmlns="http://www.w3.org/2000/svg" xmlns:xlink="http://www.w3.org/1999/xlink" x="0px" y="0px"
	 width="30px" height="30px" viewBox="7 -8 30 30" enable-background="new 7 -8 30 30" xml:space="preserve">
<g>
	<g>
		<rect x="7" y="-8" fill="#D6DADC" width="30" height="30"/>
		<g>
			<g>
				<path fill="#FFFFFF" d="M22,19.9c7.1,0,12.9-5.8,12.9-12.9S29.1-5.9,22-5.9S9.1-0.1,9.1,7S15,19.9,22,19.9z M22-4.5
					c6.3,0,11.5,5.2,11.5,11.5S28.3,18.5,22,18.5S10.5,13.3,10.5,7S15.7-4.5,22-4.5z"/>
			</g>
			<g>
				<circle fill="#FFFFFF" cx="22" cy="-0.4" r="1.9"/>
				<path fill="#FFFFFF" d="M15.5,6l3.6-3.3c0.3-0.3,0.9-0.6,1.3-0.6h1.4h0.6h1.4c0.5,0,1,0.3,1.3,0.6L28.7,6
					c0.3,0.3,0.4,0.8,0.1,1.2s-0.7,0.4-1.1,0.1L25,5.1c-0.4-0.3-0.7-0.4-0.8-0.3C24,4.9,24,5.4,24,5.8c0,0,0.6,6.1,1,9.2l0,0l0,0
					c0,0.1,0,0.2,0,0.3c0,0.4,0,1.1-0.7,1.1h-0.8c-0.5,0-0.8-0.4-0.8-0.7L22.4,11c0-0.3-0.2-0.6-0.5-0.7c-0.3,0.1-0.5,0.4-0.5,0.7
					l-0.3,4.7c0,0.5-0.4,0.7-0.8,0.7h-0.8c-0.7,0-0.7-0.7-0.7-1.1c0-0.1,0-0.2,0-0.3l0,0l0,0c0.6-3.2,1-9.2,1-9.2
					c0-0.5-0.1-0.9-0.2-1c-0.2-0.1-0.6,0-0.8,0.3l-2.7,2.2c-0.4,0.3-0.8,0.2-1.1-0.1C15.1,6.7,15.2,6.3,15.5,6z"/>
			</g>
		</g>
	</g>
</g>
</svg>
