<?xml version="1.0" encoding="utf-8"?>
<!-- Generator: Adobe Illustrator 18.1.0, SVG Export Plug-In . SVG Version: 6.00 Build 0)  -->
<svg version="1.1" id="Layer_1" xmlns="http://www.w3.org/2000/svg" xmlns:xlink="http://www.w3.org/1999/xlink" x="0px" y="0px"
	 width="26px" height="26px" viewBox="0 0 26 26" enable-background="new 0 0 26 26" xml:space="preserve">
<g>
	<g>
		<g>
			<path fill="#3B8FCD" d="M13,13.7c3.1,0,5.7-3,5.7-6.7c0-5.1-2.5-6.7-5.7-6.7C9.9,0.4,7.3,2,7.3,7.1C7.3,10.8,9.9,13.7,13,13.7z"
				/>
			<path fill="#3B8FCD" d="M25.6,23.6l-2.9-6.5c-0.1-0.3-0.4-0.5-0.6-0.7l-4.5-2.3c-0.1-0.1-0.2,0-0.3,0c-1.3,1-2.7,1.5-4.3,1.5
				c-1.5,0-3-0.5-4.3-1.5c-0.1-0.1-0.2-0.1-0.3,0L4,16.4c-0.3,0.1-0.5,0.4-0.6,0.7l-2.9,6.5c-0.2,0.4-0.2,1,0.1,1.4
				c0.3,0.4,0.7,0.7,1.2,0.7h22.5c0.5,0,0.9-0.2,1.2-0.7C25.7,24.5,25.8,24,25.6,23.6z"/>
		</g>
	</g>
</g>
</svg>
