<?xml version="1.0" encoding="utf-8"?>
<!-- Generator: Adobe Illustrator 18.1.0, SVG Export Plug-In . SVG Version: 6.00 Build 0)  -->
<svg version="1.1" id="Layer_1" xmlns="http://www.w3.org/2000/svg" xmlns:xlink="http://www.w3.org/1999/xlink" x="0px" y="0px"
	 width="21px" height="17px" viewBox="0 0 21 17" enable-background="new 0 0 21 17" xml:space="preserve">
<path fill="#FFFFFF" d="M9.4,16.5c-0.2,0-0.6-0.1-0.9-0.1c-0.3-0.1-1.3-0.8-1.5-1.1L0.5,8.9c-0.3-0.3-0.3-0.7,0-0.9l2.5-2.5
	c0.3-0.3,0.7-0.3,0.9,0l4.5,4.5c0.3,0.3,0.7,0.2,0.9,0l7.3-9.1c0.2-0.3,0.6-0.3,0.9-0.1l2.8,2.3c0.3,0.2,0.3,0.6,0.1,0.9l-9,11.3
	c-0.2,0.3-0.6,0.7-0.9,1C10.6,16.1,10.1,16.5,9.4,16.5C9.4,16.5,9.4,16.5,9.4,16.5z"/>
</svg>
