<?xml version="1.0" encoding="utf-8"?>
<!-- Generator: Adobe Illustrator 18.1.0, SVG Export Plug-In . SVG Version: 6.00 Build 0)  -->
<svg version="1.1" id="Layer_1" xmlns="http://www.w3.org/2000/svg" xmlns:xlink="http://www.w3.org/1999/xlink" x="0px" y="0px"
	 width="71px" height="71px" viewBox="0 0 71 71" enable-background="new 0 0 71 71" xml:space="preserve">
<g>
	<path fill="#63A7D8" d="M35.5,70.9c-9.4,0-18.3-3.7-25-10.4C3.8,53.8,0.1,45,0.1,35.5c0-9.4,3.7-18.3,10.4-25
		C17.2,3.8,26,0.1,35.5,0.1c9.5,0,18.3,3.7,25,10.4c6.7,6.7,10.4,15.6,10.4,25c0,9.4-3.7,18.3-10.4,25C53.8,67.2,45,70.9,35.5,70.9z
		 M36.6,68.3l0.6-0.1c3.5-0.8,6.8-3.9,9.4-9.1c0.7-1.3,1.3-2.8,1.8-4.3l0.2-0.4l-0.4-0.2c-3.5-1.4-7.2-2.3-11-2.5l-0.5,0V68.3z
		 M33.9,51.6c-3.8,0.2-7.5,1-11.1,2.5l-0.4,0.2l0.2,0.4c0.6,1.6,1.2,3,1.8,4.3c2.6,5.2,5.9,8.4,9.4,9.1l0.6,0.1V51.6L33.9,51.6z
		 M19.9,55.5c-2.2,1.2-4.3,2.6-6.2,4.3l-0.4,0.4l0.4,0.4c3.7,3.2,8.1,5.6,12.8,7l1.8,0.5L27,66.6c-1.7-1.7-3.3-3.9-4.6-6.6
		c-0.6-1.3-1.3-2.7-1.8-4.3l-0.2-0.5L19.9,55.5z M50.5,55.7c-0.6,1.6-1.2,3-1.8,4.3c-1.4,2.7-2.9,4.9-4.6,6.6l-1.4,1.4l1.8-0.5
		c4.7-1.3,9.1-3.7,12.8-7l0.4-0.4l-0.4-0.4c-1.9-1.7-4-3.1-6.2-4.3l-0.5-0.3L50.5,55.7z M2.4,37.1c0.4,7.8,3.6,15.3,9,21.1l0.3,0.4
		l0.4-0.3c2.2-1.9,4.6-3.6,7.3-5l0.4-0.2l-0.1-0.4c-1.4-4.8-2.1-10-2.3-15.6l0-0.5H2.4L2.4,37.1z M53.8,37.1
		c-0.1,5.5-0.9,10.9-2.3,15.6l-0.1,0.4l0.4,0.2c2.6,1.3,5.1,3,7.3,5l0.4,0.3l0.3-0.4c5.4-5.7,8.6-13.2,9-21.1l0-0.5H53.8L53.8,37.1z
		 M21.5,19.5c-1.2,4.4-1.9,9.3-2,14.4l0,3.2c0.1,5.1,0.8,10,2.1,14.5l0.2,0.5l0.5-0.2c3.7-1.5,7.7-2.4,11.7-2.5c0.3,0,0.8,0,1.3,0
		c0.9,0,1.9,0,1.9,0c4,0.2,8,1,11.7,2.5l0.5,0.2l0.1-0.5c1.2-4.3,1.9-9.1,2-14.1l0-0.2l0-0.5l0,0l0-2.8c-0.1-5.1-0.8-10-2-14.4
		L49.3,19l-0.5,0.2c-3.8,1.5-7.7,2.4-11.7,2.6c-0.2,0-0.4,0-0.7,0c-1,0-2.5,0-2.5,0c-4-0.2-8-1-11.7-2.5L21.7,19L21.5,19.5z
		 M59,12.8c-2.3,2-4.7,3.7-7.3,5L51.4,18l0.1,0.4c1.3,4.7,2.1,10,2.3,15.5l0,0.5h14.9l0-0.5c-0.4-7.8-3.6-15.3-8.9-21l-0.3-0.4
		L59,12.8z M11.3,12.8c-5.4,5.7-8.5,13.2-8.9,21l0,0.5h14.9l0-0.5c0.1-5.4,0.9-10.7,2.3-15.5l0.1-0.4l-0.4-0.2
		c-2.6-1.4-5.1-3.1-7.3-5l-0.4-0.3L11.3,12.8z M36.6,19.5l0.5,0c3.8-0.2,7.6-1,11.1-2.5l0.4-0.2l-0.2-0.4c-0.5-1.6-1.2-3-1.9-4.4
		c-2.6-5.2-5.9-8.4-9.4-9.1l-0.6-0.1V19.5z M33.8,2.8C30.3,3.6,27,6.8,24.4,12c-0.7,1.4-1.3,2.9-1.9,4.4l-0.2,0.4l0.4,0.2
		c3.5,1.5,7.2,2.3,11.1,2.5l0.5,0V2.7L33.8,2.8z M44,4.4c1.7,1.7,3.3,3.9,4.6,6.6c0.7,1.4,1.3,2.8,1.9,4.3l0.2,0.5l0.5-0.3
		c2.3-1.2,4.3-2.7,6.2-4.3l0.4-0.4l-0.4-0.4c-3.7-3.3-8.2-5.7-12.9-7L42.6,3L44,4.4z M26.5,3.6c-4.7,1.3-9.2,3.7-12.9,7l-0.4,0.4
		l0.4,0.4c1.9,1.7,4,3.1,6.2,4.3l0.5,0.3l0.2-0.5c0.6-1.5,1.2-3,1.9-4.3c1.4-2.7,2.9-4.9,4.6-6.6L28.4,3L26.5,3.6z"/>
	<g>
		<path fill="#FFFFFF" d="M26.9,28.5h7.5v1.3h-6v4.6h5.1v1.2h-5.1v6h-1.5V28.5z"/>
		<path fill="#FFFFFF" d="M43.7,41.7L40.5,36H38v5.7h-1.5V28.5h4c3,0,4.5,1.2,4.5,3.6c0,1-0.3,1.8-0.8,2.4c-0.5,0.6-1.3,1-2.3,1.2
			l3.4,5.8H43.7z M38,34.8h2.3c1.1,0,1.9-0.2,2.4-0.7c0.6-0.4,0.8-1.1,0.8-2s-0.3-1.5-0.8-1.9s-1.4-0.6-2.5-0.6H38V34.8z"/>
	</g>
</g>
</svg>
