<?xml version="1.0" encoding="utf-8"?>
<!-- Generator: Adobe Illustrator 18.1.0, SVG Export Plug-In . SVG Version: 6.00 Build 0)  -->
<svg version="1.1" id="Layer_1" xmlns="http://www.w3.org/2000/svg" xmlns:xlink="http://www.w3.org/1999/xlink" x="0px" y="0px"
	 width="44px" height="40px" viewBox="0 0 44 40" enable-background="new 0 0 44 40" xml:space="preserve">
<g>
	<path fill="#3C8FCD" d="M0.8,20C0.8,9.1,9.6,0.3,20.5,0.3H44v39.5H19.6l0,0C9.2,39.2,0.8,30.6,0.8,20z"/>
	<g>
		<g>
			<path fill="#FFFFFF" d="M21.1,36.9c9.4,0,16.9-7.6,16.9-16.9c0-9.4-7.6-16.9-16.9-16.9S4.2,10.6,4.2,20
				C4.2,29.4,11.9,36.9,21.1,36.9z M21.1,4.8c8.3,0,15.2,6.8,15.2,15.2c0,8.3-6.8,15.2-15.2,15.2c-8.3,0-15.2-6.8-15.2-15.2
				C5.9,11.7,12.8,4.8,21.1,4.8z"/>
		</g>
		<g>
			<circle fill="#FFFFFF" cx="21.1" cy="10.3" r="2.5"/>
			<path fill="#FFFFFF" d="M12.5,18.7l4.7-4.3c0.4-0.4,1.1-0.8,1.8-0.8h1.9h0.8h1.9c0.6,0,1.3,0.4,1.8,0.8l4.7,4.3
				c0.4,0.4,0.5,1,0.1,1.5c-0.4,0.5-0.9,0.5-1.4,0.1l-3.5-2.9c-0.5-0.4-0.9-0.5-1-0.4c-0.3,0.1-0.3,0.8-0.3,1.3c0,0,0.8,8,1.3,12.1
				l0,0l0,0c0,0.1,0,0.3,0,0.4c0,0.5,0,1.4-0.9,1.4h-1c-0.6,0-1-0.5-1-0.9l-0.4-6.2c0-0.4-0.3-0.8-0.6-0.9c-0.4,0.1-0.6,0.5-0.6,0.9
				l-0.4,6.2c0,0.6-0.5,0.9-1,0.9h-1c-0.9,0-0.9-0.9-0.9-1.4c0-0.1,0-0.3,0-0.4l0,0l0,0c0.8-4.2,1.3-12.1,1.3-12.1
				c0-0.6-0.1-1.1-0.3-1.3c-0.3-0.1-0.8,0-1,0.4l-3.5,2.9c-0.5,0.4-1,0.3-1.4-0.1C12,19.6,12.1,19.1,12.5,18.7z"/>
		</g>
	</g>
</g>
</svg>
