<?xml version="1.0" encoding="utf-8"?>
<!-- Generator: Adobe Illustrator 18.1.0, SVG Export Plug-In . SVG Version: 6.00 Build 0)  -->
<svg version="1.1" id="Layer_1" xmlns="http://www.w3.org/2000/svg" xmlns:xlink="http://www.w3.org/1999/xlink" x="0px" y="0px"
	 width="33px" height="33px" viewBox="-269.5 404.4 33 33" enable-background="new -269.5 404.4 33 33" xml:space="preserve">
<g>
	<g>
		<g>
			<path fill="#FFFFFF" d="M-253,437.4c9.2,0,16.5-7.4,16.5-16.5c0-9.2-7.4-16.5-16.5-16.5c-9.1,0-16.5,7.3-16.5,16.5
				S-262,437.4-253,437.4z M-253,406c8.1,0,14.8,6.6,14.8,14.8c0,8.1-6.6,14.8-14.8,14.8c-8.1,0-14.8-6.6-14.8-14.8
				C-267.8,412.8-261.1,406-253,406z"/>
		</g>
		<g>
			<circle fill="#FFFFFF" cx="-253" cy="411.4" r="2.4"/>
			<path fill="#FFFFFF" d="M-261.4,419.6l4.6-4.2c0.4-0.4,1.1-0.8,1.8-0.8h1.9h0.8h1.9c0.6,0,1.3,0.4,1.8,0.8l4.6,4.2
				c0.4,0.4,0.5,1,0.1,1.5c-0.4,0.5-0.9,0.5-1.4,0.1l-3.4-2.8c-0.5-0.4-0.9-0.5-1-0.4c-0.3,0.1-0.3,0.8-0.3,1.3
				c0,0,0.8,7.8,1.3,11.8l0,0l0,0c0,0.1,0,0.3,0,0.4c0,0.5,0,1.4-0.9,1.4h-1c-0.6,0-1-0.5-1-0.9l-0.4-6.1c0-0.4-0.3-0.8-0.6-0.9
				c-0.4,0.1-0.6,0.5-0.6,0.9l-0.4,6.1c0,0.6-0.5,0.9-1,0.9h-1c-0.9,0-0.9-0.9-0.9-1.4c0-0.1,0-0.3,0-0.4l0,0l0,0
				c0.8-4.1,1.3-11.8,1.3-11.8c0-0.6-0.1-1.1-0.3-1.3c-0.3-0.1-0.8,0-1,0.4l-3.4,2.8c-0.5,0.4-1,0.3-1.4-0.1
				C-261.9,420.5-261.8,420-261.4,419.6z"/>
		</g>
	</g>
</g>
</svg>
