<?xml version="1.0" encoding="utf-8"?>
<!-- Generator: Adobe Illustrator 18.1.0, SVG Export Plug-In . SVG Version: 6.00 Build 0)  -->
<svg version="1.1" id="Layer_1" xmlns="http://www.w3.org/2000/svg" xmlns:xlink="http://www.w3.org/1999/xlink" x="0px" y="0px"
	 width="98px" height="98px" viewBox="0 0 98 98" enable-background="new 0 0 98 98" xml:space="preserve">
<g>
	<polygon fill="#3B8FCD" points="49,0.2 52.6,2.7 56.6,0.8 59.8,3.8 64.1,2.6 66.8,6.1 71.2,5.5 73.3,9.4 77.7,9.5 79.2,13.7 
		83.5,14.5 84.3,18.8 88.5,20.3 88.6,24.7 92.5,26.8 91.9,31.2 95.4,33.9 94.2,38.2 97.2,41.4 95.3,45.4 97.8,49 95.3,52.6 
		97.2,56.6 94.2,59.8 95.4,64.1 91.9,66.8 92.5,71.2 88.6,73.3 88.5,77.7 84.3,79.2 83.5,83.5 79.2,84.3 77.7,88.5 73.3,88.6 
		71.2,92.5 66.8,91.9 64.1,95.4 59.8,94.2 56.6,97.2 52.6,95.3 49,97.8 45.4,95.3 41.4,97.2 38.2,94.2 33.9,95.4 31.2,91.9 
		26.8,92.5 24.7,88.6 20.3,88.5 18.8,84.3 14.5,83.5 13.7,79.2 9.5,77.7 9.4,73.3 5.5,71.2 6.1,66.8 2.6,64.1 3.8,59.8 0.8,56.6 
		2.7,52.6 0.2,49 2.7,45.4 0.8,41.4 3.8,38.2 2.6,33.9 6.1,31.2 5.5,26.8 9.4,24.7 9.5,20.3 13.7,18.8 14.5,14.5 18.8,13.7 
		20.3,9.5 24.7,9.4 26.8,5.5 31.2,6.1 33.9,2.6 38.2,3.8 41.4,0.8 45.4,2.7 	"/>
	<g>
		<path fill="#FFFFFF" d="M31.8,67.5l-0.2-2.2H33l0.3,2.2v12h-1.5V67.5z"/>
		<path fill="#FFFFFF" d="M35.5,67.5l-0.2-2.2h1.4l0.3,2.2v8.3h-1.5V67.5z"/>
		<path fill="#FFFFFF" d="M38.5,74.6H41c1,0,1.8-0.3,2.3-0.9c0.5-0.6,0.8-1.5,0.8-2.6v-1.2c0-1.1-0.3-2-0.8-2.6
			c-0.5-0.6-1.3-0.9-2.3-0.9h-2.5v-1.2h2.8c1.4,0,2.4,0.4,3.1,1.2c0.7,0.8,1.1,2,1.1,3.5V71c0,1.5-0.4,2.7-1.1,3.5
			c-0.7,0.8-1.8,1.2-3.1,1.2h-2.8V74.6z"/>
		<path fill="#FFFFFF" d="M48.2,75.9l-1.2-9.5l-0.1-1.2h5.2c1.1,0,2,0.3,2.6,1c0.6,0.7,1,1.6,1,2.8l0,0.6
			C55.8,73.6,53.3,75.7,48.2,75.9z M53,73.3c0.9-0.7,1.3-1.9,1.2-3.6v-0.5c0-0.8-0.2-1.5-0.6-2c-0.4-0.5-1-0.8-1.7-0.8h-3.5l1,8.2
			C51,74.4,52.2,74,53,73.3z"/>
		<path fill="#FFFFFF" d="M64.6,66.2c0.6,0.6,0.8,1.6,0.8,2.8v6.7H64V69c0-0.8-0.2-1.5-0.5-1.9c-0.3-0.4-0.9-0.7-1.5-0.7h-3.2v9.3
			h-1.5v-10v-0.5h5C63.3,65.2,64.1,65.6,64.6,66.2z"/>
	</g>
	<g>
		<path fill="#FFFFFF" d="M19.7,52.9c3.4-3.3,6-5.9,7.8-7.9c1.8-2,3.2-3.8,4.3-5.5c1-1.7,1.6-3.3,1.6-4.8c0-1.7-0.4-3-1.3-3.9
			c-0.9-1-2.2-1.4-3.9-1.4c-2,0-4,1.1-6,3.4l-2.6-2.6c1.4-1.5,2.8-2.7,4.2-3.4c1.4-0.8,3.1-1.1,5-1.1c2.8,0,5,0.8,6.7,2.4
			c1.7,1.6,2.5,3.8,2.5,6.5c0,1.7-0.5,3.5-1.4,5.2c-0.9,1.8-2.2,3.6-3.7,5.4c-1.5,1.8-3.6,4.1-6.2,6.8c2.1-0.2,3.8-0.3,5-0.3h7.8v4
			H19.7V52.9z"/>
		<path fill="#FFFFFF" d="M45.4,55.1c-1.6-0.7-3-1.7-4.2-3l2.2-3c1,1,2.1,1.8,3.2,2.4c1.1,0.6,2.4,0.9,3.9,0.9
			c1.8,0,3.2-0.6,4.3-1.7c1.1-1.1,1.7-2.6,1.7-4.5s-0.5-3.3-1.6-4.4c-1.1-1.1-2.5-1.6-4.2-1.6c-0.9,0-1.7,0.1-2.4,0.4
			c-0.7,0.3-1.5,0.7-2.5,1.3l-2.3-1.5l0.9-14.4h15.4v4H48.5l-0.7,7.8c1.3-0.7,2.7-1.1,4.2-1.1c2.7,0,4.9,0.8,6.6,2.3
			c1.7,1.6,2.6,3.9,2.6,6.9c0,2.1-0.5,3.9-1.4,5.4c-0.9,1.5-2.2,2.7-3.7,3.5c-1.5,0.8-3.2,1.2-5.1,1.2C48.8,56.2,47,55.9,45.4,55.1z
			"/>
	</g>
	<g>
		<path fill="#FFFFFF" d="M65.4,46.9c-0.7-1-1.1-2.3-1.1-4c0-1.7,0.4-3,1.1-4c0.7-0.9,1.7-1.4,2.9-1.4s2.2,0.5,2.9,1.4
			c0.7,0.9,1.1,2.3,1.1,4c0,1.7-0.4,3-1.1,4c-0.7,1-1.7,1.4-2.9,1.4S66.1,47.9,65.4,46.9z M69.8,45.8c0.4-0.7,0.6-1.6,0.6-2.9
			c0-1.3-0.2-2.2-0.6-2.9c-0.4-0.6-0.9-1-1.5-1s-1.1,0.3-1.5,1c-0.4,0.6-0.6,1.6-0.6,2.9c0,1.3,0.2,2.2,0.6,2.9c0.4,0.7,0.9,1,1.5,1
			S69.4,46.5,69.8,45.8z M78.1,37.8h1.7l-9.4,17.7h-1.7L78.1,37.8z M77.4,54.1c-0.7-1-1.1-2.3-1.1-4c0-1.7,0.4-3,1.1-4
			c0.7-0.9,1.7-1.4,2.9-1.4s2.2,0.5,2.9,1.4c0.7,0.9,1.1,2.3,1.1,4c0,1.7-0.4,3-1.1,4c-0.7,1-1.7,1.4-2.9,1.4S78.1,55.1,77.4,54.1z
			 M81.7,53c0.4-0.7,0.6-1.6,0.6-2.9c0-1.3-0.2-2.2-0.6-2.9c-0.4-0.6-0.9-1-1.5-1s-1.1,0.3-1.5,1c-0.4,0.6-0.6,1.6-0.6,2.9
			c0,1.3,0.2,2.2,0.6,2.9c0.4,0.7,0.9,1,1.5,1S81.4,53.6,81.7,53z"/>
	</g>
</g>
</svg>
