<?xml version="1.0" encoding="utf-8"?>
<!-- Generator: Adobe Illustrator 18.1.0, SVG Export Plug-In . SVG Version: 6.00 Build 0)  -->
<svg version="1.1" id="Layer_1" xmlns="http://www.w3.org/2000/svg" xmlns:xlink="http://www.w3.org/1999/xlink" x="0px" y="0px"
	 width="65px" height="65px" viewBox="0 0 65 65" enable-background="new 0 0 65 65" xml:space="preserve">
<g>
	<g>
		<g>
			<path fill="#FFFFFF" d="M8.5,55.5c-4,0-7.3,3.3-7.3,7.3c0,0.6,0.5,1,1,1h12.5c0.6,0,1-0.5,1-1C15.8,58.7,12.5,55.5,8.5,55.5z
				 M3.4,61.7c0.4-2,2-3.6,4.1-4.1v2h2.1v-2c2,0.4,3.7,2,4.1,4.1H3.4z"/>
		</g>
	</g>
	<g>
		<g>
			<path fill="#FFFFFF" d="M62.8,46.1h-1.8c-0.1-0.1-0.1-0.3-0.2-0.4l1.3-1.3c0.4-0.4,0.4-1.1,0-1.5l-4.4-4.4
				c-0.2-0.2-0.5-0.3-0.8-0.3c1.7-0.9,2.8-2.6,2.8-4.6V6.4c0-2.9-2.3-5.2-5.2-5.2h-48c-2.9,0-5.2,2.3-5.2,5.2v27.1
				c0,2.9,2.3,5.2,5.2,5.2H20l-3.9,7.3h-0.3h-1.6c-2,0-3.7,1.6-3.7,3.7c0,2,1.6,3.7,3.7,3.7h22.4c0,0.6,0.5,1,1,1h1.8
				c0.1,0.1,0.1,0.3,0.2,0.4l-1.3,1.3c-0.4,0.4-0.4,1.1,0,1.5l4.4,4.4c0.4,0.4,1.1,0.4,1.5,0l1.3-1.3c0.1,0.1,0.3,0.1,0.4,0.2v1.8
				c0,0.6,0.5,1,1,1h6.3c0.6,0,1-0.5,1-1v-1.8c0.1-0.1,0.3-0.1,0.4-0.2l1.3,1.3c0.4,0.4,1.1,0.4,1.5,0l4.4-4.4
				c0.4-0.4,0.4-1.1,0-1.5l-1.3-1.3c0.1-0.1,0.1-0.3,0.2-0.4h1.8c0.6,0,1-0.5,1-1v-6.3C63.8,46.5,63.3,46.1,62.8,46.1z M3.3,6.4
				c0-1.7,1.4-3.1,3.1-3.1h48c1.7,0,3.1,1.4,3.1,3.1v21.9H3.3V6.4z M6.4,36.7c-1.7,0-3.1-1.4-3.1-3.1v-3.1h54.3v3.1
				c0,1.7-1.4,3.1-3.1,3.1h-1h-6.3H39H21.8H6.4z M56.1,38.4l-1.3,1.3c-0.1-0.1-0.3-0.1-0.4-0.2v-0.8C55,38.8,55.6,38.6,56.1,38.4z
				 M46.1,38.8v0.8c-0.1,0.1-0.3,0.1-0.4,0.2l-1-1H46.1z M42.5,38.8l-0.9,0.9L41,38.8H42.5z M36.7,51.3H14.2c-0.9,0-1.6-0.7-1.6-1.6
				c0-0.9,0.7-1.6,1.6-1.6h1.6h0.9h20V51.3z M18.5,46.1l3.9-7.3h16.1l1.6,2.4l-1.7,1.7c-0.4,0.4-0.4,1.1,0,1.5l1.3,1.3
				c-0.1,0.1-0.1,0.3-0.2,0.4h-1.8H18.5z M61.7,52.3h-1.5c-0.5,0-0.9,0.3-1,0.7c-0.2,0.5-0.4,1-0.6,1.5c-0.2,0.4-0.1,0.9,0.2,1.2
				l1.1,1.1l-3,3l-1.1-1.1c-0.3-0.3-0.8-0.4-1.2-0.2c-0.5,0.3-1,0.5-1.5,0.6c-0.4,0.1-0.7,0.5-0.7,1v1.5h-4.2v-1.5
				c0-0.5-0.3-0.9-0.7-1c-0.5-0.2-1-0.4-1.5-0.6c-0.4-0.2-0.9-0.1-1.2,0.2l-1.1,1.1l-3-3l1.1-1.1c0.3-0.3,0.4-0.8,0.2-1.2
				c-0.3-0.5-0.5-1-0.6-1.5c-0.1-0.4-0.5-0.7-1-0.7h-1.5v-4.2h1.5c0.5,0,0.9-0.3,1-0.7c0.2-0.5,0.4-1,0.6-1.5
				c0.2-0.4,0.1-0.9-0.2-1.2l-1.1-1.1l3-3l1.1,1.1c0.3,0.3,0.8,0.4,1.2,0.2c0.5-0.3,1-0.5,1.5-0.6c0.4-0.1,0.7-0.5,0.7-1v-1.5h4.2
				v1.5c0,0.5,0.3,0.9,0.7,1c0.5,0.2,1,0.4,1.5,0.6c0.4,0.2,0.9,0.1,1.2-0.2l1.1-1.1l3,3l-1.1,1.1c-0.3,0.3-0.4,0.8-0.2,1.2
				c0.3,0.5,0.5,1,0.6,1.5c0.1,0.4,0.5,0.7,1,0.7h1.5V52.3z"/>
		</g>
	</g>
	<g>
		<g>
			<path fill="#FFFFFF" d="M50.2,44c-3.5,0-6.3,2.8-6.3,6.3s2.8,6.3,6.3,6.3s6.3-2.8,6.3-6.3S53.7,44,50.2,44z M50.2,54.4
				c-2.3,0-4.2-1.9-4.2-4.2s1.9-4.2,4.2-4.2s4.2,1.9,4.2,4.2S52.5,54.4,50.2,54.4z"/>
		</g>
	</g>
	<g>
		<g>
			<path fill="#FFFFFF" d="M21.8,9.2l-1.5-1.5L13,15.1c-0.4,0.4-0.4,1.1,0,1.5l7.3,7.3l1.5-1.5l-6.6-6.6L21.8,9.2z"/>
		</g>
	</g>
	<g>
		<g>
			<path fill="#FFFFFF" d="M44.7,15.1l-7.3-7.3l-1.5,1.5l6.6,6.6l-6.6,6.6l1.5,1.5l7.3-7.3C45.1,16.1,45.1,15.5,44.7,15.1z"/>
		</g>
	</g>
	<g>
		<g>
			
				<rect x="18.3" y="13.7" transform="matrix(-0.4472 0.8944 -0.8944 -0.4472 54.9487 -4.4354)" fill="#FFFFFF" width="21" height="2.1"/>
		</g>
	</g>
	<g>
		<g>
			<rect x="41.9" y="22.1" fill="#FFFFFF" width="2.1" height="2.1"/>
		</g>
	</g>
	<g>
		<g>
			<rect x="46.1" y="22.1" fill="#FFFFFF" width="2.1" height="2.1"/>
		</g>
	</g>
	<g>
		<g>
			<rect x="50.2" y="22.1" fill="#FFFFFF" width="2.1" height="2.1"/>
		</g>
	</g>
</g>
</svg>
