<?xml version="1.0" encoding="utf-8"?>
<!-- Generator: Adobe Illustrator 18.1.0, SVG Export Plug-In . SVG Version: 6.00 Build 0)  -->
<svg version="1.1" id="Layer_1" xmlns="http://www.w3.org/2000/svg" xmlns:xlink="http://www.w3.org/1999/xlink" x="0px" y="0px"
	 width="65px" height="65px" viewBox="0 0 65 65" enable-background="new 0 0 65 65" xml:space="preserve">
<g>
	<g>
		<g>
			<path fill="#FFFFFF" d="M49.7,8.2c-0.7,0-1.4,0.4-1.8,0.9l-6.6,7.5l-2-2.5c-0.9-1.1-2.6-1.3-3.7-0.4c-1.1,0.9-1.3,2.6-0.4,3.7
				l4,5c1,1.3,3,1.3,4.1,0.1l8.6-9.9C53.4,10.8,52,8,49.7,8.2z M50.4,11.3c-9,10.2-8.6,10.2-9.2,10.2c0,0-0.3,0-0.6-0.3l-4-5
				c-0.3-0.3-0.2-0.8,0.1-1.1c0.3-0.3,0.8-0.2,1.1,0.1l2.7,3.4c0.4,0.5,1.1,0.5,1.5,0l7.3-8.4c0.4-0.5,1.3-0.2,1.3,0.4
				C50.6,11,50.6,11.2,50.4,11.3z"/>
		</g>
	</g>
	<g>
		<g>
			<path fill="#FFFFFF" d="M58.3,23.7c-0.5,0-0.9,0.4-0.9,0.9v1c0,2.2-1.8,4-4,4H36.4c0.3-0.4,1.6-1.2,1.6-3c0-3-3.7-4.5-5.8-2.4
				l-2.3,2.3c-0.2-0.9-0.1-0.1-0.1-15.2c0-0.5-0.4-0.9-0.9-0.9c-0.5,0-0.9,0.4-0.9,0.9c0.2,14.2-0.4,14.7,0.6,16.7l-5.9,5.9
				c-0.1-1.8-0.3-3.4-0.7-4.5l0,0c-0.5-1.4-2.1-2.7-4-2.3c-1.7,0.3-2.8,1.9-2.6,3.6c0.3,2.3,0.3,4.6-0.3,6.8
				c-0.4,1.4-1.2,1.7-1.8,3.9c-0.8,2.8,0.2,3.6-0.8,4.6l-1.7,1.7c-1.2-0.3-2.6,0-3.6,1c-1.4,1.4-1.4,3.8,0,5.3l9.6,9.6
				c2.7,2.7,7.1,0.1,6.2-3.5c1.5-1.3,2-2.5,3.7-2.7c2-0.3,3.8-1.2,5.2-2.5c0.1-0.1,0.1-0.1,0.7-0.7c0.4-0.4,0.4-1,0-1.3
				c-0.4-0.4-1-0.4-1.3,0c-1.4,1.4-2.8,2.4-4.9,2.7c-2.5,0.4-3.4,2-4.4,2.9c0,0,0.4,0.4-9.6-9.6c0.7-0.9,2.6-1.9,2.4-4.3
				c-0.1-0.9,0-1.7,0.3-2.5c0.5-2,1.3-2.1,1.8-3.9c0.7-2.5,0.7-5,0.4-7.6c-0.1-0.7,0.4-1.4,1.1-1.5c0,0,0,0,0,0
				c1-0.2,1.7,0.5,1.9,1.1l0,0c0.4,1.2,0.7,3.1,0.7,5.3c0,1.1,1.4,1.7,2.2,0.9l10.7-10.7c0.9-0.9,2.5-0.4,2.5,0.9
				c0,0.4-0.1,0.8-0.4,1.1c-0.9,0.9-7,7-8.1,8.1c-0.4,0.4-0.4,1,0,1.3c0.4,0.4,1,0.4,1.3,0c0.3-0.3,0.7-0.4,1.1-0.4
				c1.3,0,1.9,1.6,1,2.6L30.3,40c-0.4,0.4-0.4,1,0,1.3c0.4,0.4,1,0.4,1.3,0c0.3-0.3,0.6-0.4,1-0.4c0.4,0,0.8,0.2,1,0.4
				c0.3,0.3,0.4,0.6,0.4,1c0,0.4-0.2,0.8-0.4,1L33,44.1c-0.2,0.2-0.3,0.4-0.3,0.7c0,0.2,0.1,0.5,0.3,0.7c0.4,0.4,1,0.4,1.3,0
				c0.6-0.6,1.5-0.6,2.1,0c0.6,0.6,0.6,1.5,0,2.1l-2.2,2.2c-0.4,0.4-0.4,1,0,1.3c0.4,0.4,1,0.4,1.3,0l2.2-2.2
				c1.9-1.9,0.8-5.3-1.8-5.7c0.1-0.3,0.1-0.5,0.1-0.8c0-0.9-0.4-1.7-1-2.4c-0.5-0.5-1.1-0.8-1.8-0.9c0.4-1.7-0.6-3.4-2.2-4l3.4-3.4
				h18.8c3.3,0,5.9-2.7,5.9-5.9v-1C59.2,24.1,58.8,23.7,58.3,23.7z M20.4,59.8c1.2,1.2,0.3,3.1-1.3,3.1c-0.5,0-0.9-0.2-1.3-0.5
				l-9.6-9.6c-1.2-1.2-0.3-3.1,1.3-3.1c0.3,0,0.6,0.1,0.9,0.2C10.9,50.1,10.8,50.2,20.4,59.8z"/>
		</g>
	</g>
	<g>
		<g>
			<path fill="#FFFFFF" d="M53.3,0.2H33.8c-3.3,0-5.9,2.7-5.9,5.9V7c0,0.5,0.4,0.9,0.9,0.9c0.5,0,0.9-0.4,0.9-0.9V6.1
				c0-2.2,1.8-4,4-4h19.5c2.2,0,4,1.8,4,4v14.1c0,0.5,0.4,0.9,0.9,0.9s0.9-0.4,0.9-0.9V6.1C59.2,2.9,56.6,0.2,53.3,0.2z"/>
		</g>
	</g>
</g>
</svg>
