<?xml version="1.0" encoding="utf-8"?>
<!-- Generator: Adobe Illustrator 18.1.0, SVG Export Plug-In . SVG Version: 6.00 Build 0)  -->
<svg version="1.1" id="Layer_1" xmlns="http://www.w3.org/2000/svg" xmlns:xlink="http://www.w3.org/1999/xlink" x="0px" y="0px"
	 width="65px" height="65px" viewBox="0 0 65 65" enable-background="new 0 0 65 65" xml:space="preserve">
<g>
	<g>
		<g>
			<path fill="#FFFFFF" d="M19.8,42.4c1.2,0,2.2-0.4,3-1.3c0.6-0.6,0.9-1.2,1.1-1.9l2.3,2.3c0.8,0.8,1.9,1.3,3,1.3
				c1.2,0,2.2-0.4,3-1.3c0.8-0.8,1.3-1.9,1.3-3c0-1.2-0.4-2.2-1.3-3l-1.9-1.9c0.7-0.2,1.4-0.6,1.9-1.1c0.8-0.8,1.3-1.9,1.3-3
				c0-1.1-0.4-2.2-1.3-3l-2.7-2.7c0.7-0.2,1.4-0.6,1.9-1.1c0.8-0.8,1.3-1.9,1.3-3c0-1.2-0.4-2.2-1.3-3l-7.6-7.6V1.3
				c0-0.6-0.5-1.1-1.1-1.1c-0.6,0-1.1,0.5-1.1,1.1V7c-1.6-0.6-3.5-0.3-4.7,0.9c-1.3,1.3-1.6,3.3-0.8,4.9C15.4,13,14.7,13.4,14,14
				c-1.3,1.3-1.6,3.3-0.8,4.9c-0.8,0.2-1.6,0.6-2.2,1.2c-1.3,1.3-1.6,3.3-0.8,4.9c-0.8,0.2-1.6,0.6-2.2,1.2c-0.8,0.8-1.3,1.9-1.3,3
				c0,1.2,0.4,2.2,1.3,3l8.8,8.8C17.6,41.9,18.7,42.4,19.8,42.4z M18.6,9.5C19,9,19.5,8.8,20.1,8.8c0.6,0,1.1,0.2,1.5,0.6l0.4,0.4
				l7.9,7.9c0.4,0.4,0.6,0.9,0.6,1.5c0,0.6-0.2,1.1-0.6,1.5c-0.8,0.8-2.2,0.8-3,0l-8.4-8.4C17.8,11.7,17.8,10.3,18.6,9.5z
				 M15.6,15.5c0.4-0.4,0.9-0.6,1.5-0.6s1.1,0.2,1.5,0.6l12.2,12.2c0.4,0.4,0.6,0.9,0.6,1.5c0,0.6-0.2,1.1-0.6,1.5
				c-0.8,0.8-2.2,0.8-3,0L23,26l-5.9-5.9l0,0l-1.5-1.5C14.7,17.7,14.7,16.4,15.6,15.5z M12.5,21.6c0.4-0.4,0.9-0.6,1.5-0.6
				c0.6,0,1.1,0.2,1.5,0.6l5.9,5.9l9.3,9.3c0.4,0.4,0.6,0.9,0.6,1.5c0,0.6-0.2,1.1-0.6,1.5c-0.8,0.8-2.2,0.8-3,0L22.9,35l0,0
				l-4.4-4.4l-5.9-5.9C11.7,23.8,11.7,22.5,12.5,21.6z M8.8,29.2c0-0.6,0.2-1.1,0.6-1.5c0.4-0.4,0.9-0.6,1.5-0.6
				c0.6,0,1.1,0.2,1.5,0.6l0.6,0.6l8.2,8.2c0.8,0.8,0.8,2.2,0,3c-0.8,0.8-2.2,0.8-3,0l-8.8-8.8C9.1,30.4,8.8,29.8,8.8,29.2z"/>
			<path fill="#FFFFFF" d="M54,27.1c0,0.6,0.5,1.1,1.1,1.1c0.6,0,1.1-0.5,1.1-1.1c0-7.8-3.2-12.4-5.2-15.1c-0.6-0.8-1.3-1.8-1.3-2.1
				V1.3c0-0.6-0.5-1.1-1.1-1.1c-0.6,0-1.1,0.5-1.1,1.1v8.6c0,1,0.7,2,1.7,3.4C51.1,16,54,20,54,27.1z"/>
			<path fill="#FFFFFF" d="M22.8,60.5c-0.6,0-1.1,0.5-1.1,1.1v2.2c0,0.6,0.5,1.1,1.1,1.1c0.6,0,1.1-0.5,1.1-1.1v-2.2
				C23.9,61,23.4,60.5,22.8,60.5z"/>
			<path fill="#FFFFFF" d="M51.4,28.4c-2.5-1.7-10.5-6.3-10.9-6.5c-0.7-0.4-1.5-0.3-2.2,0.1c-1.6,1-2.5,3.6-2.5,5.1
				c0,2.1,1.5,3.3,3,4.7c0.5,0.5,1.1,0.9,1.6,1.5l5.4,5.4c0.4,0.4,0.7,0.7,0.7,0.8c0,0.1,0,0.3,0,0.5c-0.3,0.7-2.2,3-4,4.7
				L30.7,55.4c-0.3,0.3-1,0.8-1.4,0.8h-9.7c-1.2,0-2.2-1-2.2-2.2s1-2.2,2.2-2.2h7.5c1.5,0,2.8-1.2,2.9-1.4l7.5-7.5
				c0.4-0.4,0.4-1.1,0-1.5c-0.4-0.4-1.1-0.4-1.5,0L28.5,49c-0.3,0.3-1,0.8-1.4,0.8h-7.5h-3.2c-1.2,0-2.2-1-2.2-2.2
				c0-1.2,1-2.2,2.2-2.2H25c0.6,0,1.1-0.5,1.1-1.1s-0.5-1.1-1.1-1.1h-8.6h-3.2c-1.2,0-2.2-1-2.2-2.2c0-0.5,0.2-1,0.5-1.4
				c0.4-0.4,0.4-1.1-0.1-1.5c-0.4-0.4-1.1-0.4-1.5,0.1C9.2,39,8.8,40,8.8,41.1c0,2.2,1.7,4,3.9,4.3C12.3,46,12,46.8,12,47.6
				c0,2.2,1.7,4,3.9,4.3c-0.4,0.6-0.6,1.4-0.6,2.2c0,2.4,1.9,4.3,4.3,4.3h9.7c1.5,0,2.8-1.2,2.9-1.4L44,46.2
				c4.6-4.6,4.6-5.8,4.6-6.1c0-1.4-0.2-1.7-1.4-2.9l-5.4-5.4c-0.6-0.6-1.2-1.1-1.7-1.6c-1.5-1.3-2.2-2-2.2-3c0-1.4,1.2-3.3,1.6-3.4
				c0.1,0,8.2,4.8,10.7,6.4c2.8,1.9,6,4.8,6,10.9c0,4.6-3.6,10.9-6,15c-1.7,3-2.5,4.4-2.5,5.4v2.2c0,0.6,0.5,1.1,1.1,1.1
				c0.6,0,1.1-0.5,1.1-1.1v-2.1c0-0.5,1.2-2.6,2.3-4.4c2.7-4.6,6.3-10.9,6.3-16.1C58.3,33.8,54.4,30.4,51.4,28.4z"/>
		</g>
	</g>
</g>
</svg>
