<?xml version="1.0" encoding="utf-8"?>
<!-- Generator: Adobe Illustrator 18.1.0, SVG Export Plug-In . SVG Version: 6.00 Build 0)  -->
<svg version="1.1" id="Layer_1" xmlns="http://www.w3.org/2000/svg" xmlns:xlink="http://www.w3.org/1999/xlink" x="0px" y="0px"
	 width="65px" height="65px" viewBox="0 0 65 65" enable-background="new 0 0 65 65" xml:space="preserve">
<g>
	<g>
		<path fill="#FFFFFF" d="M38.5,15.3c-0.5,0-0.9-0.3-1-0.8c-0.1-0.5,0.3-1,0.8-1.1l21.2-3.5c0.5-0.1,1,0.3,1.1,0.8
			c0.1,0.5-0.3,1-0.8,1.1l-21.2,3.5C38.6,15.3,38.6,15.3,38.5,15.3z"/>
		<path fill="#FFFFFF" d="M5.3,20.8c-0.5,0-0.9-0.3-1-0.8c-0.1-0.5,0.3-1,0.8-1.1l21.3-3.6c0.5-0.1,1,0.3,1.1,0.8
			c0.1,0.5-0.3,1-0.8,1.1L5.5,20.8C5.4,20.8,5.4,20.8,5.3,20.8z"/>
	</g>
	<g>
		<g>
			<path fill="#FFFFFF" d="M52.7,45.8c-6.6,0-12.1-5.4-12.1-12.1c0-0.5,0.4-1,1-1h22.2c0.5,0,1,0.4,1,1
				C64.8,40.4,59.4,45.8,52.7,45.8z M42.7,34.7c0.5,5.1,4.8,9.1,10.1,9.1c5.2,0,9.6-4,10.1-9.1H42.7z"/>
			<path fill="#FFFFFF" d="M41.6,34.7c-0.2,0-0.3,0-0.5-0.1c-0.5-0.3-0.7-0.8-0.4-1.3l11.1-21.2c0.3-0.6,1.4-0.6,1.7,0l11.1,21.2
				c0.2,0.5,0.1,1.1-0.4,1.3c-0.5,0.2-1.1,0.1-1.3-0.4L52.7,14.6L42.5,34.2C42.3,34.5,42,34.7,41.6,34.7z"/>
		</g>
		<g>
			<path fill="#FFFFFF" d="M12.3,52.1c-6.7,0-12.1-5.4-12.1-12.1c0-0.5,0.4-1,1-1h22.2c0.5,0,1,0.4,1,1
				C24.3,46.7,18.9,52.1,12.3,52.1z M2.2,41.1c0.5,5.1,4.8,9.1,10.1,9.1c5.2,0,9.6-4,10.1-9.1H2.2z"/>
			<path fill="#FFFFFF" d="M23.4,41.1c-0.4,0-0.7-0.2-0.9-0.5L12.3,21L2.1,40.5C1.8,41,1.2,41.2,0.7,41c-0.5-0.3-0.7-0.8-0.4-1.3
				l11.1-21.2c0.3-0.6,1.4-0.6,1.7,0l11.1,21.2c0.2,0.5,0.1,1.1-0.4,1.3C23.7,41,23.5,41.1,23.4,41.1z"/>
		</g>
	</g>
	<path fill="#FFFFFF" d="M32.5,22.2c-3.8,0-6.9-3.1-6.9-6.9c0-3.8,3.1-6.9,6.9-6.9s6.9,3.1,6.9,6.9C39.4,19.1,36.3,22.2,32.5,22.2z
		 M32.5,10.3c-2.8,0-5,2.2-5,5s2.2,5,5,5c2.8,0,5-2.2,5-5S35.3,10.3,32.5,10.3z"/>
	<path fill="#FFFFFF" d="M32.5,59c-0.5,0-1-0.4-1-1V21.3c0-0.5,0.4-1,1-1c0.5,0,1,0.4,1,1v36.8C33.5,58.6,33,59,32.5,59z"/>
	<path fill="#FFFFFF" d="M32.5,10.3c-0.5,0-1-0.4-1-1V6.9c0-0.5,0.4-1,1-1c0.5,0,1,0.4,1,1v2.4C33.5,9.9,33,10.3,32.5,10.3z"/>
	<path fill="#FFFFFF" d="M45.4,59H19.6c-0.5,0-1-0.4-1-1c0-0.5,0.4-1,1-1h25.8c0.5,0,1,0.4,1,1C46.4,58.6,45.9,59,45.4,59z"/>
</g>
</svg>
