<?xml version="1.0" encoding="utf-8"?>
<!-- Generator: Adobe Illustrator 18.1.0, SVG Export Plug-In . SVG Version: 6.00 Build 0)  -->
<svg version="1.1" id="Layer_1" xmlns="http://www.w3.org/2000/svg" xmlns:xlink="http://www.w3.org/1999/xlink" x="0px" y="0px"
	 width="42px" height="42px" viewBox="0 0 42 42" enable-background="new 0 0 42 42" xml:space="preserve">
<g>
	<g>
		<g>
			<rect x="20.3" y="0.5" fill="#FFFFFF" width="1.4" height="4.1"/>
		</g>
	</g>
	<g>
		<g>
			
				<rect x="33.3" y="5.7" transform="matrix(-0.7071 0.7071 -0.7071 -0.7071 65.3639 -14.4055)" fill="#FFFFFF" width="4.8" height="1.4"/>
		</g>
	</g>
	<g>
		<g>
			
				<rect x="5.7" y="3.9" transform="matrix(-0.7071 0.7071 -0.7071 -0.7071 15.289 6.333)" fill="#FFFFFF" width="1.4" height="4.8"/>
		</g>
	</g>
	<g>
		<g>
			
				<rect x="3.9" y="35" transform="matrix(-0.7071 0.7071 -0.7071 -0.7071 36.0278 56.4042)" fill="#FFFFFF" width="4.8" height="1.4"/>
		</g>
	</g>
	<g>
		<g>
			<path fill="#FFFFFF" d="M38.9,19.1c0.3-0.7,0.5-1.5,0.5-2.2c0-3-2.4-5.5-5.5-5.5c-0.3,0-0.7,0-1,0.1C32.1,9.5,30.1,8,27.8,8
				c-0.8,0-1.5,0.2-2.2,0.5C24.6,7,22.9,6,21,6s-3.6,1-4.6,2.5C15.7,8.2,14.9,8,14.2,8c-2.3,0-4.3,1.4-5.1,3.5
				c-0.3-0.1-0.7-0.1-1-0.1c-3,0-5.5,2.4-5.5,5.5c0,0.8,0.2,1.5,0.5,2.2c-1.6,1-2.5,2.7-2.5,4.6c0,3,2.4,5.5,5.5,5.5h10.5
				c-0.1,0.3-0.2,0.7-0.2,1c0,0.7,0.3,1.3,0.7,1.7c-0.4,0.4-0.7,1-0.7,1.7c0,0.7,0.3,1.3,0.7,1.7c-0.4,0.4-0.7,1-0.7,1.7
				c0,1.2,0.9,2.2,2.1,2.4c0.3,1.2,1.4,2.1,2.6,2.1s2.3-0.9,2.6-2.1c1.2-0.1,2.1-1.1,2.1-2.4c0-0.7-0.3-1.3-0.7-1.7
				c0.4-0.4,0.7-1,0.7-1.7c0-0.7-0.3-1.3-0.7-1.7c0.4-0.4,0.7-1,0.7-1.7c0-0.4-0.1-0.7-0.2-1h3.7c0.3,3.4,3.3,6.1,6.8,6.1
				c0.4,0,0.7-0.3,0.7-0.7v-5.5c2.7-0.3,4.8-2.6,4.8-5.4C41.5,21.9,40.5,20.1,38.9,19.1z M21,40.1c-0.5,0-0.9-0.3-1.2-0.7h2.3
				C21.9,39.8,21.5,40.1,21,40.1z M23.4,38.1h-4.8c-0.6,0-1-0.5-1-1s0.5-1,1-1h4.8c0.6,0,1,0.5,1,1S24,38.1,23.4,38.1z M23.4,34.6
				h-4.8c-0.6,0-1-0.5-1-1s0.5-1,1-1h4.8c0.6,0,1,0.5,1,1S24,34.6,23.4,34.6z M23.4,31.2h-4.8c-0.6,0-1-0.5-1-1c0-0.6,0.5-1,1-1h4.8
				c0.6,0,1,0.5,1,1C24.4,30.8,24,31.2,23.4,31.2z M18.1,20.5c0.1,0.1,0.3,0.2,0.5,0.2c0.2,0,0.3-0.1,0.5-0.2
				c0.8-0.8,1.2-1.8,1.2-2.9c0-0.2,0-0.4,0-0.6c0,0,0-0.1,0-0.1c0-0.2-0.1-0.4-0.1-0.5c0,0,0,0,0,0c-0.1-0.2-0.1-0.3-0.2-0.5
				c0,0,0-0.1-0.1-0.1c-0.1-0.2-0.2-0.3-0.3-0.5c0,0,0,0,0,0c0.8-0.5,2-0.5,2.8,0c0,0,0,0,0,0c-0.1,0.1-0.2,0.3-0.3,0.5
				c0,0,0,0.1-0.1,0.1c-0.1,0.2-0.1,0.3-0.2,0.5c0,0,0,0,0,0c-0.1,0.2-0.1,0.4-0.1,0.5c0,0,0,0.1,0,0.1c0,0.2,0,0.4,0,0.6
				c0,1.1,0.4,2.1,1.2,2.9c0.1,0.1,0.3,0.2,0.5,0.2c0.2,0,0.3-0.1,0.5-0.2c0.8-0.8,1.2-1.8,1.2-2.9c0-0.2,0-0.4,0-0.6
				c0,0,0-0.1,0-0.1c0-0.2-0.1-0.4-0.1-0.5c0,0,0,0,0,0c-0.1-0.2-0.1-0.3-0.2-0.5c0,0,0-0.1-0.1-0.1c-0.1-0.2-0.2-0.3-0.3-0.5
				c0,0,0,0,0,0c1-0.6,2.4-0.5,3.3,0.4c0.5,0.5,0.8,1.2,0.8,1.9v1.7l-5.8,3.9c-0.2,0.1-0.3,0.3-0.3,0.6v4.1h-2.7v-4.1
				c0-0.2-0.1-0.4-0.3-0.6l-5.8-3.9v-1.7c0-1.5,1.2-2.7,2.7-2.7c0.5,0,1,0.1,1.4,0.4c0,0,0,0,0,0c-0.1,0.1-0.2,0.3-0.3,0.5
				c0,0,0,0.1-0.1,0.1c-0.1,0.2-0.1,0.3-0.2,0.5c0,0,0,0,0,0C17,16.5,17,16.7,17,16.9c0,0,0,0.1,0,0.1c0,0.2,0,0.4,0,0.6
				C16.9,18.7,17.3,19.7,18.1,20.5z M18.3,17.6c0-0.2,0-0.3,0-0.5c0,0,0-0.1,0-0.1c0-0.2,0.1-0.3,0.1-0.4c0,0,0,0,0-0.1
				c0-0.1,0.1-0.1,0.1-0.2c0,0.1,0.1,0.1,0.1,0.2c0,0,0,0,0,0.1c0.1,0.1,0.1,0.3,0.1,0.4c0,0,0,0.1,0,0.1c0,0.2,0,0.3,0,0.5
				c0,0.2,0,0.3,0,0.5c0,0,0,0.1,0,0.1c0,0.2-0.1,0.3-0.1,0.4c0,0,0,0,0,0.1c0,0.1-0.1,0.1-0.1,0.2c0-0.1-0.1-0.1-0.1-0.2
				c0,0,0,0,0-0.1c-0.1-0.1-0.1-0.3-0.1-0.4c0,0,0-0.1,0-0.1C18.3,17.9,18.3,17.8,18.3,17.6z M23,17.6c0-0.2,0-0.3,0-0.5
				c0,0,0-0.1,0-0.1c0-0.2,0.1-0.3,0.1-0.4c0,0,0,0,0-0.1c0-0.1,0.1-0.1,0.1-0.2c0,0.1,0.1,0.1,0.1,0.2c0,0,0,0,0,0.1
				c0.1,0.1,0.1,0.3,0.1,0.4c0,0,0,0.1,0,0.1c0,0.2,0,0.3,0,0.5c0,0.2,0,0.3,0,0.5c0,0,0,0.1,0,0.1c0,0.2-0.1,0.3-0.1,0.4
				c0,0,0,0,0,0.1c0,0.1-0.1,0.1-0.1,0.2c0-0.1-0.1-0.1-0.1-0.2c0,0,0,0,0-0.1c-0.1-0.1-0.1-0.3-0.1-0.4c0,0,0-0.1,0-0.1
				C23.1,17.9,23,17.8,23,17.6z M36,27.8c-0.4,0-0.7,0.3-0.7,0.7v5.4c-2.7-0.3-4.8-2.6-4.8-5.4c0-0.4-0.3-0.7-0.7-0.7h-6.1v-3.7
				l5.8-3.9c0.2-0.1,0.3-0.3,0.3-0.6v-2c0-1.1-0.4-2.1-1.2-2.9l-0.5,0.5l0.5-0.5c-0.8-0.8-1.8-1.2-2.9-1.2c-0.9,0-1.7,0.3-2.4,0.8
				c-0.7-0.5-1.5-0.8-2.4-0.8s-1.7,0.3-2.4,0.8c-0.7-0.5-1.5-0.8-2.4-0.8c-2.3,0-4.1,1.8-4.1,4.1v2c0,0.2,0.1,0.4,0.3,0.6l5.8,3.9
				v3.7H6c-2.3,0-4.1-1.8-4.1-4.1c0-1.6,0.9-3,2.4-3.7c0.2-0.1,0.3-0.2,0.4-0.4s0-0.4-0.1-0.6c-0.4-0.6-0.6-1.4-0.6-2.1
				c0-2.3,1.8-4.1,4.1-4.1c0.4,0,0.9,0.1,1.3,0.2c0.2,0.1,0.4,0,0.5-0.1c0.2-0.1,0.3-0.3,0.3-0.4c0.4-1.8,2.1-3.1,4-3.1
				c0.8,0,1.5,0.2,2.1,0.6c0.2,0.1,0.4,0.1,0.6,0.1c0.2-0.1,0.3-0.2,0.4-0.4C18,8.3,19.4,7.4,21,7.4s3,0.9,3.7,2.4
				c0.1,0.2,0.2,0.3,0.4,0.4c0.2,0.1,0.4,0,0.6-0.1c0.6-0.4,1.4-0.6,2.1-0.6c1.9,0,3.5,1.3,4,3.1c0,0.2,0.2,0.3,0.3,0.4
				c0.2,0.1,0.4,0.1,0.5,0.1c0.4-0.1,0.9-0.2,1.3-0.2c2.3,0,4.1,1.8,4.1,4.1c0,0.8-0.2,1.5-0.6,2.1c-0.1,0.2-0.1,0.4-0.1,0.6
				c0.1,0.2,0.2,0.3,0.4,0.4c1.4,0.7,2.4,2.1,2.4,3.7C40.1,26,38.3,27.8,36,27.8z"/>
		</g>
	</g>
	<g>
		<g>
			<rect x="12.8" y="30.6" fill="#FFFFFF" width="1.4" height="1.4"/>
		</g>
	</g>
	<g>
		<g>
			<rect x="10.1" y="30.6" fill="#FFFFFF" width="1.4" height="1.4"/>
		</g>
	</g>
	<g>
		<g>
			<rect x="7.4" y="30.6" fill="#FFFFFF" width="1.4" height="1.4"/>
		</g>
	</g>
</g>
</svg>
