<?xml version="1.0" encoding="utf-8"?>
<!-- Generator: Adobe Illustrator 18.1.0, SVG Export Plug-In . SVG Version: 6.00 Build 0)  -->
<svg version="1.1" id="Layer_1" xmlns="http://www.w3.org/2000/svg" xmlns:xlink="http://www.w3.org/1999/xlink" x="0px" y="0px"
	 width="42px" height="42px" viewBox="0 0 42 42" enable-background="new 0 0 42 42" xml:space="preserve">
<g>
	<g>
		<g>
			<path fill="#FFFFFF" d="M36.5,6.9l-6.1-6.1c-0.1-0.1-0.3-0.2-0.5-0.2H8.7c-1.9,0-3.4,1.5-3.4,3.4v34.1c0,1.9,1.5,3.4,3.4,3.4
				h24.6c1.9,0,3.4-1.5,3.4-3.4V7.4C36.7,7.2,36.6,7,36.5,6.9z M30.6,2.9l3.8,3.8h-3.8V2.9z M35.3,38.1c0,1.1-0.9,2-2,2H8.7
				c-1.1,0-2-0.9-2-2V3.9c0-1.1,0.9-2,2-2h20.5v5.5c0,0.4,0.3,0.7,0.7,0.7h5.5V38.1z"/>
		</g>
	</g>
	<g>
		<g>
			<path fill="#FFFFFF" d="M11.4,10.1c-1.5,0-2.7,1.2-2.7,2.7s1.2,2.7,2.7,2.7c1.5,0,2.7-1.2,2.7-2.7S13,10.1,11.4,10.1z M11.4,14.2
				c-0.8,0-1.4-0.6-1.4-1.4s0.6-1.4,1.4-1.4c0.8,0,1.4,0.6,1.4,1.4S12.2,14.2,11.4,14.2z"/>
		</g>
	</g>
	<g>
		<g>
			<path fill="#FFFFFF" d="M11.4,17.6c-1.5,0-2.7,1.2-2.7,2.7S9.9,23,11.4,23c1.5,0,2.7-1.2,2.7-2.7S13,17.6,11.4,17.6z M11.4,21.7
				c-0.8,0-1.4-0.6-1.4-1.4c0-0.8,0.6-1.4,1.4-1.4c0.8,0,1.4,0.6,1.4,1.4C12.8,21.1,12.2,21.7,11.4,21.7z"/>
		</g>
	</g>
	<g>
		<g>
			<path fill="#FFFFFF" d="M11.4,25.1c-1.5,0-2.7,1.2-2.7,2.7c0,1.5,1.2,2.7,2.7,2.7c1.5,0,2.7-1.2,2.7-2.7
				C14.2,26.3,13,25.1,11.4,25.1z M11.4,29.2c-0.8,0-1.4-0.6-1.4-1.4s0.6-1.4,1.4-1.4c0.8,0,1.4,0.6,1.4,1.4S12.2,29.2,11.4,29.2z"
				/>
		</g>
	</g>
	<g>
		<g>
			<path fill="#FFFFFF" d="M11.4,32.6c-1.5,0-2.7,1.2-2.7,2.7c0,1.5,1.2,2.7,2.7,2.7c1.5,0,2.7-1.2,2.7-2.7
				C14.2,33.8,13,32.6,11.4,32.6z M11.4,36.7c-0.8,0-1.4-0.6-1.4-1.4c0-0.8,0.6-1.4,1.4-1.4c0.8,0,1.4,0.6,1.4,1.4
				C12.8,36.1,12.2,36.7,11.4,36.7z"/>
		</g>
	</g>
	<g>
		<g>
			<rect x="15.5" y="13.5" fill="#FFFFFF" width="17.7" height="1.4"/>
		</g>
	</g>
	<g>
		<g>
			<rect x="16.2" y="3.9" fill="#FFFFFF" width="9.6" height="1.4"/>
		</g>
	</g>
	<g>
		<g>
			<rect x="14.2" y="6.7" fill="#FFFFFF" width="13.6" height="1.4"/>
		</g>
	</g>
	<g>
		<g>
			<rect x="15.5" y="21" fill="#FFFFFF" width="17.7" height="1.4"/>
		</g>
	</g>
	<g>
		<g>
			<rect x="15.5" y="28.5" fill="#FFFFFF" width="17.7" height="1.4"/>
		</g>
	</g>
	<g>
		<g>
			<rect x="15.5" y="36" fill="#FFFFFF" width="17.7" height="1.4"/>
		</g>
	</g>
	<g>
		<g>
			<rect x="21" y="10.8" fill="#FFFFFF" width="1.4" height="1.4"/>
		</g>
	</g>
	<g>
		<g>
			<rect x="18.3" y="10.8" fill="#FFFFFF" width="1.4" height="1.4"/>
		</g>
	</g>
	<g>
		<g>
			<rect x="15.5" y="10.8" fill="#FFFFFF" width="1.4" height="1.4"/>
		</g>
	</g>
</g>
</svg>
