<?xml version="1.0" encoding="utf-8"?>
<!-- Generator: Adobe Illustrator 18.1.0, SVG Export Plug-In . SVG Version: 6.00 Build 0)  -->
<svg version="1.1" id="Layer_1" xmlns="http://www.w3.org/2000/svg" xmlns:xlink="http://www.w3.org/1999/xlink" x="0px" y="0px"
	 width="42px" height="42px" viewBox="0 0 42 42" enable-background="new 0 0 42 42" xml:space="preserve">
<g>
	<g>
		<g>
			<path fill="#FFFFFF" d="M39.4,20.3v-15c0-1.9-1.5-3.4-3.4-3.4H6c-1.9,0-3.4,1.5-3.4,3.4v10.2c-1.1,0-2,0.9-2,2v20.5
				c0,1.1,0.9,2,2,2h15c1.1,0,2-0.9,2-2h5.7c0.6,0,1.2-0.3,1.6-0.8c0.4-0.5,0.5-1.2,0.3-1.8L26,30.6h3.9v7.5c0,1.1,0.9,2,2,2h7.5
				c1.1,0,2-0.9,2-2V22.4C41.5,21.2,40.5,20.3,39.4,20.3z M18.3,38.1c0,0.4-0.3,0.7-0.7,0.7h-15c-0.4,0-0.7-0.3-0.7-0.7v-1.4h16.4
				V38.1z M18.3,35.3H1.9v-15h16.4V35.3z M18.3,19H1.9v-1.4c0-0.4,0.3-0.7,0.7-0.7h15c0.4,0,0.7,0.3,0.7,0.7V19z M26,35.8
				c0.1,0.2,0,0.4-0.1,0.6c-0.1,0.2-0.3,0.3-0.5,0.3h-5.7v-1.4h6.2L26,35.8z M19.6,34v-3.4h4.9l0.9,3.4H19.6z M29.9,29.2H19.6v-4.1
				h10.2V29.2z M29.9,22.4v1.4H19.6v-6.1c0-1.1-0.9-2-2-2H3.9V5.3c0-1.1,0.9-2,2-2h30c1.1,0,2,0.9,2,2v15h-6.1
				C30.8,20.3,29.9,21.2,29.9,22.4z M40.1,38.1c0,0.4-0.3,0.7-0.7,0.7h-7.5c-0.4,0-0.7-0.3-0.7-0.7v-1.4h8.9V38.1z M40.1,35.3h-8.9
				V25.1h8.9V35.3z M40.1,23.7h-8.9v-1.4c0-0.4,0.3-0.7,0.7-0.7h7.5c0.4,0,0.7,0.3,0.7,0.7V23.7z"/>
		</g>
	</g>
	<g>
		<g>
			
				<rect x="4.1" y="28.5" transform="matrix(-0.7071 0.7071 -0.7071 -0.7071 30.8662 45.5854)" fill="#FFFFFF" width="3.9" height="1.4"/>
		</g>
	</g>
	<g>
		<g>
			
				<rect x="5.7" y="27.8" transform="matrix(-0.7071 0.7071 -0.7071 -0.7071 39.6998 40.5623)" fill="#FFFFFF" width="11.6" height="1.4"/>
		</g>
	</g>
	<g>
		<g>
			
				<rect x="7.9" y="23.7" transform="matrix(-0.7071 0.7071 -0.7071 -0.7071 35.6413 34.0593)" fill="#FFFFFF" width="5.8" height="1.4"/>
		</g>
	</g>
	<g>
		<g>
			
				<rect x="32.6" y="28.2" transform="matrix(-0.7071 0.7071 -0.7071 -0.7071 80.1161 24.5061)" fill="#FFFFFF" width="4.8" height="1.4"/>
		</g>
	</g>
	<g>
		<g>
			
				<rect x="33.9" y="30.9" transform="matrix(-0.7071 0.7071 -0.7071 -0.7071 84.3763 28.2046)" fill="#FFFFFF" width="4.8" height="1.4"/>
		</g>
	</g>
	<g>
		<g>
			
				<rect x="18.1" y="11.4" transform="matrix(-0.7071 0.7071 -0.7071 -0.7071 44.4263 5.8621)" fill="#FFFFFF" width="5.8" height="1.4"/>
		</g>
	</g>
	<g>
		<g>
			
				<rect x="24.2" y="10.1" transform="matrix(-0.7071 0.7071 -0.7071 -0.7071 53.943 -0.8085)" fill="#FFFFFF" width="5.8" height="1.4"/>
		</g>
	</g>
	<g>
		<g>
			
				<rect x="20.4" y="14.9" transform="matrix(-0.7071 0.7071 -0.7071 -0.7071 49.1676 10.7212)" fill="#FFFFFF" width="3.9" height="1.4"/>
		</g>
	</g>
	<g>
		<g>
			
				<rect x="23.8" y="6.7" transform="matrix(-0.7071 0.7071 -0.7071 -0.7071 49.2042 -5.6571)" fill="#FFFFFF" width="3.9" height="1.4"/>
		</g>
	</g>
	<g>
		<g>
			<rect x="5.3" y="4.6" fill="#FFFFFF" width="1.4" height="1.4"/>
		</g>
	</g>
	<g>
		<g>
			<rect x="8" y="4.6" fill="#FFFFFF" width="1.4" height="1.4"/>
		</g>
	</g>
	<g>
		<g>
			<rect x="10.8" y="4.6" fill="#FFFFFF" width="1.4" height="1.4"/>
		</g>
	</g>
</g>
</svg>
