<?xml version="1.0" encoding="utf-8"?>
<!-- Generator: Adobe Illustrator 18.1.0, SVG Export Plug-In . SVG Version: 6.00 Build 0)  -->
<svg version="1.1" id="Layer_1" xmlns="http://www.w3.org/2000/svg" xmlns:xlink="http://www.w3.org/1999/xlink" x="0px" y="0px"
	 width="50px" height="50px" viewBox="0 0 50 50" enable-background="new 0 0 50 50" xml:space="preserve">
<g>
	<g>
		<path fill="#FFFFFF" d="M25,45.6C13.6,45.6,4.4,36.4,4.4,25S13.6,4.4,25,4.4S45.6,13.6,45.6,25S36.4,45.6,25,45.6z"/>
		<path fill="#0B8CF7" d="M25,7.8c9.5,0,17.2,7.7,17.2,17.2S34.5,42.2,25,42.2S7.8,34.5,7.8,25S15.5,7.8,25,7.8 M25,1
			C11.7,1,1,11.7,1,25c0,13.3,10.8,24,24,24s24-10.8,24-24C49,11.7,38.3,1,25,1L25,1z"/>
	</g>
	<circle fill="#0B8CF7" cx="25" cy="25" r="2.9"/>
</g>
</svg>
