<?xml version="1.0" encoding="utf-8"?>
<!-- Generator: Adobe Illustrator 18.1.0, SVG Export Plug-In . SVG Version: 6.00 Build 0)  -->
<svg version="1.1" id="Layer_1" xmlns="http://www.w3.org/2000/svg" xmlns:xlink="http://www.w3.org/1999/xlink" x="0px" y="0px"
	 width="50px" height="50px" viewBox="0 0 50 50" enable-background="new 0 0 50 50" xml:space="preserve">
<g>
	<g>
		<circle fill="#FFFFFF" cx="25" cy="25" r="24"/>
		<path fill="#91969B" d="M25,49.7C11.4,49.7,0.3,38.6,0.3,25S11.4,0.3,25,0.3S49.7,11.4,49.7,25S38.6,49.7,25,49.7z M25,1.7
			C12.1,1.7,1.7,12.1,1.7,25c0,12.9,10.5,23.3,23.3,23.3S48.3,37.9,48.3,25C48.3,12.1,37.9,1.7,25,1.7z"/>
	</g>
	<path d="M25,1v48c13.3,0,24-10.8,24-24C49,11.7,38.3,1,25,1z"/>
</g>
</svg>
