<?xml version="1.0" encoding="utf-8"?>
<!-- Generator: Adobe Illustrator 18.1.0, SVG Export Plug-In . SVG Version: 6.00 Build 0)  -->
<svg version="1.1" id="Layer_1" xmlns="http://www.w3.org/2000/svg" xmlns:xlink="http://www.w3.org/1999/xlink" x="0px" y="0px"
	 width="50px" height="50px" viewBox="0 0 50 50" enable-background="new 0 0 50 50" xml:space="preserve">
<g>
	<circle fill="#006400" cx="25" cy="25" r="24"/>
	<g>
		<path fill="#FFFFFF" d="M10.4,30.7c-0.6-0.6-0.9-1.3-0.9-2.2c0-1.1,0.5-2,1.4-2.6c0.9-0.6,2.4-1,4.5-1.2c0-1.1-0.6-1.7-1.7-1.7
			c-0.4,0-0.9,0.1-1.3,0.3c-0.4,0.2-0.9,0.4-1.5,0.7l-1-1.9c1.5-0.9,2.9-1.4,4.4-1.4c1.3,0,2.3,0.4,3,1.2c0.7,0.8,1,1.9,1,3.5v6H16
			l-0.2-1.1h-0.1c-1,0.9-2.1,1.3-3.1,1.3C11.7,31.5,11,31.2,10.4,30.7z M14.5,29.1c0.3-0.2,0.6-0.4,0.9-0.7v-2
			c-1.1,0.2-1.9,0.4-2.4,0.7c-0.5,0.3-0.7,0.7-0.7,1.2c0,0.4,0.1,0.6,0.3,0.8c0.2,0.2,0.5,0.3,0.9,0.3
			C13.9,29.3,14.2,29.2,14.5,29.1z"/>
		<path fill="#FFFFFF" d="M24.9,31.2c-0.5-0.2-0.9-0.6-1.3-1h-0.1l-0.2,1.1h-2.2V16.5h2.9v3.7l-0.1,1.6c0.4-0.4,0.9-0.7,1.4-0.9
			c0.5-0.2,1-0.3,1.5-0.3c1.3,0,2.3,0.5,3,1.4c0.7,1,1.1,2.2,1.1,3.8c0,1.1-0.2,2.1-0.6,3c-0.4,0.9-0.9,1.5-1.6,2
			c-0.7,0.4-1.4,0.7-2.2,0.7C25.9,31.5,25.4,31.4,24.9,31.2z M27.2,28.4c0.4-0.5,0.6-1.4,0.6-2.4c0-2-0.7-3-2-3c-0.6,0-1.3,0.3-2,1
			v4.5c0.5,0.5,1.1,0.7,1.8,0.7C26.3,29.2,26.8,28.9,27.2,28.4z"/>
		<path fill="#FFFFFF" d="M34.9,30.9c-0.8-0.4-1.4-1.1-1.8-1.9c-0.4-0.8-0.7-1.8-0.7-2.9s0.2-2.1,0.7-2.9c0.5-0.8,1.1-1.5,1.9-1.9
			c0.8-0.4,1.7-0.7,2.7-0.7c1.1,0,2.2,0.4,3,1.1l-1.4,1.8c-0.3-0.2-0.5-0.4-0.8-0.5C38.4,23,38.2,23,37.9,23c-0.8,0-1.4,0.3-1.9,0.9
			c-0.5,0.6-0.7,1.3-0.7,2.3c0,0.9,0.2,1.7,0.7,2.3c0.5,0.6,1,0.9,1.8,0.9c0.6,0,1.3-0.3,2-0.8l1.1,1.9c-0.5,0.4-1,0.7-1.6,0.9
			c-0.6,0.2-1.2,0.3-1.8,0.3C36.5,31.5,35.6,31.3,34.9,30.9z"/>
	</g>
</g>
</svg>
