<?xml version="1.0" encoding="utf-8"?>
<!-- Generator: Adobe Illustrator 18.1.0, SVG Export Plug-In . SVG Version: 6.00 Build 0)  -->
<svg version="1.1" id="Layer_1" xmlns="http://www.w3.org/2000/svg" xmlns:xlink="http://www.w3.org/1999/xlink" x="0px" y="0px"
	 width="169px" height="169px" viewBox="0 0 169 169" enable-background="new 0 0 169 169" xml:space="preserve">
<g>
	<polygon fill="#7EC148" points="84.5,0.1 90.8,4.4 97.7,1.2 103.3,6.4 110.6,4.2 115.3,10.2 122.8,9.3 126.5,16 134.1,16.2 
		136.7,23.4 144.2,24.8 145.6,32.3 152.8,34.9 153,42.5 159.7,46.2 158.8,53.7 164.8,58.4 162.6,65.7 167.8,71.3 164.6,78.2 
		168.9,84.5 164.6,90.8 167.8,97.7 162.6,103.3 164.8,110.6 158.8,115.3 159.7,122.8 153,126.5 152.8,134.1 145.6,136.7 
		144.2,144.2 136.7,145.6 134.1,152.8 126.5,153 122.8,159.7 115.3,158.8 110.6,164.8 103.3,162.6 97.7,167.8 90.8,164.6 
		84.5,168.9 78.2,164.6 71.3,167.8 65.7,162.6 58.4,164.8 53.7,158.8 46.2,159.7 42.5,153 34.9,152.8 32.3,145.6 24.8,144.2 
		23.4,136.7 16.2,134.1 16,126.5 9.3,122.8 10.2,115.3 4.2,110.6 6.4,103.3 1.2,97.7 4.4,90.8 0.1,84.5 4.4,78.2 1.2,71.3 6.4,65.7 
		4.2,58.4 10.2,53.7 9.3,46.2 16,42.5 16.2,34.9 23.4,32.3 24.8,24.8 32.3,23.4 34.9,16.2 42.5,16 46.2,9.3 53.7,10.2 58.4,4.2 
		65.7,6.4 71.3,1.2 78.2,4.4 	"/>
	<g>
		<path fill="#FFFFFF" d="M60,30.6h5.8V32H60V30.6z"/>
		<path fill="#FFFFFF" d="M78.6,36.2v1.6h-3.8h-7.4v-1.6h7.4v-8c0-1.1-0.2-1.9-0.7-2.4C73.6,25.3,72.9,25,72,25h-4.6v-1.6h5.1
			c2.9,0,4.3,1.6,4.3,4.8v7.9H78.6z"/>
		<path fill="#FFFFFF" d="M88.8,36.2c0.9-0.1,1.7-0.3,2.3-0.6c0.6-0.3,1.1-0.9,1.5-1.7c0.4-0.8,0.7-1.9,0.8-3.4l0.4-5.4h-9.2v-1.6
			H96l-0.1,1.4L95.5,30c-0.1,2.5-0.7,4.4-1.9,5.7c-1.1,1.3-2.7,2-4.6,2L88.8,36.2z M84.7,30.4l0.3-1.7h1.7v14.2h-2V30.4z"/>
		<path fill="#FFFFFF" d="M104.9,28.2c0-1.1-0.2-1.9-0.7-2.4c-0.5-0.5-1.2-0.7-2.1-0.7h-4.5v-1.6h5c2.9,0,4.3,1.6,4.3,4.8v9.5h-2
			V28.2z"/>
	</g>
	<g>
		<g>
			<path fill="#FFFFFF" d="M38.1,125c-0.7,0.8-1.6,1.3-2.9,1.3c-0.4,0-0.9-0.1-1.4-0.2l0.1-1c0.4,0.1,0.7,0.1,1.1,0.1
				c0.9,0,1.6-0.3,2.1-1c0.4-0.6,0.7-1.6,0.7-2.9c0-2.4-0.8-3.7-2.4-3.7c-0.6,0-1.1,0.2-1.5,0.5c-0.4,0.3-0.6,0.8-0.8,1.4l-1.2,6.5
				h-1.3l1.2-6.5l-1.3-2.8h1.3l0.8,2c0.2-0.7,0.6-1.2,1.1-1.6c0.5-0.4,1-0.5,1.7-0.5c1.1,0,1.9,0.4,2.5,1.1c0.6,0.7,0.9,1.9,0.9,3.6
				C39.1,123,38.8,124.2,38.1,125z"/>
			<path fill="#FFFFFF" d="M42,117.3c0.2,0.1,0.2,0.3,0.2,0.6c0,0.3-0.1,0.5-0.2,0.6c-0.2,0.2-0.4,0.2-0.6,0.2
				c-0.3,0-0.5-0.1-0.7-0.4c-0.2-0.2-0.3-0.6-0.3-1.1c0-1.2,0.6-2.2,1.7-2.9l0.4,0.6c-0.4,0.3-0.7,0.6-0.9,0.9
				c-0.2,0.3-0.3,0.7-0.3,1.2c0,0,0.1,0,0.1,0C41.6,117.1,41.8,117.1,42,117.3z M44.8,117.3c0.2,0.1,0.2,0.3,0.2,0.6
				c0,0.3-0.1,0.5-0.2,0.6c-0.2,0.2-0.4,0.2-0.6,0.2c-0.3,0-0.5-0.1-0.7-0.4c-0.2-0.2-0.3-0.6-0.3-1.1c0-1.2,0.6-2.2,1.7-2.9
				l0.4,0.6c-0.4,0.3-0.7,0.6-0.9,0.9c-0.2,0.3-0.3,0.7-0.3,1.2c0,0,0.1,0,0.1,0C44.4,117.1,44.6,117.1,44.8,117.3z"/>
			<path fill="#FFFFFF" d="M53.8,116.8c0,2.3-0.1,4-0.3,5.1c-0.2,1.1-0.6,2-1.2,2.7c-0.6,0.7-1.7,1.1-3.1,1.4l-2.8,0.6l-0.2-1l3-0.6
				l-2.2-8.2h1.3l2,7.8c0.7-0.3,1.2-0.7,1.5-1.3c0.3-0.6,0.5-1.3,0.6-2.2c0.1-0.9,0.1-2.3,0.1-4.3H53.8z"/>
			<path fill="#FFFFFF" d="M62.5,125c-0.7,0.8-1.6,1.3-2.9,1.3c-0.4,0-0.9-0.1-1.4-0.2l0.1-1c0.4,0.1,0.7,0.1,1.1,0.1
				c0.9,0,1.6-0.3,2.1-1c0.4-0.6,0.7-1.6,0.7-2.9c0-2.4-0.8-3.7-2.4-3.7c-0.6,0-1.1,0.2-1.5,0.5c-0.4,0.3-0.6,0.8-0.8,1.4l-1.2,6.5
				h-1.3l1.2-6.5l-1.3-2.8h1.3l0.8,2c0.2-0.7,0.6-1.2,1.1-1.6c0.5-0.4,1-0.5,1.7-0.5c1.1,0,1.9,0.4,2.5,1.1c0.6,0.7,0.9,1.9,0.9,3.6
				C63.5,123,63.2,124.2,62.5,125z"/>
			<path fill="#FFFFFF" d="M73.9,116.8v1.1l-3.2,8.2h-1.3l3.2-8.3h-5.2v-3.7h1.2v2.7H73.9z"/>
			<path fill="#FFFFFF" d="M81.4,116.8v1.1l-3.2,8.2h-1.3l3.2-8.3h-5.2v-3.7h1.2v2.7H81.4z"/>
			<path fill="#FFFFFF" d="M82.9,118.8l-0.2-2H84l0.2,2v7.3h-1.3V118.8z"/>
			<path fill="#FFFFFF" d="M85.6,125.1h2.2c0.9,0,1.6-0.3,2-0.8c0.5-0.5,0.7-1.3,0.7-2.3v-1.1c0-1-0.2-1.8-0.7-2.3
				c-0.5-0.5-1.1-0.8-2-0.8h-2.2v-1h2.5c1.2,0,2.1,0.4,2.8,1.1c0.7,0.7,1,1.7,1,3.1v1c0,1.4-0.3,2.4-1,3.1c-0.7,0.7-1.6,1.1-2.8,1.1
				h-2.5V125.1z"/>
			<path fill="#FFFFFF" d="M98,124.8c0.2,0.3,0.3,0.6,0.3,1.1c0,0.7-0.2,1.3-0.6,1.8c-0.4,0.5-0.9,0.9-1.5,1.2l-0.3-0.7
				c0.5-0.2,0.8-0.5,1.1-0.8c0.3-0.3,0.4-0.7,0.4-1.2c0,0-0.1,0-0.2,0c-0.3,0-0.5-0.1-0.7-0.2c-0.2-0.2-0.3-0.4-0.3-0.7
				c0-0.3,0.1-0.5,0.3-0.6c0.2-0.2,0.4-0.2,0.7-0.2C97.6,124.3,97.8,124.5,98,124.8z"/>
			<path fill="#FFFFFF" d="M106.4,124.5c-1.3,1.2-3.2,1.8-5.8,1.8l-1.2-9.5h1.2l0.6,4.7c0.5-0.3,0.9-0.6,1.2-0.9
				c0.3-0.3,0.5-0.7,0.6-1.1c0.1-0.4,0.2-1,0.2-1.7l0-1h1.2l0,1c0,1.2-0.3,2.2-0.7,2.9c-0.5,0.7-1.3,1.3-2.4,1.8l0.3,2.6
				c1.8-0.1,3.1-0.6,4-1.6c0.9-1,1.3-2.4,1.3-4.3l0-2.4h1.3l0,2.4C108.3,121.6,107.7,123.3,106.4,124.5z"/>
			<path fill="#FFFFFF" d="M113.9,119.8c0-0.9,0.2-1.5,0.5-2h-4.7v-1h7.2v1h-1.2c-0.3,0.5-0.4,1.1-0.4,2v6.3h-1.3V119.8z"/>
			<path fill="#FFFFFF" d="M118.5,118.8l-0.2-2h1.3l0.2,2v7.3h-1.3V118.8z"/>
			<path fill="#FFFFFF" d="M128,117.7c0.5,0.6,0.7,1.4,0.7,2.5v5.9h-1.3v-6c0-0.7-0.2-1.3-0.5-1.7c-0.3-0.4-0.8-0.6-1.3-0.6h-2.8
				v8.3h-1.3v-8.9v-0.4h4.4C126.8,116.8,127.5,117.1,128,117.7z"/>
			<path fill="#FFFFFF" d="M136.6,116.8v1.1l-3.2,8.2h-1.3l3.2-8.3h-5.2v-3.7h1.2v2.7H136.6z"/>
		</g>
	</g>
	<g>
		<g>
			<path fill="#FFFFFF" d="M43.5,140l0.2-1.1h1.1v5.6h-1.3V140z M49.2,138.3c0-0.7-0.2-1.2-0.5-1.6c-0.3-0.3-0.8-0.5-1.3-0.5h-3.9
				v-1h4.2c1.9,0,2.8,1,2.8,3.1v6.2h-1.3V138.3z"/>
			<path fill="#FFFFFF" d="M51.9,143.5h2.9v-5.6c0-0.5-0.1-1-0.3-1.2c-0.2-0.3-0.5-0.4-1-0.5l-1.1-0.2l0.2-1l1.5,0.2
				c0.7,0.1,1.2,0.4,1.5,0.8c0.4,0.4,0.5,1,0.5,1.8v6.6h-4.2V143.5z"/>
			<path fill="#FFFFFF" d="M64.6,142.9c-1.3,1.2-3.2,1.8-5.8,1.8l-1.2-9.5h1.2l0.6,4.7c0.5-0.3,0.9-0.6,1.2-0.9
				c0.3-0.3,0.5-0.7,0.6-1.1c0.1-0.4,0.2-1,0.2-1.7l0-1h1.2l0,1c0,1.2-0.3,2.2-0.7,2.9c-0.5,0.7-1.3,1.3-2.4,1.8l0.3,2.6
				c1.8-0.1,3.1-0.6,4-1.6c0.9-1,1.3-2.4,1.3-4.3l0-2.4h1.3l0,2.4C66.5,140,65.8,141.8,64.6,142.9z"/>
			<path fill="#FFFFFF" d="M74.1,135.2v1.1l-3.2,8.2h-1.3l3.2-8.3h-5.2v-3.7h1.2v2.7H74.1z"/>
			<path fill="#FFFFFF" d="M85.8,138.4v6.2h-1.3h-5.7h-0.3v-9.3h1.3h3.2C84.8,135.2,85.8,136.3,85.8,138.4z M84.5,143.5v-5.2
				c0-0.7-0.2-1.2-0.5-1.6c-0.3-0.3-0.8-0.5-1.3-0.5h-2.9v7.3H84.5z"/>
			<path fill="#FFFFFF" d="M87.7,137.2l-0.2-2h1.3l0.2,2v7.3h-1.3V137.2z"/>
			<path fill="#FFFFFF" d="M96.8,135.2v1.1l-3.2,8.2h-1.3l3.2-8.3h-5.2v-3.7h1.2v2.7H96.8z"/>
			<path fill="#FFFFFF" d="M104.9,142.9c-1.3,1.2-3.2,1.8-5.8,1.8l-1.2-9.5h1.2l0.6,4.7c0.5-0.3,0.9-0.6,1.2-0.9
				c0.3-0.3,0.5-0.7,0.6-1.1c0.1-0.4,0.2-1,0.2-1.7l0-1h1.2l0,1c0,1.2-0.3,2.2-0.7,2.9c-0.5,0.7-1.3,1.3-2.4,1.8l0.3,2.6
				c1.8-0.1,3.1-0.6,4-1.6c0.9-1,1.3-2.4,1.3-4.3l0-2.4h1.3l0,2.4C106.8,140,106.2,141.8,104.9,142.9z"/>
			<path fill="#FFFFFF" d="M107.3,143.8c0.7-0.1,1.1-0.2,1.4-0.6c0.3-0.3,0.4-0.8,0.4-1.5v-6.6h4.1c1.9,0,2.8,1,2.8,3.1v6.2h-1.3
				v-6.2c0-0.7-0.2-1.2-0.5-1.6c-0.3-0.3-0.8-0.5-1.3-0.5h-2.5v5.4c0,1-0.2,1.7-0.7,2.2c-0.5,0.5-1.2,0.8-2.2,0.9L107.3,143.8z"/>
			<path fill="#FFFFFF" d="M124.7,143.5v1h-2.5h-4.8v-1h4.8v-5.2c0-0.7-0.2-1.2-0.5-1.6c-0.3-0.3-0.8-0.5-1.3-0.5h-3v-1h3.3
				c1.9,0,2.8,1,2.8,3.1v5.2H124.7z"/>
		</g>
	</g>
	<g>
		<path fill="#FFFFFF" d="M96.5,89.5h-7v14.3h-8V89.5H57.6v-5.7l22-33.8h9.9v32.8h7V89.5z M81.5,82.9V69.2c0-2.3,0.1-5.9,0.4-10.8
			h-0.3c-0.2,0.4-1.2,2.1-2.8,5.1c-0.2,0.3-0.5,0.7-0.7,1.2c-0.3,0.5-0.5,1-0.9,1.6l-11,16.5H81.5z"/>
		<path fill="#FFFFFF" d="M125.7,51.9c2.9,1.9,5.2,4.9,6.8,8.8c1.7,3.9,2.5,8.7,2.5,14.4c0,6.8-0.9,12.4-2.8,16.8
			c-1.9,4.4-4.4,7.7-7.6,9.8c-3.2,2.1-6.6,3.1-10.5,3.1c-5.5,0-10-2-13.8-5.9l4.6-5.2c1.1,1.2,2.4,2.2,3.9,3
			c1.5,0.8,3.1,1.1,4.8,1.1c3.9,0,7-1.7,9.5-5c2.4-3.3,3.7-8.7,3.9-16.2c-1.6,2-3.5,3.6-5.7,4.8c-2.2,1.2-4.3,1.7-6.4,1.7
			c-4.8,0-8.6-1.4-11.4-4.3c-2.8-2.8-4.2-7-4.2-12.4c0-3.4,0.7-6.5,2.2-9.1c1.5-2.6,3.5-4.7,6-6.2c2.5-1.5,5.2-2.2,8.2-2.2
			C119.6,49,122.8,50,125.7,51.9z M121.9,75.2c1.8-1.1,3.5-2.8,5-5c-0.5-4.8-1.6-8.5-3.5-10.9s-4.3-3.7-7.3-3.7c-2.5,0-4.5,1-6.2,3
			c-1.6,2-2.4,4.6-2.4,7.9s0.8,5.9,2.4,7.7c1.6,1.8,3.8,2.7,6.8,2.7C118.3,76.9,120.1,76.3,121.9,75.2z"/>
	</g>
	<g>
		<path fill="#FFFFFF" d="M30,84.6h10.2c3.8,0,5.8,2.4,5.8,7.1v5.4h-3v-5.6c0-1.3-0.2-2.3-0.7-3c-0.4-0.6-1.2-1-2.2-1h-6.3v17.3H30
			V84.6z M36.8,91.8h3v9.8c2.8,0,5-0.5,6.5-1.3c1.5-0.9,2.5-2.1,3-3.7c0.5-1.6,0.8-3.7,0.8-6.3L50,84.6h3.9l0,5.7
			c0,3.6-0.5,6.4-1.6,8.5c-1.1,2.1-2.9,3.7-5.4,4.6c-2.5,1-5.8,1.4-10,1.4V91.8z"/>
	</g>
</g>
</svg>
