<?xml version="1.0" encoding="utf-8"?>
<!-- Generator: Adobe Illustrator 18.1.0, SVG Export Plug-In . SVG Version: 6.00 Build 0)  -->
<svg version="1.1" id="Layer_1" xmlns="http://www.w3.org/2000/svg" xmlns:xlink="http://www.w3.org/1999/xlink" x="0px" y="0px"
	 width="70px" height="65px" viewBox="0 0 70 65" enable-background="new 0 0 70 65" xml:space="preserve">
<g>
	<path fill="#0B2B42" d="M35.1,45.5c-0.5,0-0.9-0.4-0.9-0.9s0.4-0.9,0.9-0.9c0.5,0,0.9,0.4,0.9,0.9S35.6,45.5,35.1,45.5L35.1,45.5z"
		/>
	<path fill="#0B2B42" d="M6.4,40c-0.2,0-0.5-0.1-0.6-0.3c-0.2-0.2-0.3-0.4-0.3-0.6c0-0.2,0.1-0.5,0.3-0.6c0.2-0.2,0.4-0.3,0.6-0.3
		c0.2,0,0.5,0.1,0.6,0.3c0.2,0.2,0.3,0.4,0.3,0.6c0,0.2-0.1,0.5-0.3,0.6C6.9,39.9,6.7,40,6.4,40z"/>
	<path fill="#0B2B42" d="M21.2,64.6c-0.5,0-0.9-0.4-0.9-0.9v-1.1c0-2.9,2.4-5.3,5.3-5.3H28v-6.3H6.5c-3.5,0-6.4-2.9-6.4-6.4v-39
		c0-2.9,2.4-5.3,5.3-5.3h59.2c2.9,0,5.3,2.4,5.3,5.3v39c0,3.5-2.9,6.4-6.4,6.4H42v6.3h2.4c2.9,0,5.3,2.4,5.3,5.3v1.1
		c0,0.5-0.4,0.9-0.9,0.9H21.2z M25.6,59.1c-1.8,0-3.4,1.4-3.5,3.2l0,0.6h26l0-0.6c-0.2-1.8-1.7-3.2-3.5-3.2H25.6z M29.8,57.4h10.4
		v-6.3H29.8V57.4z M5.4,2.1c-2,0-3.5,1.6-3.5,3.5v39c0,2.6,2.1,4.7,4.7,4.7h57c2.6,0,4.7-2.1,4.7-4.7V40H11.8
		c-0.5,0-0.9-0.4-0.9-0.9c0-0.5,0.4-0.9,0.9-0.9h56.4V5.7c0-2-1.6-3.5-3.5-3.5H5.4z"/>
	<path fill="#0B2B42" d="M12.6,31.7c-1.8,0-3.3-1.5-3.3-3.3v-5.7l-1.5-1.5c-0.3-0.3-0.3-0.9,0-1.2l1.5-1.5v-5.7
		c0-1.8,1.5-3.3,3.3-3.3c0.5,0,0.9,0.4,0.9,0.9c0,0.5-0.4,0.9-0.9,0.9c-0.9,0-1.6,0.7-1.6,1.6v6.1c0,0.2-0.1,0.5-0.3,0.6l-1.1,1.1
		l1.1,1.1c0.2,0.2,0.3,0.4,0.3,0.6v6.1c0,0.9,0.7,1.6,1.6,1.6c0.5,0,0.9,0.4,0.9,0.9C13.5,31.3,13.1,31.7,12.6,31.7L12.6,31.7z"/>
	<path fill="#0B2B42" d="M57.4,31.7c-0.5,0-0.9-0.4-0.9-0.9c0-0.5,0.4-0.9,0.9-0.9c0.9,0,1.6-0.7,1.6-1.6v-6.1
		c0-0.2,0.1-0.5,0.3-0.6l1.1-1.1l-1.1-1.1C59,19.3,59,19.1,59,18.9v-6.1c0-0.9-0.7-1.6-1.6-1.6c-0.5,0-0.9-0.4-0.9-0.9
		c0-0.5,0.4-0.9,0.9-0.9c1.8,0,3.3,1.5,3.3,3.3v5.7l1.5,1.5c0.3,0.3,0.3,0.9,0,1.2l-1.5,1.5v5.7C60.7,30.2,59.2,31.7,57.4,31.7z"/>
	<path fill="#0B2B42" d="M19.1,18.4c-0.5,0-0.9-0.4-0.9-0.9c0-0.5,0.4-0.9,0.9-0.9h20.5c0.5,0,0.9,0.4,0.9,0.9
		c0,0.5-0.4,0.9-0.9,0.9H19.1z"/>
	<path fill="#0B2B42" d="M45.6,18.4c-0.5,0-0.9-0.4-0.9-0.9c0-0.5,0.4-0.9,0.9-0.9h5.9c0.5,0,0.9,0.4,0.9,0.9c0,0.5-0.4,0.9-0.9,0.9
		H45.6z"/>
	<path fill="#0B2B42" d="M47.4,31.7c-0.5,0-0.9-0.4-0.9-0.9c0-0.5,0.4-0.9,0.9-0.9h4c0.5,0,0.9,0.4,0.9,0.9c0,0.5-0.4,0.9-0.9,0.9
		H47.4z"/>
	<path fill="#0B2B42" d="M19.1,31.7c-0.5,0-0.9-0.4-0.9-0.9c0-0.5,0.4-0.9,0.9-0.9h22.8c0.5,0,0.9,0.4,0.9,0.9
		c0,0.5-0.4,0.9-0.9,0.9H19.1z"/>
	<path fill="#0B2B42" d="M19.1,25.1c-0.5,0-0.9-0.4-0.9-0.9s0.4-0.9,0.9-0.9h6.1c0.5,0,0.9,0.4,0.9,0.9s-0.4,0.9-0.9,0.9H19.1z"/>
	<path fill="#0B2B42" d="M51.5,25.1c-0.2,0-0.5-0.1-0.6-0.3c-0.2-0.2-0.3-0.4-0.3-0.6c0-0.2,0.1-0.5,0.3-0.6
		c0.2-0.2,0.4-0.3,0.6-0.3c0.2,0,0.5,0.1,0.6,0.3c0.2,0.2,0.3,0.4,0.3,0.6c0,0.2-0.1,0.5-0.3,0.6C51.9,25,51.7,25.1,51.5,25.1z"/>
	<path fill="#0B2B42" d="M31.3,25.1c-0.5,0-0.9-0.4-0.9-0.9s0.4-0.9,0.9-0.9h15.5c0.5,0,0.9,0.4,0.9,0.9s-0.4,0.9-0.9,0.9H31.3z"/>
	<path fill="#0B2B42" d="M19.1,11.8c-0.5,0-0.9-0.4-0.9-0.9c0-0.5,0.4-0.9,0.9-0.9h12.2c0.5,0,0.9,0.4,0.9,0.9
		c0,0.5-0.4,0.9-0.9,0.9H19.1z"/>
	<path fill="#0B2B42" d="M38.7,11.8c-0.5,0-0.9-0.4-0.9-0.9c0-0.5,0.4-0.9,0.9-0.9h12.7c0.5,0,0.9,0.4,0.9,0.9
		c0,0.5-0.4,0.9-0.9,0.9H38.7z"/>
</g>
</svg>
