<?xml version="1.0" encoding="utf-8"?>
<!-- Generator: Adobe Illustrator 18.1.0, SVG Export Plug-In . SVG Version: 6.00 Build 0)  -->
<svg version="1.1" id="Layer_1" xmlns="http://www.w3.org/2000/svg" xmlns:xlink="http://www.w3.org/1999/xlink" x="0px" y="0px"
	 width="70px" height="65px" viewBox="0 0 70 65" enable-background="new 0 0 70 65" xml:space="preserve">
<g>
	<path fill="#0B2B42" d="M35.1,45.5c-0.5,0-0.9-0.4-0.9-0.9c0-0.5,0.4-0.9,0.9-0.9c0.5,0,0.9,0.4,0.9,0.9
		C36,45.2,35.6,45.5,35.1,45.5L35.1,45.5z"/>
	<path fill="#0B2B42" d="M12.9,17.3c-0.5,0-0.9-0.4-0.9-0.9s0.4-0.9,0.9-0.9h19.3c0.5,0,0.9,0.4,0.9,0.9s-0.4,0.9-0.9,0.9H12.9z"/>
	<path fill="#0B2B42" d="M38.9,17.3c-0.5,0-0.9-0.4-0.9-0.9s0.4-0.9,0.9-0.9h18.3c0.5,0,0.9,0.4,0.9,0.9s-0.4,0.9-0.9,0.9H38.9z"/>
	<path fill="#0B2B42" d="M12.9,10.7c-0.5,0-0.9-0.4-0.9-0.9s0.4-0.9,0.9-0.9h31.6c0.5,0,0.9,0.4,0.9,0.9s-0.4,0.9-0.9,0.9H12.9z"/>
	<path fill="#0B2B42" d="M51.6,10.7c-0.5,0-0.9-0.4-0.9-0.9s0.4-0.9,0.9-0.9h5.5c0.5,0,0.9,0.4,0.9,0.9s-0.4,0.9-0.9,0.9H51.6z"/>
	<path fill="#0B2B42" d="M31.3,30.6c-0.5,0-0.9-0.4-0.9-0.9s0.4-0.9,0.9-0.9h5.5c0.5,0,0.9,0.4,0.9,0.9s-0.4,0.9-0.9,0.9H31.3z"/>
	<path fill="#0B2B42" d="M12.9,30.6c-0.5,0-0.9-0.4-0.9-0.9s0.4-0.9,0.9-0.9h10.7c0.5,0,0.9,0.4,0.9,0.9s-0.4,0.9-0.9,0.9H12.9z"/>
	<path fill="#0B2B42" d="M12.9,24c-0.5,0-0.9-0.4-0.9-0.9c0-0.5,0.4-0.9,0.9-0.9h11.3c0.5,0,0.9,0.4,0.9,0.9c0,0.5-0.4,0.9-0.9,0.9
		H12.9z"/>
	<path fill="#0B2B42" d="M29.5,24c-0.2,0-0.5-0.1-0.6-0.3c-0.2-0.2-0.3-0.4-0.3-0.6c0-0.2,0.1-0.5,0.3-0.6c0.2-0.2,0.4-0.3,0.6-0.3
		c0.2,0,0.5,0.1,0.6,0.3c0.2,0.2,0.3,0.4,0.3,0.6c0,0.2-0.1,0.5-0.3,0.6C29.9,23.9,29.7,24,29.5,24z"/>
	<path fill="#0B2B42" d="M64.6,0.4H5.4c-2.9,0-5.3,2.4-5.3,5.3v39c0,3.5,2.9,6.4,6.4,6.4H28v6.3h-2.4c-2.9,0-5.3,2.4-5.3,5.3v1.1
		c0,0.5,0.4,0.9,0.9,0.9h23.9c0,0,0.1,0,0.1,0l0,0l0,0c0.4,0,19.5,0,19.7,0c2.7,0,5-2.2,5-5v-54C69.9,2.7,67.5,0.4,64.6,0.4z
		 M6.5,49.3c-2.6,0-4.7-2.1-4.7-4.7V40h38.6v9.3H6.5z M40.5,51.1v6.3H29.8v-6.3H40.5z M22,62.9l0-0.6c0.2-1.8,1.7-3.2,3.5-3.2h14.9
		v0.6c0,0.9,0.2,1.7,0.6,2.4l0.4,0.8H22z M68.2,28.9v1.8v24.8v1.8v2.5c0,1.8-1.4,3.2-3.2,3.2H45.4c-1.8,0-3.2-1.4-3.2-3.2v-2v-0.5
		v-1.8V30.6v-1.8v-3.1c0-1.8,1.4-3.2,3.2-3.2h19.5c1.8,0,3.2,1.4,3.2,3.2V28.9z M68.2,21.9l-0.8-0.4c-0.7-0.4-1.6-0.6-2.4-0.6H45.4
		c-1.2,0-2.4,0.4-3.3,1.3L42,22.2h-7.6c-0.5,0-0.9,0.4-0.9,0.9c0,0.5,0.4,0.9,0.9,0.9h6.4l-0.2,0.6c-0.1,0.4-0.1,0.8-0.1,1.2v12.5
		H1.8V5.7c0-2,1.6-3.5,3.5-3.5h59.2c2,0,3.5,1.6,3.5,3.5V21.9z"/>
	<g>
		<path fill="#0B2B42" d="M46.7,30.3c-0.5,0-0.9-0.4-0.9-0.9s0.4-0.9,0.9-0.9h5.5c0.5,0,0.9,0.4,0.9,0.9s-0.4,0.9-0.9,0.9H46.7z"/>
		<path fill="#0B2B42" d="M58,30.3c-0.5,0-0.9-0.4-0.9-0.9s0.4-0.9,0.9-0.9h5.5c0.5,0,0.9,0.4,0.9,0.9s-0.4,0.9-0.9,0.9H58z"/>
	</g>
	<g>
		<path fill="#0B2B42" d="M46.7,35.7c-0.5,0-0.9-0.4-0.9-0.9c0-0.5,0.4-0.9,0.9-0.9h5.5c0.5,0,0.9,0.4,0.9,0.9
			c0,0.5-0.4,0.9-0.9,0.9H46.7z"/>
		<path fill="#0B2B42" d="M58,35.7c-0.5,0-0.9-0.4-0.9-0.9c0-0.5,0.4-0.9,0.9-0.9h5.5c0.5,0,0.9,0.4,0.9,0.9c0,0.5-0.4,0.9-0.9,0.9
			H58z"/>
	</g>
	<g>
		<path fill="#0B2B42" d="M46.7,41c-0.5,0-0.9-0.4-0.9-0.9c0-0.5,0.4-0.9,0.9-0.9h5.5c0.5,0,0.9,0.4,0.9,0.9c0,0.5-0.4,0.9-0.9,0.9
			H46.7z"/>
		<path fill="#0B2B42" d="M58,41c-0.5,0-0.9-0.4-0.9-0.9c0-0.5,0.4-0.9,0.9-0.9h5.5c0.5,0,0.9,0.4,0.9,0.9c0,0.5-0.4,0.9-0.9,0.9H58
			z"/>
	</g>
	<g>
		<path fill="#0B2B42" d="M46.7,46.4c-0.5,0-0.9-0.4-0.9-0.9c0-0.5,0.4-0.9,0.9-0.9h5.5c0.5,0,0.9,0.4,0.9,0.9
			c0,0.5-0.4,0.9-0.9,0.9H46.7z"/>
		<path fill="#0B2B42" d="M58,46.4c-0.5,0-0.9-0.4-0.9-0.9c0-0.5,0.4-0.9,0.9-0.9h5.5c0.5,0,0.9,0.4,0.9,0.9c0,0.5-0.4,0.9-0.9,0.9
			H58z"/>
	</g>
	<g>
		<path fill="#0B2B42" d="M46.7,51.8c-0.5,0-0.9-0.4-0.9-0.9c0-0.5,0.4-0.9,0.9-0.9h5.5c0.5,0,0.9,0.4,0.9,0.9
			c0,0.5-0.4,0.9-0.9,0.9H46.7z"/>
		<path fill="#0B2B42" d="M58,51.8c-0.5,0-0.9-0.4-0.9-0.9c0-0.5,0.4-0.9,0.9-0.9h5.5c0.5,0,0.9,0.4,0.9,0.9c0,0.5-0.4,0.9-0.9,0.9
			H58z"/>
	</g>
	<g>
		<path fill="#0B2B42" d="M46.7,57.2c-0.5,0-0.9-0.4-0.9-0.9c0-0.5,0.4-0.9,0.9-0.9h5.5c0.5,0,0.9,0.4,0.9,0.9
			c0,0.5-0.4,0.9-0.9,0.9H46.7z"/>
		<path fill="#0B2B42" d="M58,57.2c-0.5,0-0.9-0.4-0.9-0.9c0-0.5,0.4-0.9,0.9-0.9h5.5c0.5,0,0.9,0.4,0.9,0.9c0,0.5-0.4,0.9-0.9,0.9
			H58z"/>
	</g>
</g>
</svg>
