<?xml version="1.0" encoding="utf-8"?>
<!-- Generator: Adobe Illustrator 18.1.0, SVG Export Plug-In . SVG Version: 6.00 Build 0)  -->
<svg version="1.1" id="Layer_1" xmlns="http://www.w3.org/2000/svg" xmlns:xlink="http://www.w3.org/1999/xlink" x="0px" y="0px"
	 width="70px" height="65px" viewBox="0 0 70 65" enable-background="new 0 0 70 65" xml:space="preserve">
<g>
	<path fill="#0B2B42" d="M13.2,54.4c-0.5,0-0.9-0.4-0.9-0.9s0.4-0.9,0.9-0.9h26.9c0.2,0,0.5,0.1,0.6,0.3c0.2,0.2,0.3,0.4,0.3,0.6
		c0,0.5-0.4,0.9-0.9,0.9H13.2z"/>
	<path fill="#0B2B42" d="M26.8,47.7c-0.5,0-0.9-0.4-0.9-0.9c0-0.5,0.4-0.9,0.9-0.9h8.1c0.5,0,0.9,0.4,0.9,0.9c0,0.5-0.4,0.9-0.9,0.9
		H26.8z"/>
	<path fill="#0B2B42" d="M8.4,47.7c-0.5,0-0.9-0.4-0.9-0.9c0-0.5,0.4-0.9,0.9-0.9h12.2c0.5,0,0.9,0.4,0.9,0.9c0,0.5-0.4,0.9-0.9,0.9
		H8.4z"/>
	<path fill="#0B2B42" d="M69.6,57.8L58.4,46.6l2-2l0,0l0,0l2-2l5.7,5.7c0.2,0.2,0.4,0.3,0.6,0.3c0.2,0,0.5-0.1,0.6-0.3
		c0.3-0.3,0.3-0.9,0-1.2l-6.3-6.3c-0.2-0.2-0.4-0.3-0.6-0.3c-0.2,0-0.5,0.1-0.6,0.3l-2.1,2.1l-1.5-1.5l0.3-0.4
		c2.4-2.8,3.7-6.4,3.7-10.1c0-8.6-7-15.7-15.7-15.7c-4.3,0-8.3,1.7-11.3,4.9L35.2,20L35,20c0,0,0,0,0,0H8.4c-0.5,0-0.9,0.4-0.9,0.9
		v19.3c0,0.5,0.4,0.9,0.9,0.9H35l0.2,0.2c3,3.2,7.2,5.1,11.5,5.1c3.7,0,7.3-1.3,10.1-3.7l0.4-0.3l1.5,1.5l-2.1,2.1
		c-0.2,0.2-0.3,0.4-0.3,0.6c0,0.2,0.1,0.5,0.3,0.6l5.9,5.9v6.2c0,2-1.6,3.5-3.5,3.5H5.4c-2,0-3.5-1.6-3.5-3.5V12.1h0.5c0,0,0,0,0,0
		h60.1v6.7c0,0.5,0.4,0.9,0.9,0.9s0.9-0.4,0.9-0.9V5.7c0-2.9-2.4-5.3-5.3-5.3H5.4c-2.9,0-5.3,2.4-5.3,5.3v53.6
		c0,2.9,2.4,5.3,5.3,5.3H59c2.9,0,5.3-2.4,5.3-5.3v-4.4l4.2,4.2c0.2,0.2,0.4,0.3,0.6,0.3s0.5-0.1,0.6-0.3C70,58.7,70,58.1,69.6,57.8
		z M9.3,39.4V21.8h24.5l-0.5,0.8C31.8,25,31,27.8,31,30.7c0,0.1,0,0.3,0,0.4c0,0-0.1,2.1,0.6,4.1c0.8,2,0.6,1.7,0.6,1.6
		c0.3,0.6,0.6,1.2,0.9,1.8l0.4,0.8H9.3z M46.7,44.6c-7.7,0-13.9-6.2-13.9-13.9c0-0.1,0-0.2,0-0.3c0-1.2,0.3-2.8,0.3-2.8l0.2-0.7
		c1.7-5.9,7.2-10.1,13.4-10.1c7.7,0,13.9,6.2,13.9,13.9S54.4,44.6,46.7,44.6z M1.8,5.7c0-2,1.6-3.5,3.5-3.5H59c2,0,3.5,1.6,3.5,3.5
		v4.6H2.4l-0.5,0V5.7z"/>
	<g>
		<path fill="#0B2B42" d="M46.4,35.8v-6c0-2.5-1-3.7-2.9-3.7c-0.6,0-1.1,0.1-1.6,0.4c-0.5,0.3-1,0.7-1.5,1.1h-0.1l-0.2-1.3h-1.6v9.5
			h2v-6.7c0.5-0.5,0.9-0.8,1.2-1c0.3-0.2,0.7-0.3,1.1-0.3c0.6,0,1,0.2,1.2,0.5c0.3,0.4,0.4,0.9,0.4,1.8v5.7H46.4z"/>
		<path fill="#0B2B42" d="M56.8,30.6c0-1.4-0.3-2.5-1-3.3c-0.7-0.8-1.6-1.2-2.8-1.2c-0.7,0-1.5,0.2-2.1,0.6c-0.7,0.4-1.2,1-1.6,1.7
			c-0.4,0.8-0.6,1.6-0.6,2.6c0,1,0.2,1.9,0.6,2.6c0.4,0.7,1,1.3,1.7,1.7c0.7,0.4,1.5,0.6,2.3,0.6c1.1,0,2.2-0.3,3.2-1l-0.7-1.2
			c-0.7,0.5-1.5,0.7-2.3,0.7c-0.8,0-1.5-0.2-2-0.7c-0.6-0.5-0.9-1.2-1-2.2h6.3C56.8,31.3,56.8,31,56.8,30.6z M50.5,30.2
			c0.1-0.9,0.4-1.5,0.9-1.9c0.5-0.4,1-0.7,1.6-0.7c0.7,0,1.2,0.2,1.6,0.7c0.4,0.5,0.5,1.1,0.5,1.9H50.5z"/>
		<path fill="#0B2B42" d="M35.6,33.7c0.4-0.7,0.6-1.6,0.6-2.6c0-1-0.2-1.9-0.6-2.7c-0.4-0.7-0.9-1.3-1.6-1.7c-0.5-0.3-1-0.5-1.5-0.5
			c-0.1,0.5-0.2,1-0.2,1.6c0.5,0.1,0.9,0.4,1.2,0.9c0.4,0.6,0.7,1.4,0.7,2.4c0,1-0.2,1.8-0.7,2.4c-0.2,0.2-0.4,0.4-0.6,0.6
			c0.2,0.5,0.3,1.1,0.5,1.6c0.2-0.1,0.3-0.1,0.4-0.2C34.7,35,35.2,34.5,35.6,33.7z"/>
		<path fill="#0B2B42" d="M12.7,26.1v9.8h1.5v-3.7h1.5c1.1,0,2-0.3,2.7-0.8s1-1.3,1-2.3c0-2-1.2-3-3.7-3H12.7z M17.9,29
			c0,0.6-0.2,1.1-0.6,1.4c-0.4,0.3-1,0.5-1.7,0.5h-1.3v-3.6h1.3c0.8,0,1.4,0.1,1.8,0.4C17.7,28,17.9,28.4,17.9,29z"/>
		<path fill="#0B2B42" d="M29.4,30.2c-0.3,0.6-0.5,1.3-0.5,2c0,0.8,0.2,1.5,0.5,2c0.3,0.6,0.7,1,1.3,1.3c0.4,0.2,0.9,0.4,1.3,0.4
			c-0.1-0.2-0.2-0.5-0.3-0.8c-0.1-0.2-0.2-0.4-0.2-0.6c-0.2-0.1-0.3-0.3-0.5-0.4c-0.3-0.5-0.5-1.1-0.5-1.9c0-0.8,0.2-1.4,0.5-1.9
			c0,0,0,0,0,0c0-0.6,0.1-1.1,0.1-1.7c-0.2,0.1-0.3,0.1-0.5,0.2C30.1,29.2,29.7,29.6,29.4,30.2z"/>
		<path fill="#0B2B42" d="M27.3,35.9v-4.6c0-1.9-0.7-2.9-2.2-2.9c-0.5,0-0.9,0.1-1.2,0.3c-0.4,0.2-0.7,0.5-1.1,0.8l0.1-1.4v-2.8
			h-1.5v10.6h1.5v-5.2c0.4-0.4,0.7-0.6,0.9-0.8c0.3-0.2,0.6-0.2,0.9-0.2c0.4,0,0.8,0.1,0.9,0.4c0.2,0.3,0.3,0.7,0.3,1.4v4.4H27.3z"
			/>
	</g>
</g>
</svg>
