<?xml version="1.0" encoding="utf-8"?>
<!-- Generator: Adobe Illustrator 18.1.0, SVG Export Plug-In . SVG Version: 6.00 Build 0)  -->
<svg version="1.1" id="Layer_1" xmlns="http://www.w3.org/2000/svg" xmlns:xlink="http://www.w3.org/1999/xlink" x="0px" y="0px"
	 width="271px" height="43px" viewBox="0 0 271 43" enable-background="new 0 0 271 43" xml:space="preserve">
<g>
	<g>
		<path fill="#FFFFFF" d="M42.3,3.2c0-0.7,0.3-1.3,0.8-1.9c0.5-0.5,1.1-0.8,1.8-0.8c0.7,0,1.3,0.3,1.8,0.8c0.5,0.5,0.8,1.1,0.8,1.9
			c0,0.7-0.3,1.3-0.8,1.8c-0.5,0.5-1.1,0.8-1.8,0.8c-0.7,0-1.3-0.3-1.8-0.8C42.6,4.5,42.3,3.9,42.3,3.2z M42.9,33.2v-25h4v25H42.9z"
			/>
		<path fill="#FFFFFF" d="M57.4,24.1l-3.4,9.1h-5L63,0.8h4.4L81,33.2h-4.9l-3.6-9.1H57.4z M59.2,20.1h11.7L65,6.7L59.2,20.1z"/>
		<path fill="#FFFFFF" d="M97.7,26.9c-1.9,2.2-3.9,3.3-6.1,3.3c-2.1,0-3.7-0.7-5-2c-1.3-1.3-1.9-3.3-2-5.9c0-3.1,0.7-5.3,2.3-6.6
			c1.5-1.3,3.3-1.9,5.2-1.8c2.1,0.2,4,1,5.9,2.6l0.2-0.3c0.5-1,1.2-1.9,1.9-2.6c0,0,0,0,0.1-0.1c-2.5-2.1-5.3-3.2-8.2-3.2
			c-1.7,0-3.4,0.2-4.9,0.8c-1.5,0.6-2.9,1.4-3.9,2.5c-1.1,1.1-1.9,2.3-2.4,3.8c-0.5,1.5-0.8,3.1-0.8,4.9c0.1,3.2,1,5.9,2.9,8.1
			c1.9,2.2,4.7,3.3,8.5,3.3c3.4,0,6.2-1.1,8.4-3.4C98.8,29.3,98.2,28.2,97.7,26.9z"/>
		<path fill="#FFFFFF" d="M118.3,26.9c-1.9,2.2-3.9,3.3-6.1,3.3c-2.1,0-3.7-0.7-5-2c-1.3-1.3-1.9-3.3-2-5.9c0-3.1,0.7-5.3,2.3-6.6
			c1.5-1.3,3.3-1.9,5.2-1.8c2.1,0.2,4,1,5.9,2.6l0.2-0.3c0.5-1,1.2-1.9,1.9-2.6c0,0,0,0,0.1-0.1c-2.5-2.1-5.3-3.2-8.2-3.2
			c-1.7,0-3.4,0.2-4.9,0.8c-1.5,0.6-2.9,1.4-3.9,2.5c-1.1,1.1-1.9,2.3-2.4,3.8c-0.5,1.5-0.8,3.1-0.8,4.9c0.1,3.2,1,5.9,2.9,8.1
			c1.9,2.2,4.7,3.3,8.5,3.3c3.4,0,6.2-1.1,8.4-3.4C119.4,29.3,118.8,28.2,118.3,26.9z"/>
		<path fill="#FFFFFF" d="M144.6,25.2c1,1.5,2.1,2.7,3.2,3.5c1.1,0.8,2.5,1.2,4.1,1.3c1.5,0,2.6-0.3,3.4-0.8
			c0.7-0.6,1.1-1.4,1.1-2.3c0-1-0.4-1.8-1.3-2.3c-0.4-0.3-1.3-0.6-2.7-1.1c-2.6-0.7-4.5-1.3-5.7-1.9c-1.2-0.5-2.1-1.2-2.7-2
			c-0.6-0.8-0.9-1.9-0.8-3.2c0.1-2,0.9-3.6,2.4-4.6c1.5-1,3.4-1.5,5.6-1.5c1.5,0,3.1,0.3,4.6,0.8s2.7,1.3,3.6,2.3l-2.1,3.1
			c-2.4-1.7-4.7-2.5-6.9-2.6c-1.9,0-2.9,0.7-3.1,2.1c-0.1,0.9,0.2,1.6,0.8,1.9c0.7,0.3,2,0.8,4.1,1.4c0.5,0.2,1.1,0.3,1.6,0.5
			c0.5,0.2,1.1,0.3,1.7,0.6c1.6,0.6,2.9,1.4,3.8,2.3c0.9,0.9,1.3,2.2,1.3,3.7c0,1.2-0.3,2.4-0.9,3.4c-0.6,1.1-1.5,1.9-2.9,2.6
			c-1.3,0.7-2.9,1-4.6,1c-2.6,0-4.8-0.6-6.6-1.8c-1.8-1.2-3.2-2.7-4-4.6L144.6,25.2z"/>
		<path fill="#FFFFFF" d="M138.1,27.4c-1.1,0.9-2,1.6-2.8,2c-0.9,0.5-2,0.7-3.4,0.7c-2.2,0-3.8-0.8-5-2.2c-1.1-1.4-1.7-3.1-1.6-5
			h15.9c0.1-2-0.2-3.9-0.8-5.8c-0.6-1.9-1.7-3.5-3.2-4.7c-1.5-1.3-3.5-1.9-5.9-1.9c-3.1,0-5.6,1.1-7.6,3.3c-2,2.2-2.9,5-2.9,8.5
			c0.1,3.4,1.1,6.2,3.2,8.3c2,2.1,4.7,3.2,8,3.2c3.2,0,6-1.1,8.3-3.4C139.3,29.5,138.6,28.5,138.1,27.4z M127,15.5
			c1-1.1,2.3-1.6,4.1-1.6c1.7,0,3,0.6,4,1.7c1,1.1,1.5,2.4,1.5,3.9h-11.1C125.5,17.8,126.1,16.5,127,15.5z"/>
		<path fill="#FFFFFF" d="M165.1,25.2c1,1.5,2.1,2.7,3.2,3.5c1.1,0.8,2.5,1.2,4.1,1.3c1.5,0,2.6-0.3,3.4-0.8
			c0.7-0.6,1.1-1.4,1.1-2.3c0-1-0.4-1.8-1.3-2.3c-0.4-0.3-1.3-0.6-2.7-1.1c-2.6-0.7-4.5-1.3-5.7-1.9c-1.2-0.5-2.1-1.2-2.7-2
			c-0.6-0.8-0.9-1.9-0.8-3.2c0.1-2,0.9-3.6,2.4-4.6c1.5-1,3.4-1.5,5.6-1.5c1.5,0,3.1,0.3,4.6,0.8c1.5,0.6,2.7,1.3,3.6,2.3l-2.1,3.1
			c-2.4-1.7-4.7-2.5-6.9-2.6c-1.9,0-2.9,0.7-3.1,2.1c-0.1,0.9,0.2,1.6,0.8,1.9c0.7,0.3,2,0.8,4.1,1.4c0.5,0.2,1.1,0.3,1.6,0.5
			c0.5,0.2,1.1,0.3,1.7,0.6c1.6,0.6,2.9,1.4,3.8,2.3c0.9,0.9,1.3,2.2,1.3,3.7c0,1.2-0.3,2.4-0.9,3.4c-0.6,1.1-1.5,1.9-2.9,2.6
			c-1.3,0.7-2.9,1-4.6,1c-2.6,0-4.8-0.6-6.6-1.8c-1.8-1.2-3.2-2.7-4-4.6L165.1,25.2z"/>
		<path fill="#FFFFFF" d="M183.8,33.2V10.9h4v22.2H183.8z"/>
		<path fill="#FFFFFF" d="M195.2,13.5c1.6-2,4-3,7.1-3.1c2.3,0,4.2,0.5,5.8,1.7c1.5,1.1,2.7,2.6,3.4,4.5c0.7,1.8,1,3.7,1,5.8
			c0,3.8-1,6.7-3,8.7c-2,2-4.5,2.9-7.4,2.7c-1.9-0.1-3.4-0.6-4.5-1.3c-1.1-0.8-1.8-1.6-2.4-2.4v3.3h-4.1V0.4h4.1V13.5z M195.1,22.2
			c0,2.7,0.7,4.7,2.1,6c1.3,1.2,2.8,1.9,4.5,1.9c1.8-0.1,3.2-0.7,4.4-2c1.2-1.3,1.8-3.2,1.8-5.7c0.1-2.3-0.4-4.2-1.5-5.7
			c-1.1-1.6-2.6-2.4-4.5-2.4c-2.4-0.1-4.1,0.7-5.2,2.3C195.6,18.1,195.1,20,195.1,22.2z"/>
		<path fill="#FFFFFF" d="M214.8,33.2V10.9h4v22.2H214.8z"/>
		<path fill="#FFFFFF" d="M222.5,33.2V0.4h3.9v32.8H222.5z"/>
		<path fill="#FFFFFF" d="M230.5,33.2V10.9h4v22.2H230.5z"/>
		<path fill="#FFFFFF" d="M242.3,0.4v11h5.3v3.4h-5.3v11c0,1.4,0.1,2.5,0.4,3.2c0.3,0.8,0.9,1.1,1.8,1.1c0.4,0,0.9-0.2,1.5-0.5
			l1.2,2.8c-1,0.8-2.1,1.2-3.3,1.2c-2.4,0-3.9-0.7-4.6-2.2c-0.7-1.5-1-3.4-1-5.7v-11h0v-3.4h0v-11H242.3z"/>
		<path fill="#FFFFFF" d="M261.1,27.1l5.1-15.8h4.3l-6.5,19.4c-1,2.6-1.9,4.8-2.9,6.5c-0.9,1.7-2.2,3.1-3.7,4.2
			c-1.5,1.1-3.3,1.5-5.5,1.3v-3.7c2-0.2,3.5-0.8,4.6-1.7c1.1-1,1.9-2.5,2.3-4.6L250,11.3h4.5L261.1,27.1z"/>
	</g>
	<g>
		<path fill="#3C8FCD" d="M0.4,17C0.4,7.9,7.8,0.4,17,0.4h19.8v33.3H16.3l0,0C7.5,33.2,0.4,26,0.4,17z"/>
		<g>
			<g>
				<path fill="#FFFFFF" d="M17.6,31.3c7.9,0,14.3-6.4,14.3-14.3c0-7.9-6.4-14.3-14.3-14.3S3.3,9.1,3.3,17
					C3.3,24.9,9.8,31.3,17.6,31.3z M17.6,4.2c7,0,12.8,5.8,12.8,12.8c0,7-5.8,12.8-12.8,12.8c-7,0-12.8-5.8-12.8-12.8
					C4.7,10,10.5,4.2,17.6,4.2z"/>
			</g>
			<g>
				<circle fill="#FFFFFF" cx="17.6" cy="8.8" r="2.1"/>
				<path fill="#FFFFFF" d="M10.3,16l3.9-3.6c0.3-0.3,1-0.6,1.5-0.6h1.6H18h1.6c0.5,0,1.1,0.3,1.5,0.6L25,16
					c0.3,0.3,0.4,0.9,0.1,1.3c-0.3,0.4-0.7,0.4-1.2,0.1l-3-2.5c-0.4-0.3-0.7-0.4-0.9-0.3c-0.2,0.1-0.2,0.6-0.2,1.1
					c0,0,0.6,6.7,1.1,10.2l0,0l0,0c0,0.1,0,0.2,0,0.3c0,0.4,0,1.2-0.7,1.2h-0.9c-0.5,0-0.9-0.4-0.9-0.7l-0.3-5.2
					c0-0.3-0.2-0.6-0.5-0.7c-0.3,0.1-0.5,0.4-0.5,0.7l-0.3,5.2c0,0.5-0.4,0.7-0.9,0.7h-0.9c-0.7,0-0.7-0.7-0.7-1.2
					c0-0.1,0-0.2,0-0.3l0,0l0,0c0.6-3.5,1.1-10.2,1.1-10.2c0-0.5-0.1-1-0.2-1.1c-0.2-0.1-0.6,0-0.9,0.3l-3,2.5
					c-0.4,0.3-0.9,0.2-1.2-0.1C9.9,16.7,10,16.3,10.3,16z"/>
			</g>
		</g>
	</g>
</g>
</svg>
