<?xml version="1.0" encoding="utf-8"?>
<!-- Generator: Adobe Illustrator 18.1.0, SVG Export Plug-In . SVG Version: 6.00 Build 0)  -->
<svg version="1.1" id="Layer_1" xmlns="http://www.w3.org/2000/svg" xmlns:xlink="http://www.w3.org/1999/xlink" x="0px" y="0px"
	 width="23px" height="23px" viewBox="0 0 23 23" enable-background="new 0 0 23 23" xml:space="preserve">
<g>
	<g>
		<g>
			<path fill="#C5CBCF" d="M13.4,14.9c-0.1,0.1-0.9,0.6-1.9,0.6c-1,0-1.7-0.5-1.9-0.6L1.3,9.6v9.4c0,1.4,1.1,2.6,2.6,2.6h15.3
				c1.4,0,2.6-1.1,2.6-2.6V9.6L13.4,14.9z"/>
		</g>
		<path fill="#C5CBCF" d="M20.6,6.9l-8-5.2c-0.6-0.4-1.6-0.4-2.2,0l-8,5.2c-0.6,0.4-0.6,1,0,1.4L5.1,10V7.6h12.8V10l2.7-1.7
			C21.2,7.9,21.2,7.3,20.6,6.9z"/>
		<path fill="#C5CBCF" d="M15.3,10.8c0,0.4-0.3,0.6-0.6,0.6H8.3c-0.4,0-0.6-0.3-0.6-0.6l0,0c0-0.4,0.3-0.6,0.6-0.6h6.4
			C15,10.1,15.3,10.4,15.3,10.8L15.3,10.8z"/>
		<path fill="#C5CBCF" d="M14.1,13.3c0,0.4-0.3,0.6-0.6,0.6H9.6c-0.4,0-0.6-0.3-0.6-0.6l0,0c0-0.4,0.3-0.6,0.6-0.6h3.8
			C13.8,12.7,14.1,13,14.1,13.3L14.1,13.3z"/>
	</g>
</g>
</svg>
