<?xml version="1.0" encoding="utf-8"?>
<!-- Generator: Adobe Illustrator 18.1.0, SVG Export Plug-In . SVG Version: 6.00 Build 0)  -->
<svg version="1.1" id="Layer_1" xmlns="http://www.w3.org/2000/svg" xmlns:xlink="http://www.w3.org/1999/xlink" x="0px" y="0px"
	 width="23px" height="23px" viewBox="0 0 23 23" enable-background="new 0 0 23 23" xml:space="preserve">
<path fill="#C5CBCF" d="M19.5,10.2h-1.3c0-1.9-0.2-5.2-2.1-7.3c-1.2-1.3-2.7-2-4.6-2C9.7,0.9,8.2,1.5,7,2.8
	c-1.9,2.1-2.2,5.5-2.2,7.4H3.5c-0.7,0-1.3,0.6-1.3,1.3v9.3c0,0.7,0.6,1.3,1.3,1.3h15.9c0.7,0,1.3-0.6,1.3-1.3v-9.3
	C20.8,10.8,20.2,10.2,19.5,10.2z M9,4.6c0.6-0.7,1.4-1,2.5-1c1.1,0,2,0.3,2.6,1.1c1.2,1.4,1.5,3.9,1.5,5.6H7.5C7.5,8.5,7.7,6,9,4.6z
	 M9.8,19.5l0.4-2.8c-0.8-0.5-1.4-1.3-1.4-2.3c0-1.5,1.2-2.6,2.7-2.6c1.5,0,2.7,1.1,2.7,2.6c0,1-0.5,1.8-1.4,2.3l0.4,2.8H9.8z"/>
</svg>
