<?xml version="1.0" encoding="utf-8"?>
<!-- Generator: Adobe Illustrator 18.1.0, SVG Export Plug-In . SVG Version: 6.00 Build 0)  -->
<svg version="1.1" id="Layer_1" xmlns="http://www.w3.org/2000/svg" xmlns:xlink="http://www.w3.org/1999/xlink" x="0px" y="0px"
	 width="294px" height="548px" viewBox="0 0 294 548" enable-background="new 0 0 294 548" xml:space="preserve">
<g>
	<g>
		<path fill="#FFFFFF" d="M8,547.2c-4.1,0-7.5-3.4-7.5-7.5V8.3c0-4.1,3.4-7.5,7.5-7.5h278c4.1,0,7.5,3.4,7.5,7.5v531.3
			c0,4.1-3.4,7.5-7.5,7.5H8z"/>
		<path fill="#E6E9EC" d="M286,1.3c3.9,0,7,3.1,7,7v531.3c0,3.9-3.1,7-7,7H8c-3.9,0-7-3.1-7-7V8.3c0-3.9,3.1-7,7-7H286 M286,0.3H8
			c-4.4,0-8,3.6-8,8v531.3c0,4.4,3.6,8,8,8h278c4.4,0,8-3.6,8-8V8.3C294,3.9,290.4,0.3,286,0.3L286,0.3z"/>
	</g>
	<path fill="#2197EA" d="M294,47.7H0V8.3c0-4.4,3.6-8,8-8h278c4.4,0,8,3.6,8,8V47.7z"/>
	<path fill="#CBCFD3" d="M0,506.3h294v33.3c0,4.4-3.6,8-8,8H8c-4.4,0-8-3.6-8-8L0,506.3z"/>
	<g>
		<path fill="#FFFFFF" d="M173.8,29.7c0.5-0.1,0.9-0.2,1.1-0.3c0.3-0.1,0.4-0.3,0.5-0.6c0.1-0.3,0.1-0.6,0.1-1.1V20h6
			c1.1,0,1.9,0.3,2.5,0.9c0.6,0.6,0.9,1.5,0.9,2.8v7.6h-2.9v-7.7c0-1-0.5-1.5-1.4-1.5h-2.3v5.2c0,1-0.2,1.8-0.5,2.4
			c-0.3,0.6-0.8,1-1.4,1.3s-1.5,0.5-2.5,0.6L173.8,29.7z"/>
		<path fill="#FFFFFF" d="M187.2,22.3L187,20h2.9l0.2,2.3v9h-2.9V22.3z"/>
		<path fill="#FFFFFF" d="M201.5,29.4c-1.6,1.4-4.1,2.1-7.4,2.1h-0.6L192,20h2.7l0.6,4.9c0.5-0.3,0.9-0.7,1.1-1.2
			c0.2-0.5,0.3-1.3,0.3-2.4V20h2.7v1.3c0,1.5-0.3,2.6-0.9,3.5c-0.6,0.9-1.5,1.6-2.9,2.1l0.3,2.3c1.9-0.1,3.2-0.7,4.1-1.6
			c0.8-1,1.2-2.3,1.2-4.1l0-3.5h2.9l0,3.3C203.9,26,203.1,28,201.5,29.4z"/>
		<path fill="#FFFFFF" d="M205.8,22.3l-0.2-2.3h2.9l0.2,2.3v3.1l0,1.3l-2.8,0.5V22.3z"/>
		<path fill="#FFFFFF" d="M214.7,31.3l-0.4-2.1c-0.4,0.6-0.8,1.1-1.3,1.5c-0.5,0.4-1.1,0.7-1.8,1l-1.1-2.3c1.9-0.6,3.1-1.5,3.8-2.8
			v-3.2c0-0.5-0.1-0.8-0.2-1c-0.1-0.2-0.4-0.3-0.7-0.4l-1.3-0.2l0.4-2.1l2.3,0.3c0.8,0.1,1.4,0.4,1.8,0.9c0.4,0.5,0.6,1.2,0.6,2.1
			v3.8l0.6,4.4H214.7z"/>
		<path fill="#FFFFFF" d="M219,29.2h2.9v-5.7c0-0.5-0.1-0.8-0.3-1c-0.2-0.2-0.5-0.3-0.8-0.4l-1.4-0.2l0.4-2.1l2.5,0.3
			c0.8,0.1,1.4,0.5,1.9,1c0.4,0.6,0.6,1.3,0.6,2.3v8H219V29.2z"/>
		<path fill="#FFFFFF" d="M230.5,20h2.9l1,9c1.4-0.1,2.4-0.5,2.9-1.2c0.6-0.7,0.9-1.7,0.8-2.9v-0.6c0-0.6-0.2-1.1-0.5-1.5
			c-0.3-0.4-0.8-0.6-1.5-0.7l-1-0.1l0.2-2.2l1.2,0.1c1.2,0.1,2.2,0.4,3,1.1c0.8,0.7,1.2,1.7,1.2,3l0,0.6c0.1,2.3-0.7,4.1-2.3,5.2
			s-3.9,1.7-6.8,1.9L230.5,20z"/>
		<path fill="#FFFFFF" d="M242.7,22.3l-0.2-2.3h2.9l0.2,2.3v3.1l0,1.3l-2.8,0.5V22.3z"/>
		<path fill="#FFFFFF" d="M252.4,23.5c0-1-0.4-1.5-1.3-1.5h-3.9V20h4.6c1.1,0,1.9,0.3,2.5,0.9c0.6,0.6,0.9,1.5,0.9,2.8v7.6h-2.9
			V23.5z"/>
		<path fill="#FFFFFF" d="M257.4,29.2h4c0.8,0,1.4-0.2,1.8-0.7c0.4-0.5,0.6-1.2,0.6-2.1v-1.5c0-0.8-0.2-1.5-0.6-2s-0.9-0.8-1.7-0.8
			h-1.4l-0.4,1.7c0,0.2-0.1,0.3-0.1,0.5c0,0.3,0.1,0.6,0.3,0.8s0.5,0.3,1,0.4l-0.5,1.8c-1.2,0-2-0.3-2.6-0.8c-0.5-0.5-0.8-1.2-0.8-2
			c0-0.3,0-0.6,0.1-0.9l0.8-3.6h4.2c1.4,0,2.5,0.5,3.2,1.4s1.2,2.1,1.2,3.7v1.2c0,1.6-0.4,2.8-1.3,3.7c-0.8,0.9-2,1.4-3.4,1.4h-4.7
			V29.2z"/>
		<path fill="#FFFFFF" d="M267.7,29.7c0.5-0.1,0.9-0.2,1.1-0.3c0.3-0.1,0.4-0.3,0.5-0.6c0.1-0.3,0.1-0.6,0.1-1.1V20h6
			c1.1,0,1.9,0.3,2.5,0.9c0.6,0.6,0.9,1.5,0.9,2.8v7.6h-2.9v-7.7c0-1-0.5-1.5-1.4-1.5h-2.3v5.2c0,1-0.2,1.8-0.5,2.4
			c-0.3,0.6-0.8,1-1.4,1.3s-1.5,0.5-2.5,0.6L267.7,29.7z"/>
	</g>
	<g>
		<path d="M108.6,69.4l-0.3-2.3h1.5l0.3,2.3v12.7h-1.5V69.4z"/>
		<path d="M113,76.9h3.3c1,0,1.9-0.3,2.5-0.9c0.6-0.6,0.9-1.5,0.9-2.8V72c0-1.2-0.2-2.1-0.7-2.7c-0.5-0.6-1.2-0.9-2.1-0.9h-2.1
			l-0.5,2.2c-0.1,0.4-0.1,0.7-0.1,1c0,0.5,0.1,0.8,0.4,1.1c0.2,0.3,0.7,0.4,1.2,0.5l-0.3,1.1c-0.9-0.1-1.6-0.4-2-0.8
			c-0.4-0.4-0.6-1-0.6-1.8c0-0.4,0-0.8,0.1-1.2l0.8-3.3h3.5c1.3,0,2.3,0.4,3,1.3s1.1,2.1,1.1,3.7v1.1c0,1.7-0.4,3-1.3,3.8
			c-0.9,0.8-2,1.2-3.4,1.2H113V76.9z"/>
		<path d="M123.8,69.4l-0.3-2.3h1.5l0.3,2.3v8.7h-1.5V69.4z"/>
		<path d="M131.7,78.1l-0.5-2.7c-0.4,0.7-0.9,1.3-1.4,1.8c-0.6,0.5-1.2,0.9-2,1.2l-0.6-1.2c0.9-0.3,1.6-0.7,2.2-1.3
			c0.6-0.5,1.1-1.2,1.5-2v-3.7c0-0.7-0.1-1.1-0.2-1.4s-0.5-0.5-0.9-0.6l-1.3-0.2l0.2-1.2l1.7,0.3c0.8,0.1,1.3,0.4,1.6,0.9
			s0.5,1.2,0.5,2.1V74l0.7,4.1H131.7z"/>
		<path d="M135.3,72.7l0.2-1.3h1.3v6.7h-1.5V72.7z M142.1,70.7c0-0.9-0.2-1.5-0.6-1.9c-0.4-0.4-0.9-0.6-1.6-0.6h-4.6v-1.2h5
			c2.2,0,3.3,1.2,3.3,3.7v7.3h-1.5V70.7z"/>
		<path d="M157.5,67.1v1.3l-3.8,9.7h-1.5l3.8-9.8h-6.2v-4.4h1.4v3.2H157.5z"/>
		<path d="M164.4,70.6c0-1,0.2-1.8,0.5-2.3h-5.6v-1.2h8.5v1.2h-1.5c-0.3,0.5-0.5,1.3-0.5,2.3v7.5h-1.5V70.6z"/>
		<path d="M170.6,69.4l-0.3-2.3h1.5l0.3,2.3v8.7h-1.5V69.4z"/>
		<path d="M178.5,78.1l-0.5-2.7c-0.4,0.7-0.9,1.3-1.4,1.8c-0.6,0.5-1.2,0.9-2,1.2l-0.6-1.2c0.9-0.3,1.6-0.7,2.2-1.3
			c0.6-0.5,1.1-1.2,1.5-2v-3.7c0-0.7-0.1-1.1-0.2-1.4s-0.5-0.5-0.9-0.6l-1.3-0.2l0.2-1.2l1.7,0.3c0.8,0.1,1.3,0.4,1.6,0.9
			s0.5,1.2,0.5,2.1V74l0.7,4.1H178.5z"/>
		<path d="M185.3,77.3c0.8-0.1,1.3-0.3,1.6-0.7c0.3-0.4,0.4-1,0.4-1.7v-7.8h4.9c2.2,0,3.3,1.2,3.3,3.7v7.3H194v-7.4
			c0-0.9-0.2-1.5-0.6-1.9c-0.4-0.4-0.9-0.6-1.6-0.6h-3v6.5c0,1.2-0.3,2-0.8,2.6s-1.4,0.9-2.6,1L185.3,77.3z"/>
		<path d="M205.4,67.1v1.3l-3.8,9.7H200l3.8-9.8h-6.2v-4.4h1.4v3.2H205.4z"/>
		<path d="M212.4,70.6c0-1,0.2-1.8,0.5-2.3h-5.6v-1.2h8.5v1.2h-1.5c-0.3,0.5-0.5,1.3-0.5,2.3v7.5h-1.5V70.6z"/>
		<path d="M221.8,78.1l-0.5-2.7c-0.4,0.7-0.9,1.3-1.4,1.8c-0.6,0.5-1.2,0.9-2,1.2l-0.6-1.2c0.9-0.3,1.6-0.7,2.2-1.3
			c0.6-0.5,1.1-1.2,1.5-2v-3.7c0-0.7-0.1-1.1-0.2-1.4s-0.5-0.5-0.9-0.6l-1.3-0.2l0.2-1.2l1.7,0.3c0.8,0.1,1.3,0.4,1.6,0.9
			s0.5,1.2,0.5,2.1V74l0.7,4.1H221.8z"/>
		<path d="M225.3,72.7l0.2-1.3h1.3v6.7h-1.5V72.7z M232.2,70.7c0-0.9-0.2-1.5-0.6-1.9c-0.4-0.4-0.9-0.6-1.6-0.6h-4.6v-1.2h5
			c2.2,0,3.3,1.2,3.3,3.7v7.3h-1.5V70.7z"/>
	</g>
	<g>
		<path d="M106.7,120.6l-0.3-2.3h1.5l0.3,2.3v12.7h-1.5V120.6z"/>
		<path d="M111.1,128.1h3.3c1,0,1.9-0.3,2.5-0.9c0.6-0.6,0.9-1.5,0.9-2.8v-1.2c0-1.2-0.2-2.1-0.7-2.7c-0.5-0.6-1.2-0.9-2.1-0.9h-2.1
			l-0.5,2.2c-0.1,0.4-0.1,0.7-0.1,1c0,0.5,0.1,0.8,0.4,1.1c0.2,0.3,0.7,0.4,1.2,0.5l-0.3,1.1c-0.9-0.1-1.6-0.4-2-0.8
			c-0.4-0.4-0.6-1-0.6-1.8c0-0.4,0-0.8,0.1-1.2l0.8-3.3h3.5c1.3,0,2.3,0.4,3,1.3s1.1,2.1,1.1,3.7v1.1c0,1.7-0.4,3-1.3,3.8
			c-0.9,0.8-2,1.2-3.4,1.2h-3.5V128.1z"/>
		<path d="M121.9,120.6l-0.3-2.3h1.5l0.3,2.3v8.7h-1.5V120.6z"/>
		<path d="M129.8,129.3l-0.5-2.7c-0.4,0.7-0.9,1.3-1.4,1.8c-0.6,0.5-1.2,0.9-2,1.2l-0.6-1.2c0.9-0.3,1.6-0.7,2.2-1.3
			c0.6-0.5,1.1-1.2,1.5-2v-3.7c0-0.7-0.1-1.1-0.2-1.4s-0.5-0.5-0.9-0.6l-1.3-0.2l0.2-1.2l1.7,0.3c0.8,0.1,1.3,0.4,1.6,0.9
			s0.5,1.2,0.5,2.1v3.8l0.7,4.1H129.8z"/>
		<path d="M133.4,123.9l0.2-1.3h1.3v6.7h-1.5V123.9z M140.2,121.9c0-0.9-0.2-1.5-0.6-1.9c-0.4-0.4-0.9-0.6-1.6-0.6h-4.6v-1.2h5
			c2.2,0,3.3,1.2,3.3,3.7v7.3h-1.5V121.9z"/>
		<path d="M155.6,118.3v1.3l-3.8,9.7h-1.5l3.8-9.8h-6.2V115h1.4v3.2H155.6z"/>
		<path d="M162.6,121.8c0-1,0.2-1.8,0.5-2.3h-5.6v-1.2h8.5v1.2h-1.5c-0.3,0.5-0.5,1.3-0.5,2.3v7.5h-1.5V121.8z"/>
		<path d="M168.7,120.6l-0.3-2.3h1.5l0.3,2.3v8.7h-1.5V120.6z"/>
		<path d="M176.6,129.3l-0.5-2.7c-0.4,0.7-0.9,1.3-1.4,1.8c-0.6,0.5-1.2,0.9-2,1.2l-0.6-1.2c0.9-0.3,1.6-0.7,2.2-1.3
			c0.6-0.5,1.1-1.2,1.5-2v-3.7c0-0.7-0.1-1.1-0.2-1.4s-0.5-0.5-0.9-0.6l-1.3-0.2l0.2-1.2l1.7,0.3c0.8,0.1,1.3,0.4,1.6,0.9
			s0.5,1.2,0.5,2.1v3.8l0.7,4.1H176.6z"/>
		<path d="M183.4,128.5c0.8-0.1,1.3-0.3,1.6-0.7c0.3-0.4,0.4-1,0.4-1.7v-7.8h4.9c2.2,0,3.3,1.2,3.3,3.7v7.3h-1.5v-7.4
			c0-0.9-0.2-1.5-0.6-1.9c-0.4-0.4-0.9-0.6-1.6-0.6h-3v6.5c0,1.2-0.3,2-0.8,2.6s-1.4,0.9-2.6,1L183.4,128.5z"/>
		<path d="M195.9,128.1h3.5v-6.6c0-0.6-0.1-1.1-0.4-1.4c-0.3-0.3-0.6-0.5-1.2-0.6l-1.3-0.2l0.2-1.2l1.7,0.3c0.8,0.1,1.4,0.5,1.8,1
			c0.4,0.5,0.6,1.2,0.6,2.1v7.9h-5V128.1z"/>
		<path d="M203.2,118.3h1.5l1.2,9.8c1.5-0.2,2.8-0.7,3.7-1.5c0.9-0.8,1.3-2.1,1.3-3.9v-0.5c0-0.8-0.2-1.5-0.6-2
			c-0.4-0.5-1.1-0.8-1.9-0.8l-1-0.1l0.1-1.2l1.1,0.1c1.2,0.1,2.1,0.4,2.8,1.1c0.7,0.6,1,1.6,1.1,2.8l0,0.6c0.1,2.3-0.6,4-2,5.1
			s-3.4,1.7-5.8,1.8L203.2,118.3z"/>
		<path d="M217.6,128.1c0.7-0.1,1.3-0.2,1.8-0.5c0.5-0.3,0.9-0.7,1.2-1.3c0.3-0.6,0.5-1.5,0.6-2.6l0.3-4.2h-7.2v-1.2h8.8l-0.1,1.1
			l-0.3,4c-0.1,1.9-0.6,3.4-1.5,4.4c-0.9,1-2.1,1.5-3.5,1.6L217.6,128.1z M214.4,123.6l0.2-1.4h1.3v11h-1.5V123.6z"/>
		<path d="M225.3,123.9l0.2-1.3h1.3v6.7h-1.5V123.9z M232.2,121.9c0-0.9-0.2-1.5-0.6-1.9c-0.4-0.4-0.9-0.6-1.6-0.6h-4.6v-1.2h5
			c2.2,0,3.3,1.2,3.3,3.7v7.3h-1.5V121.9z"/>
	</g>
	<g>
		<path d="M116.8,171.8l-0.3-2.3h1.5l0.3,2.3v12.7h-1.5V171.8z"/>
		<path d="M121.2,179.2h3.3c1,0,1.9-0.3,2.5-0.9c0.6-0.6,0.9-1.5,0.9-2.8v-1.2c0-1.2-0.2-2.1-0.7-2.7c-0.5-0.6-1.2-0.9-2.1-0.9H123
			l-0.5,2.2c-0.1,0.4-0.1,0.7-0.1,1c0,0.5,0.1,0.8,0.4,1.1c0.2,0.3,0.7,0.4,1.2,0.5l-0.3,1.1c-0.9-0.1-1.6-0.4-2-0.8
			c-0.4-0.4-0.6-1-0.6-1.8c0-0.4,0-0.8,0.1-1.2l0.8-3.3h3.5c1.3,0,2.3,0.4,3,1.3c0.7,0.8,1.1,2.1,1.1,3.7v1.1c0,1.7-0.4,3-1.3,3.8
			c-0.9,0.8-2,1.2-3.4,1.2h-3.5V179.2z"/>
		<path d="M132,171.8l-0.3-2.3h1.5l0.3,2.3v8.7H132V171.8z"/>
		<path d="M139.9,180.5l-0.5-2.7c-0.4,0.7-0.9,1.3-1.4,1.8c-0.6,0.5-1.2,0.9-2,1.2l-0.6-1.2c0.9-0.3,1.6-0.7,2.2-1.3
			c0.6-0.5,1.1-1.2,1.5-2v-3.7c0-0.7-0.1-1.1-0.2-1.4s-0.5-0.5-0.9-0.6l-1.3-0.2l0.2-1.2l1.7,0.3c0.8,0.1,1.3,0.4,1.6,0.9
			s0.5,1.2,0.5,2.1v3.8l0.7,4.1H139.9z"/>
		<path d="M143.5,175.1l0.2-1.3h1.3v6.7h-1.5V175.1z M150.3,173.1c0-0.9-0.2-1.5-0.6-1.9c-0.4-0.4-0.9-0.6-1.6-0.6h-4.6v-1.2h5
			c2.2,0,3.3,1.2,3.3,3.7v7.3h-1.5V173.1z"/>
		<path d="M165.6,169.4v1.3l-3.8,9.7h-1.5l3.8-9.8h-6.2v-4.4h1.4v3.2H165.6z"/>
		<path d="M172.6,173c0-1,0.2-1.8,0.5-2.3h-5.6v-1.2h8.5v1.2h-1.5c-0.3,0.5-0.5,1.3-0.5,2.3v7.5h-1.5V173z"/>
		<path d="M178.7,171.8l-0.3-2.3h1.5l0.3,2.3v8.7h-1.5V171.8z"/>
		<path d="M186.7,180.5l-0.5-2.7c-0.4,0.7-0.9,1.3-1.4,1.8c-0.6,0.5-1.2,0.9-2,1.2l-0.6-1.2c0.9-0.3,1.6-0.7,2.2-1.3
			c0.6-0.5,1.1-1.2,1.5-2v-3.7c0-0.7-0.1-1.1-0.2-1.4s-0.5-0.5-0.9-0.6l-1.3-0.2l0.2-1.2l1.7,0.3c0.8,0.1,1.3,0.4,1.6,0.9
			s0.5,1.2,0.5,2.1v3.8l0.7,4.1H186.7z"/>
		<path d="M195.3,180.7l-1.2-10l-0.1-1.2h5.4c1.2,0,2.1,0.4,2.7,1.1c0.7,0.7,1,1.7,1,2.9l0,0.6C203.3,178.2,200.7,180.4,195.3,180.7
			z M200.4,177.9c0.9-0.8,1.3-2,1.3-3.8v-0.5c0-0.9-0.2-1.6-0.6-2.1c-0.4-0.5-1-0.8-1.8-0.8h-3.6l1,8.6
			C198.3,179.1,199.5,178.6,200.4,177.9z"/>
		<path d="M205.8,171.8l-0.3-2.3h1.5l0.3,2.3v8.7h-1.5V171.8z"/>
		<path d="M210.2,179.2h3.3c1,0,1.9-0.3,2.5-0.9c0.6-0.6,0.9-1.5,0.9-2.8v-1.2c0-1.2-0.2-2.1-0.7-2.7c-0.5-0.6-1.2-0.9-2.1-0.9H212
			l-0.5,2.2c-0.1,0.4-0.1,0.7-0.1,1c0,0.5,0.1,0.8,0.4,1.1c0.2,0.3,0.7,0.4,1.2,0.5l-0.3,1.1c-0.9-0.1-1.6-0.4-2-0.8
			c-0.4-0.4-0.6-1-0.6-1.8c0-0.4,0-0.8,0.1-1.2l0.8-3.3h3.5c1.3,0,2.3,0.4,3,1.3s1.1,2.1,1.1,3.7v1.1c0,1.7-0.4,3-1.3,3.8
			c-0.9,0.8-2,1.2-3.4,1.2h-3.5V179.2z"/>
		<path d="M221,171.8l-0.3-2.3h1.5l0.3,2.3v3l0,1.3l-1.5,0.3V171.8z"/>
		<path d="M232.6,180.5l-4.5-6.8l-2.1,6.8h-1.5l2.2-6.8l0.5-1.3l-1.8-2.9h1.6l1.8,2.8l1.9,2.8l0.5-1.6l1.2-3.9h1.5l-2.2,6.9l2.8,4.1
			H232.6z"/>
	</g>
	<g>
		<path d="M146,226.3l0.2-1.3h1.3v6.7H146V226.3z M152.8,224.2c0-0.9-0.2-1.5-0.6-1.9c-0.4-0.4-0.9-0.6-1.6-0.6H146v-1.2h5
			c2.2,0,3.3,1.2,3.3,3.7v7.3h-1.5V224.2z"/>
		<path d="M156.9,226.3l0.2-1.3h1.3v6.7h-1.5V226.3z M163.7,224.2c0-0.9-0.2-1.5-0.6-1.9c-0.4-0.4-0.9-0.6-1.6-0.6h-4.6v-1.2h5
			c2.2,0,3.3,1.2,3.3,3.7v7.3h-1.5V224.2z"/>
		<path d="M167.4,230.4h2.6c1.1,0,1.9-0.3,2.4-0.9c0.5-0.6,0.8-1.5,0.8-2.7v-1.3c0-1.2-0.3-2.1-0.8-2.7c-0.5-0.6-1.4-0.9-2.4-0.9
			h-2.6v-1.2h2.9c1.4,0,2.5,0.4,3.3,1.3s1.2,2.1,1.2,3.7v1.1c0,1.6-0.4,2.8-1.2,3.7c-0.8,0.8-1.9,1.3-3.3,1.3h-2.9V230.4z"/>
		<path d="M180.3,230.8c0.8-0.1,1.3-0.3,1.6-0.7c0.3-0.4,0.4-1,0.4-1.7v-7.8h4.9c2.2,0,3.3,1.2,3.3,3.7v7.3H189v-7.4
			c0-0.9-0.2-1.5-0.6-1.9c-0.4-0.4-0.9-0.6-1.6-0.6h-3v6.5c0,1.2-0.3,2-0.8,2.6s-1.4,0.9-2.6,1L180.3,230.8z"/>
		<path d="M193.4,222.9l-0.3-2.3h1.5l0.3,2.3v8.7h-1.5V222.9z"/>
		<path d="M197.9,222.9l-0.3-2.3h1.5l0.3,2.3v3l0,1.3l-1.5,0.3V222.9z"/>
		<path d="M206.8,224.1c0-1,0.2-1.8,0.5-2.3h-5.6v-1.2h8.5v1.2h-1.5c-0.3,0.5-0.5,1.3-0.5,2.3v7.5h-1.5V224.1z"/>
		<path d="M213,222.9l-0.3-2.3h1.5l0.3,2.3v8.7H213V222.9z"/>
		<path d="M220.9,231.6l-0.5-2.7c-0.4,0.7-0.9,1.3-1.4,1.8c-0.6,0.5-1.2,0.9-2,1.2l-0.6-1.2c0.9-0.3,1.6-0.7,2.2-1.3
			c0.6-0.5,1.1-1.2,1.5-2v-3.7c0-0.7-0.1-1.1-0.2-1.4s-0.5-0.5-0.9-0.6l-1.3-0.2l0.2-1.2l1.7,0.3c0.8,0.1,1.3,0.4,1.6,0.9
			s0.5,1.2,0.5,2.1v3.8l0.7,4.1H220.9z"/>
		<path d="M224.8,222.9l-0.3-2.3h1.5l0.3,2.3v3l0,1.3l-1.5,0.3V222.9z"/>
		<path d="M228.6,230.4h3.5v-6.6c0-0.6-0.1-1.1-0.4-1.4c-0.3-0.3-0.6-0.5-1.2-0.6l-1.3-0.2l0.2-1.2l1.7,0.3c0.8,0.1,1.4,0.5,1.8,1
			c0.4,0.5,0.6,1.2,0.6,2.1v7.9h-5V230.4z"/>
	</g>
	<g>
		<path d="M131.1,277.4l0.2-1.3h1.3v6.7h-1.5V277.4z M137.9,275.4c0-0.9-0.2-1.5-0.6-1.9c-0.4-0.4-0.9-0.6-1.6-0.6h-4.6v-1.2h5
			c2.2,0,3.3,1.2,3.3,3.7v7.3h-1.5V275.4z"/>
		<path d="M147.2,275.4c0-0.9-0.2-1.5-0.6-1.9c-0.4-0.4-0.9-0.6-1.6-0.6h-3.5v-1.2h3.9c2.2,0,3.3,1.2,3.3,3.7v7.3h-1.5V275.4z"/>
		<path d="M151.7,274.1l-0.3-2.3h1.5l0.3,2.3v3l0,1.3l-1.5,0.3V274.1z"/>
		<path d="M155.8,277.4l0.2-1.3h1.3v6.7h-1.5V277.4z M162.6,275.4c0-0.9-0.2-1.5-0.6-1.9c-0.4-0.4-0.9-0.6-1.6-0.6h-4.6v-1.2h5
			c2.2,0,3.3,1.2,3.3,3.7v7.3h-1.5V275.4z"/>
		<path d="M175.1,281.6v1.2h-2.9h-5.7v-1.2h5.7v-6.2c0-0.9-0.2-1.5-0.6-1.9c-0.4-0.4-0.9-0.6-1.6-0.6h-3.6v-1.2h3.9
			c2.2,0,3.3,1.2,3.3,3.7v6.1H175.1z"/>
		<path d="M180.3,282c0.8-0.1,1.3-0.3,1.6-0.7c0.3-0.4,0.4-1,0.4-1.7v-7.8h4.9c2.2,0,3.3,1.2,3.3,3.7v7.3H189v-7.4
			c0-0.9-0.2-1.5-0.6-1.9c-0.4-0.4-0.9-0.6-1.6-0.6h-3v6.5c0,1.2-0.3,2-0.8,2.6s-1.4,0.9-2.6,1L180.3,282z"/>
		<path d="M193.4,274.1l-0.3-2.3h1.5l0.3,2.3v8.7h-1.5V274.1z"/>
		<path d="M197.9,274.1l-0.3-2.3h1.5l0.3,2.3v3l0,1.3l-1.5,0.3V274.1z"/>
		<path d="M206.8,275.3c0-1,0.2-1.8,0.5-2.3h-5.6v-1.2h8.5v1.2h-1.5c-0.3,0.5-0.5,1.3-0.5,2.3v7.5h-1.5V275.3z"/>
		<path d="M213,274.1l-0.3-2.3h1.5l0.3,2.3v8.7H213V274.1z"/>
		<path d="M220.9,282.8l-0.5-2.7c-0.4,0.7-0.9,1.3-1.4,1.8c-0.6,0.5-1.2,0.9-2,1.2l-0.6-1.2c0.9-0.3,1.6-0.7,2.2-1.3
			c0.6-0.5,1.1-1.2,1.5-2V275c0-0.7-0.1-1.1-0.2-1.4s-0.5-0.5-0.9-0.6l-1.3-0.2l0.2-1.2l1.7,0.3c0.8,0.1,1.3,0.4,1.6,0.9
			s0.5,1.2,0.5,2.1v3.8l0.7,4.1H220.9z"/>
		<path d="M224.8,274.1l-0.3-2.3h1.5l0.3,2.3v3l0,1.3l-1.5,0.3V274.1z"/>
		<path d="M228.6,281.6h3.5V275c0-0.6-0.1-1.1-0.4-1.4c-0.3-0.3-0.6-0.5-1.2-0.6l-1.3-0.2l0.2-1.2l1.7,0.3c0.8,0.1,1.4,0.5,1.8,1
			c0.4,0.5,0.6,1.2,0.6,2.1v7.9h-5V281.6z"/>
	</g>
	<g>
		<path d="M175.1,325.3l-0.3-2.3h1.5l0.3,2.3V338h-1.5V325.3z"/>
		<path d="M187.7,332.8v1.2h-2.9H179v-1.2h5.7v-6.2c0-0.9-0.2-1.5-0.6-1.9c-0.4-0.4-0.9-0.6-1.6-0.6H179V323h3.9
			c2.2,0,3.3,1.2,3.3,3.7v6.1H187.7z"/>
		<path d="M197,323v1.3l-3.8,9.7h-1.5l3.8-9.8h-6.2v-4.4h1.4v3.2H197z"/>
		<path d="M208.4,326.6c0-0.9-0.2-1.5-0.6-1.9c-0.4-0.4-0.9-0.6-1.6-0.6h-3.5V323h3.9c2.2,0,3.3,1.2,3.3,3.7v7.3h-1.5V326.6z"/>
		<path d="M220.3,324c0.6,0.7,0.9,1.7,0.9,3v7.1h-1.5v-7.1c0-0.9-0.2-1.6-0.5-2c-0.4-0.5-0.9-0.7-1.6-0.7h-3.4v9.8h-1.5v-10.5V323
			h5.2C218.9,323,219.7,323.3,220.3,324z"/>
		<path d="M231.7,332.1c-1.5,1.4-3.8,2.1-6.8,2.1l-1.4-11.2h1.5l0.7,5.6c0.6-0.3,1.1-0.7,1.4-1c0.3-0.4,0.6-0.8,0.7-1.3
			s0.2-1.2,0.3-2l0-1.2h1.5l0,1.2c0,1.5-0.3,2.6-0.9,3.5s-1.5,1.6-2.8,2.2l0.4,3.1c2.1-0.1,3.7-0.8,4.7-1.9c1-1.1,1.6-2.8,1.5-5.1
			l0-2.9h1.5l0,2.8C233.9,328.6,233.2,330.7,231.7,332.1z"/>
	</g>
	<g>
		<path d="M170.7,385.2l-4.5-6.8l-2.1,6.8h-1.5l2.2-6.8l0.5-1.3l-1.8-2.9h1.6l1.8,2.8l1.9,2.8l0.5-1.6l1.2-3.9h1.5l-2.2,6.9l2.8,4.1
			H170.7z"/>
		<path d="M174.6,376.5l-0.3-2.3h1.5l0.3,2.3v3l0,1.3l-1.5,0.3V376.5z"/>
		<path d="M184,377.8c0-0.9-0.2-1.5-0.6-1.9c-0.4-0.4-0.9-0.6-1.6-0.6h-3.5v-1.2h3.9c2.2,0,3.3,1.2,3.3,3.7v7.3H184V377.8z"/>
		<path d="M191.3,384c0.7-0.1,1.3-0.2,1.8-0.5c0.5-0.3,0.9-0.7,1.2-1.3c0.3-0.6,0.5-1.5,0.6-2.6l0.3-4.2H188v-1.2h8.8l-0.1,1.1
			l-0.3,4c-0.1,1.9-0.6,3.4-1.5,4.4c-0.9,1-2.1,1.5-3.5,1.6L191.3,384z M188.1,379.5l0.2-1.4h1.3v11h-1.5V379.5z"/>
		<path d="M202.8,374.1h1.5l1.2,9.8c1.5-0.2,2.8-0.7,3.7-1.5c0.9-0.8,1.3-2.1,1.3-3.9v-0.5c0-0.8-0.2-1.5-0.6-2
			c-0.4-0.5-1.1-0.8-1.9-0.8l-1-0.1l0.1-1.2l1.1,0.1c1.2,0.1,2.1,0.4,2.8,1.1c0.7,0.6,1,1.6,1.1,2.8l0,0.6c0.1,2.3-0.6,4-2,5.1
			s-3.4,1.7-5.8,1.8L202.8,374.1z"/>
		<path d="M213.4,384h3.5v-6.6c0-0.6-0.1-1.1-0.4-1.4c-0.3-0.3-0.6-0.5-1.2-0.6l-1.3-0.2l0.2-1.2l1.7,0.3c0.8,0.1,1.4,0.5,1.8,1
			c0.4,0.5,0.6,1.2,0.6,2.1v7.9h-5V384z"/>
		<path d="M221.4,376.5l-0.3-2.3h1.5l0.3,2.3v8.7h-1.5V376.5z"/>
		<path d="M225.8,384h3.3c1,0,1.9-0.3,2.5-0.9c0.6-0.6,0.9-1.5,0.9-2.8V379c0-1.2-0.2-2.1-0.7-2.7c-0.5-0.6-1.2-0.9-2.1-0.9h-2.1
			l-0.5,2.2c-0.1,0.4-0.1,0.7-0.1,1c0,0.5,0.1,0.8,0.4,1.1c0.2,0.3,0.7,0.4,1.2,0.5l-0.3,1.1c-0.9-0.1-1.6-0.4-2-0.8
			c-0.4-0.4-0.6-1-0.6-1.8c0-0.4,0-0.8,0.1-1.2l0.8-3.3h3.5c1.3,0,2.3,0.4,3,1.3s1.1,2.1,1.1,3.7v1.1c0,1.7-0.4,3-1.3,3.8
			c-0.9,0.8-2,1.2-3.4,1.2h-3.5V384z"/>
	</g>
	<g>
		<path d="M115.3,429v7.3h-1.5H107h-0.4v-11h1.5h3.8C114.2,425.3,115.3,426.6,115.3,429z M113.8,435.1V429c0-0.9-0.2-1.5-0.6-1.9
			c-0.4-0.4-0.9-0.6-1.6-0.6h-3.5v8.6H113.8z"/>
		<path d="M118.2,427.6l-0.3-2.3h1.5l0.3,2.3v3l0,1.3l-1.5,0.3V427.6z"/>
		<path d="M127.6,429c0-0.9-0.2-1.5-0.6-1.9c-0.4-0.4-0.9-0.6-1.6-0.6h-3.5v-1.2h3.9c2.2,0,3.3,1.2,3.3,3.7v7.3h-1.5V429z"/>
		<path d="M132.1,427.6l-0.3-2.3h1.5l0.3,2.3v8.7h-1.5V427.6z"/>
		<path d="M144.2,434.4c-1.5,1.4-3.8,2.1-6.8,2.1l-1.4-11.2h1.5l0.7,5.6c0.6-0.3,1.1-0.7,1.4-1c0.3-0.4,0.6-0.8,0.7-1.3
			s0.2-1.2,0.3-2l0-1.2h1.5l0,1.2c0,1.5-0.3,2.6-0.9,3.5s-1.5,1.6-2.8,2.2l0.4,3.1c2.1-0.1,3.7-0.8,4.7-1.9c1-1.1,1.6-2.8,1.5-5.1
			l0-2.9h1.5l0,2.8C146.4,431,145.7,433.1,144.2,434.4z"/>
		<path d="M149,427.6l-0.3-2.3h1.5l0.3,2.3v3l0,1.3l-1.5,0.3V427.6z"/>
		<path d="M156.3,435.1c0.7-0.1,1.3-0.2,1.8-0.5c0.5-0.3,0.9-0.7,1.2-1.3c0.3-0.6,0.5-1.5,0.6-2.6l0.3-4.2H153v-1.2h8.8l-0.1,1.1
			l-0.3,4c-0.1,1.9-0.6,3.4-1.5,4.4c-0.9,1-2.1,1.5-3.5,1.6L156.3,435.1z M153.1,430.7l0.2-1.4h1.3v11h-1.5V430.7z"/>
		<path d="M171.4,425.3v1.3l-3.8,9.7H166l3.8-9.8h-6.2v-4.4h1.4v3.2H171.4z"/>
		<path d="M177.8,427.6l-0.3-2.3h1.5l0.3,2.3v3l0,1.3l-1.5,0.3V427.6z"/>
		<path d="M180.9,435.5c0.8-0.1,1.3-0.3,1.6-0.7c0.3-0.4,0.4-1,0.4-1.7v-7.8h4.9c2.2,0,3.3,1.2,3.3,3.7v7.3h-1.5V429
			c0-0.9-0.2-1.5-0.6-1.9c-0.4-0.4-0.9-0.6-1.6-0.6h-3v6.5c0,1.2-0.3,2-0.8,2.6s-1.4,0.9-2.6,1L180.9,435.5z"/>
		<path d="M201.4,426.3c0.6,0.7,0.9,1.7,0.9,3v7.1h-1.5v-7.1c0-0.9-0.2-1.6-0.5-2c-0.4-0.5-0.9-0.7-1.6-0.7h-3.4v9.8h-1.5v-10.5
			v-0.5h5.2C200,425.3,200.8,425.7,201.4,426.3z"/>
		<path d="M204.1,435.5c0.8-0.1,1.3-0.3,1.6-0.7c0.3-0.4,0.4-1,0.4-1.7v-7.8h4.9c2.2,0,3.3,1.2,3.3,3.7v7.3h-1.5V429
			c0-0.9-0.2-1.5-0.6-1.9c-0.4-0.4-0.9-0.6-1.6-0.6h-3v6.5c0,1.2-0.3,2-0.8,2.6s-1.4,0.9-2.6,1L204.1,435.5z"/>
		<path d="M221.2,427.6l-0.3-2.3h1.5l0.3,2.3v8.7h-1.5V427.6z"/>
		<path d="M228.5,435.1c0.7-0.1,1.3-0.2,1.8-0.5c0.5-0.3,0.9-0.7,1.2-1.3c0.3-0.6,0.5-1.5,0.6-2.6l0.3-4.2h-7.2v-1.2h8.8l-0.1,1.1
			l-0.3,4c-0.1,1.9-0.6,3.4-1.5,4.4c-0.9,1-2.1,1.5-3.5,1.6L228.5,435.1z M225.2,430.7l0.2-1.4h1.3v11h-1.5V430.7z"/>
	</g>
	<g>
		<path d="M82,487.7l-1.2-10l-0.1-1.2h5.4c1.2,0,2.1,0.4,2.7,1.1c0.7,0.7,1,1.7,1,2.9l0,0.6C90,485.3,87.4,487.5,82,487.7z
			 M87.1,484.9c0.9-0.8,1.3-2,1.3-3.8v-0.5c0-0.9-0.2-1.6-0.6-2.1c-0.4-0.5-1-0.8-1.8-0.8h-3.6l1,8.6
			C84.9,486.2,86.2,485.7,87.1,484.9z"/>
		<path d="M92.5,478.8l-0.3-2.3h1.5l0.3,2.3v8.7h-1.5V478.8z"/>
		<path d="M99.7,486.3c0.7-0.1,1.3-0.2,1.8-0.5c0.5-0.3,0.9-0.7,1.2-1.3c0.3-0.6,0.5-1.5,0.6-2.6l0.3-4.2h-7.2v-1.2h8.8l-0.1,1.1
			l-0.3,4c-0.1,1.9-0.6,3.4-1.5,4.4c-0.9,1-2.1,1.5-3.5,1.6L99.7,486.3z M96.5,481.9l0.2-1.4H98v11h-1.5V481.9z"/>
		<path d="M107.8,478.8l-0.3-2.3h1.5l0.3,2.3v8.7h-1.5V478.8z"/>
		<path d="M112.2,486.3h3.3c1,0,1.9-0.3,2.5-0.9c0.6-0.6,0.9-1.5,0.9-2.8v-1.2c0-1.2-0.2-2.1-0.7-2.7c-0.5-0.6-1.2-0.9-2.1-0.9H114
			l-0.5,2.2c-0.1,0.4-0.1,0.7-0.1,1c0,0.5,0.1,0.8,0.4,1.1c0.2,0.3,0.7,0.4,1.2,0.5l-0.3,1.1c-0.9-0.1-1.6-0.4-2-0.8
			c-0.4-0.4-0.6-1-0.6-1.8c0-0.4,0-0.8,0.1-1.2l0.8-3.3h3.5c1.3,0,2.3,0.4,3,1.3s1.1,2.1,1.1,3.7v1.1c0,1.7-0.4,3-1.3,3.8
			c-0.9,0.8-2,1.2-3.4,1.2h-3.5V486.3z"/>
		<path d="M131.1,486.3v1.2h-2.9h-5.7v-1.2h5.7v-6.2c0-0.9-0.2-1.5-0.6-1.9c-0.4-0.4-0.9-0.6-1.6-0.6h-3.6v-1.2h3.9
			c2.2,0,3.3,1.2,3.3,3.7v6.1H131.1z"/>
		<path d="M145.6,486.3v1.2h-2.9h-5.7v-1.2h5.7v-6.2c0-0.9-0.2-1.5-0.6-1.9c-0.4-0.4-0.9-0.6-1.6-0.6h-3.6v-1.2h3.9
			c2.2,0,3.3,1.2,3.3,3.7v6.1H145.6z"/>
		<path d="M147.9,478.8l-0.3-2.3h1.5l0.3,2.3v3l0,1.3l-1.5,0.3V478.8z"/>
		<path d="M151.7,486.3h2.6c1.1,0,1.9-0.3,2.4-0.9c0.5-0.6,0.8-1.5,0.8-2.7v-1.3c0-1.2-0.3-2.1-0.8-2.7c-0.5-0.6-1.4-0.9-2.4-0.9
			h-2.6v-1.2h2.9c1.4,0,2.5,0.4,3.3,1.3s1.2,2.1,1.2,3.7v1.1c0,1.6-0.4,2.8-1.2,3.7c-0.8,0.8-1.9,1.3-3.3,1.3h-2.9V486.3z"/>
		<path d="M166.6,480.1c0-0.9-0.2-1.5-0.6-1.9c-0.4-0.4-0.9-0.6-1.6-0.6h-3.5v-1.2h3.9c2.2,0,3.3,1.2,3.3,3.7v7.3h-1.5V480.1z"/>
		<path d="M178.1,476.5v1.3l-3.8,9.7h-1.5l3.8-9.8h-6.2v-4.4h1.4v3.2H178.1z"/>
		<path d="M183.4,486.7c0.8-0.1,1.3-0.3,1.6-0.7c0.3-0.4,0.4-1,0.4-1.7v-7.8h4.9c2.2,0,3.3,1.2,3.3,3.7v7.3h-1.5v-7.4
			c0-0.9-0.2-1.5-0.6-1.9c-0.4-0.4-0.9-0.6-1.6-0.6h-3v6.5c0,1.2-0.3,2-0.8,2.6s-1.4,0.9-2.6,1L183.4,486.7z"/>
		<path d="M201.4,480.1c0-0.9-0.2-1.5-0.6-1.9c-0.4-0.4-0.9-0.6-1.6-0.6h-3.5v-1.2h3.9c2.2,0,3.3,1.2,3.3,3.7v7.3h-1.5V480.1z"/>
		<path d="M209.4,487.5l-0.5-2.7c-0.4,0.7-0.9,1.3-1.4,1.8c-0.6,0.5-1.2,0.9-2,1.2l-0.6-1.2c0.9-0.3,1.6-0.7,2.2-1.3
			c0.6-0.5,1.1-1.2,1.5-2v-3.7c0-0.7-0.1-1.1-0.2-1.4s-0.5-0.5-0.9-0.6l-1.3-0.2l0.2-1.2l1.7,0.3c0.8,0.1,1.3,0.4,1.6,0.9
			s0.5,1.2,0.5,2.1v3.8l0.7,4.1H209.4z"/>
		<path d="M214.1,487.7l-1.2-10l-0.1-1.2h5.4c1.2,0,2.1,0.4,2.7,1.1c0.7,0.7,1,1.7,1,2.9l0,0.6C222.1,485.3,219.5,487.5,214.1,487.7
			z M219.2,484.9c0.9-0.8,1.3-2,1.3-3.8v-0.5c0-0.9-0.2-1.6-0.6-2.1c-0.4-0.5-1-0.8-1.8-0.8h-3.6l1,8.6
			C217,486.2,218.3,485.7,219.2,484.9z"/>
		<path d="M232.8,486.2c-0.8,1-1.9,1.5-3.4,1.5c-0.5,0-1-0.1-1.6-0.2l0.2-1.2c0.4,0.1,0.9,0.2,1.4,0.2c1.1,0,1.9-0.4,2.4-1.1
			c0.5-0.8,0.8-1.9,0.8-3.4c0-2.9-0.9-4.3-2.8-4.3c-0.7,0-1.3,0.2-1.7,0.6c-0.4,0.4-0.7,0.9-0.9,1.6l-1.4,7.7h-1.5l1.5-7.7l-1.5-3.3
			h1.6l1,2.4c0.3-0.8,0.7-1.5,1.3-1.9c0.6-0.4,1.2-0.6,2-0.6c1.3,0,2.3,0.4,3,1.3c0.7,0.9,1.1,2.3,1.1,4.2
			C234,483.8,233.6,485.2,232.8,486.2z"/>
	</g>
	<g>
		<path d="M91.3,522.6c-0.1-0.1-0.2-0.3-0.2-0.5c0-0.2,0.1-0.4,0.2-0.5c0.1-0.1,0.3-0.2,0.5-0.2c0.2,0,0.4,0.1,0.5,0.2
			s0.2,0.3,0.2,0.5c0,0.2-0.1,0.4-0.2,0.5c-0.1,0.1-0.3,0.2-0.5,0.2C91.6,522.8,91.4,522.7,91.3,522.6z M91.3,524.2h1v6.8h-1V524.2z
			"/>
		<path d="M99,528.1h-3.4l-0.9,2.9h-1l3.1-9.2h1.1l3.1,9.2h-1.1L99,528.1z M98.7,527.3l-0.5-1.5c-0.4-1.2-0.7-2.2-1-3.1h-0.1
			c-0.3,1.1-0.6,2.2-0.9,3.1l-0.5,1.5H98.7z"/>
		<path d="M103.3,530.7c-0.5-0.3-0.9-0.7-1.1-1.2c-0.3-0.5-0.4-1.2-0.4-1.9c0-0.7,0.1-1.4,0.4-1.9s0.7-1,1.2-1.2
			c0.5-0.3,1-0.4,1.6-0.4c0.7,0,1.4,0.3,2,0.8l-0.5,0.7c-0.2-0.2-0.4-0.4-0.7-0.5c-0.2-0.1-0.5-0.2-0.7-0.2c-0.4,0-0.8,0.1-1.1,0.3
			c-0.3,0.2-0.6,0.5-0.8,1c-0.2,0.4-0.3,0.9-0.3,1.4c0,0.8,0.2,1.5,0.6,2c0.4,0.5,0.9,0.7,1.6,0.7c0.6,0,1.1-0.2,1.7-0.7l0.4,0.7
			c-0.3,0.3-0.6,0.5-1,0.6c-0.4,0.2-0.8,0.2-1.2,0.2C104.3,531.2,103.7,531,103.3,530.7z"/>
		<path d="M109.3,530.7c-0.5-0.3-0.9-0.7-1.1-1.2c-0.3-0.5-0.4-1.2-0.4-1.9c0-0.7,0.1-1.4,0.4-1.9s0.7-1,1.2-1.2
			c0.5-0.3,1-0.4,1.6-0.4c0.7,0,1.4,0.3,2,0.8l-0.5,0.7c-0.2-0.2-0.4-0.4-0.7-0.5c-0.2-0.1-0.5-0.2-0.7-0.2c-0.4,0-0.8,0.1-1.1,0.3
			c-0.3,0.2-0.6,0.5-0.8,1c-0.2,0.4-0.3,0.9-0.3,1.4c0,0.8,0.2,1.5,0.6,2c0.4,0.5,0.9,0.7,1.6,0.7c0.6,0,1.1-0.2,1.7-0.7l0.4,0.7
			c-0.3,0.3-0.6,0.5-1,0.6c-0.4,0.2-0.8,0.2-1.2,0.2C110.3,531.2,109.8,531,109.3,530.7z"/>
		<path d="M119.5,527.8h-4.7c0,0.8,0.3,1.4,0.7,1.8c0.4,0.4,1,0.7,1.6,0.7c0.6,0,1.2-0.2,1.7-0.5l0.4,0.7c-0.3,0.2-0.7,0.4-1,0.5
			c-0.4,0.1-0.8,0.2-1.2,0.2c-0.6,0-1.1-0.1-1.6-0.4c-0.5-0.3-0.9-0.7-1.2-1.2s-0.4-1.2-0.4-1.9c0-0.7,0.1-1.3,0.4-1.9
			c0.3-0.5,0.7-1,1.1-1.3s1-0.4,1.5-0.4c0.8,0,1.5,0.3,2,0.8c0.5,0.6,0.7,1.3,0.7,2.3C119.6,527.5,119.6,527.7,119.5,527.8z
			 M118.7,527.1c0-0.7-0.2-1.3-0.5-1.7s-0.7-0.6-1.3-0.6c-0.5,0-1,0.2-1.3,0.6c-0.4,0.4-0.6,0.9-0.7,1.7H118.7z"/>
		<path d="M121.7,530.9c-0.4-0.2-0.8-0.4-1.2-0.7l0.5-0.7c0.3,0.3,0.7,0.5,1,0.6c0.3,0.1,0.7,0.2,1.1,0.2c0.4,0,0.8-0.1,1-0.3
			s0.4-0.5,0.4-0.8c0-0.3-0.1-0.6-0.4-0.8c-0.3-0.2-0.7-0.4-1.2-0.6c-0.6-0.2-1.1-0.5-1.5-0.8c-0.4-0.3-0.5-0.7-0.5-1.2
			c0-0.6,0.2-1,0.6-1.4c0.4-0.4,1-0.5,1.7-0.5c0.4,0,0.8,0.1,1.1,0.2c0.4,0.1,0.7,0.3,1,0.5l-0.5,0.7c-0.3-0.2-0.5-0.3-0.8-0.4
			s-0.5-0.2-0.8-0.2c-0.4,0-0.8,0.1-1,0.3c-0.2,0.2-0.3,0.4-0.3,0.7c0,0.2,0.1,0.4,0.2,0.5s0.3,0.3,0.5,0.4c0.2,0.1,0.5,0.2,0.8,0.3
			c0.5,0.2,0.8,0.3,1.1,0.5c0.3,0.1,0.5,0.3,0.7,0.6c0.2,0.3,0.3,0.6,0.3,1c0,0.4-0.1,0.7-0.3,1c-0.2,0.3-0.5,0.5-0.8,0.7
			c-0.4,0.2-0.8,0.3-1.3,0.3C122.5,531.2,122.1,531.1,121.7,530.9z"/>
		<path d="M127.5,530.9c-0.4-0.2-0.8-0.4-1.2-0.7l0.5-0.7c0.3,0.3,0.7,0.5,1,0.6c0.3,0.1,0.7,0.2,1.1,0.2c0.4,0,0.8-0.1,1-0.3
			s0.4-0.5,0.4-0.8c0-0.3-0.1-0.6-0.4-0.8c-0.3-0.2-0.7-0.4-1.2-0.6c-0.6-0.2-1.1-0.5-1.5-0.8c-0.4-0.3-0.5-0.7-0.5-1.2
			c0-0.6,0.2-1,0.6-1.4c0.4-0.4,1-0.5,1.7-0.5c0.4,0,0.8,0.1,1.1,0.2c0.4,0.1,0.7,0.3,1,0.5l-0.5,0.7c-0.3-0.2-0.5-0.3-0.8-0.4
			s-0.5-0.2-0.8-0.2c-0.4,0-0.8,0.1-1,0.3c-0.2,0.2-0.3,0.4-0.3,0.7c0,0.2,0.1,0.4,0.2,0.5s0.3,0.3,0.5,0.4c0.2,0.1,0.5,0.2,0.8,0.3
			c0.5,0.2,0.8,0.3,1.1,0.5c0.3,0.1,0.5,0.3,0.7,0.6c0.2,0.3,0.3,0.6,0.3,1c0,0.4-0.1,0.7-0.3,1c-0.2,0.3-0.5,0.5-0.8,0.7
			c-0.4,0.2-0.8,0.3-1.3,0.3C128.4,531.2,127.9,531.1,127.5,530.9z"/>
		<path d="M132.9,522.6c-0.1-0.1-0.2-0.3-0.2-0.5c0-0.2,0.1-0.4,0.2-0.5c0.1-0.1,0.3-0.2,0.5-0.2c0.2,0,0.4,0.1,0.5,0.2
			s0.2,0.3,0.2,0.5c0,0.2-0.1,0.4-0.2,0.5c-0.1,0.1-0.3,0.2-0.5,0.2C133.2,522.8,133.1,522.7,132.9,522.6z M132.9,524.2h1v6.8h-1
			V524.2z"/>
		<path d="M138.2,530.9c-0.3-0.2-0.7-0.4-1-0.6h0l-0.1,0.7h-0.8v-10h1v2.8l0,1.2c0.8-0.7,1.5-1,2.2-1c0.9,0,1.5,0.3,2,0.9
			c0.5,0.6,0.7,1.5,0.7,2.5c0,0.7-0.1,1.4-0.4,2c-0.3,0.6-0.6,1-1.1,1.3c-0.4,0.3-0.9,0.4-1.5,0.4
			C138.9,531.2,138.6,531.1,138.2,530.9z M140.1,530c0.3-0.2,0.6-0.6,0.7-1s0.3-0.9,0.3-1.5c0-0.8-0.2-1.4-0.5-1.9
			c-0.3-0.5-0.8-0.7-1.4-0.7c-0.6,0-1.2,0.3-1.9,1v3.7c0.3,0.3,0.6,0.4,0.9,0.6c0.3,0.1,0.6,0.2,0.8,0.2
			C139.4,530.3,139.8,530.2,140.1,530z"/>
		<path d="M144,522.6c-0.1-0.1-0.2-0.3-0.2-0.5c0-0.2,0.1-0.4,0.2-0.5c0.1-0.1,0.3-0.2,0.5-0.2c0.2,0,0.4,0.1,0.5,0.2
			s0.2,0.3,0.2,0.5c0,0.2-0.1,0.4-0.2,0.5c-0.1,0.1-0.3,0.2-0.5,0.2C144.3,522.8,144.2,522.7,144,522.6z M144,524.2h1v6.8h-1V524.2z
			"/>
		<path d="M147.7,530.8c-0.2-0.2-0.3-0.6-0.3-1.1V521h1v8.8c0,0.2,0,0.3,0.1,0.4c0.1,0.1,0.1,0.1,0.2,0.1c0.1,0,0.2,0,0.3,0l0.1,0.8
			c-0.2,0.1-0.4,0.1-0.6,0.1C148.1,531.2,147.9,531,147.7,530.8z"/>
		<path d="M150.9,522.6c-0.1-0.1-0.2-0.3-0.2-0.5c0-0.2,0.1-0.4,0.2-0.5c0.1-0.1,0.3-0.2,0.5-0.2c0.2,0,0.4,0.1,0.5,0.2
			s0.2,0.3,0.2,0.5c0,0.2-0.1,0.4-0.2,0.5c-0.1,0.1-0.3,0.2-0.5,0.2C151.2,522.8,151.1,522.7,150.9,522.6z M150.9,524.2h1v6.8h-1
			V524.2z"/>
		<path d="M154.9,530.6c-0.3-0.4-0.4-0.9-0.4-1.6V525h-1v-0.8l1.1-0.1l0.1-1.9h0.9v1.9h1.9v0.8h-1.9v3.9c0,0.4,0.1,0.8,0.2,1
			c0.2,0.2,0.4,0.3,0.8,0.3c0.2,0,0.5-0.1,0.8-0.2l0.2,0.8c-0.5,0.2-0.9,0.3-1.2,0.3C155.7,531.2,155.2,531,154.9,530.6z"/>
		<path d="M158.2,533.8l0.2-0.8c0.2,0.1,0.4,0.1,0.5,0.1c0.4,0,0.7-0.1,1-0.4c0.3-0.3,0.5-0.7,0.6-1.1l0.2-0.5l-2.7-6.8h1l1.5,3.9
			l0.7,1.9h0.1c0.1-0.4,0.3-0.8,0.4-1.3l0.2-0.6l1.3-3.9h1l-2.6,7.4c-0.3,0.7-0.6,1.3-1,1.7s-0.9,0.6-1.5,0.6
			C158.7,534,158.4,533.9,158.2,533.8z"/>
		<path d="M168.3,521.8h2.5c1.1,0,1.9,0.2,2.5,0.6c0.6,0.4,0.9,1.1,0.9,2.1c0,0.9-0.3,1.6-0.9,2.1c-0.6,0.5-1.4,0.7-2.5,0.7h-1.6
			v3.7h-1V521.8z M170.7,526.4c0.8,0,1.5-0.2,1.9-0.5s0.6-0.8,0.6-1.5c0-0.7-0.2-1.1-0.6-1.4c-0.4-0.3-1.1-0.4-1.9-0.4h-1.4v3.8
			H170.7z"/>
		<path d="M176.3,530.8c-0.2-0.2-0.3-0.6-0.3-1.1V521h1v8.8c0,0.2,0,0.3,0.1,0.4c0.1,0.1,0.1,0.1,0.2,0.1c0.1,0,0.2,0,0.3,0l0.1,0.8
			c-0.2,0.1-0.4,0.1-0.6,0.1C176.8,531.2,176.5,531,176.3,530.8z"/>
		<path d="M179.9,530.5c-0.3-0.4-0.5-1.1-0.5-2v-4.3h1v4.2c0,0.7,0.1,1.1,0.3,1.4s0.6,0.5,1,0.5c0.3,0,0.7-0.1,0.9-0.3
			s0.6-0.5,1-0.9v-4.9h1v6.8h-0.9l-0.1-1.1h0c-0.3,0.4-0.7,0.7-1.1,0.9c-0.4,0.2-0.8,0.3-1.2,0.3
			C180.8,531.2,180.3,530.9,179.9,530.5z"/>
		<path d="M187.3,533.7c-0.5-0.3-0.8-0.8-0.8-1.3c0-0.3,0.1-0.6,0.3-0.8c0.2-0.3,0.4-0.5,0.7-0.7v-0.1c-0.2-0.1-0.3-0.3-0.4-0.4
			c-0.1-0.2-0.2-0.4-0.2-0.7c0-0.3,0.1-0.5,0.2-0.7c0.1-0.2,0.3-0.4,0.5-0.5v-0.1c-0.2-0.2-0.4-0.5-0.6-0.8c-0.2-0.3-0.3-0.7-0.3-1
			c0-0.5,0.1-0.9,0.3-1.3c0.2-0.4,0.5-0.7,0.9-0.9c0.4-0.2,0.8-0.3,1.3-0.3c0.3,0,0.6,0.1,0.9,0.2h2.4v0.8h-1.4
			c0.2,0.2,0.3,0.4,0.4,0.6c0.1,0.3,0.2,0.5,0.2,0.8c0,0.5-0.1,0.9-0.3,1.2c-0.2,0.4-0.5,0.6-0.9,0.8c-0.4,0.2-0.8,0.3-1.2,0.3
			c-0.4,0-0.7-0.1-1-0.2c-0.1,0.1-0.3,0.2-0.3,0.4c-0.1,0.1-0.1,0.3-0.1,0.5c0,0.2,0.1,0.4,0.3,0.6c0.2,0.1,0.5,0.2,0.9,0.2h1.4
			c0.8,0,1.4,0.1,1.8,0.4c0.4,0.3,0.6,0.7,0.6,1.2c0,0.4-0.1,0.8-0.4,1.2c-0.3,0.4-0.7,0.6-1.2,0.9c-0.5,0.2-1.1,0.3-1.8,0.3
			C188.5,534.2,187.8,534,187.3,533.7z M190.7,533.2c0.3-0.1,0.6-0.3,0.8-0.5c0.2-0.2,0.3-0.5,0.3-0.7c0-0.3-0.1-0.5-0.4-0.7
			c-0.2-0.1-0.6-0.2-1.1-0.2h-1.2c-0.3,0-0.6,0-0.9-0.1c-0.5,0.3-0.7,0.8-0.7,1.2c0,0.4,0.2,0.7,0.5,0.9c0.4,0.2,0.9,0.3,1.5,0.3
			C189.9,533.4,190.3,533.4,190.7,533.2z M190.4,527.7c0.3-0.3,0.4-0.7,0.4-1.2c0-0.5-0.1-0.9-0.4-1.2c-0.3-0.3-0.6-0.5-1.1-0.5
			c-0.4,0-0.8,0.2-1.1,0.5c-0.3,0.3-0.4,0.7-0.4,1.2c0,0.5,0.1,0.9,0.4,1.2c0.3,0.3,0.7,0.5,1.1,0.5
			C189.7,528.1,190.1,528,190.4,527.7z"/>
		<path d="M194.1,522.6c-0.1-0.1-0.2-0.3-0.2-0.5c0-0.2,0.1-0.4,0.2-0.5c0.1-0.1,0.3-0.2,0.5-0.2c0.2,0,0.4,0.1,0.5,0.2
			s0.2,0.3,0.2,0.5c0,0.2-0.1,0.4-0.2,0.5c-0.1,0.1-0.3,0.2-0.5,0.2C194.4,522.8,194.2,522.7,194.1,522.6z M194.1,524.2h1v6.8h-1
			V524.2z"/>
		<path d="M197.5,524.2h0.8l0.1,1h0c0.4-0.4,0.7-0.7,1.1-0.9c0.4-0.2,0.8-0.3,1.2-0.3c0.7,0,1.2,0.2,1.6,0.7s0.5,1.1,0.5,2v4.3h-1
			v-4.2c0-0.7-0.1-1.1-0.3-1.4c-0.2-0.3-0.6-0.4-1-0.4c-0.3,0-0.6,0.1-0.9,0.3c-0.3,0.2-0.6,0.5-1,0.8v5h-1V524.2z"/>
	</g>
	<g>
		<g>
			<path fill="#FFFFFF" d="M25.9,41.2c9.5,0,17.2-7.7,17.2-17.2c0-9.5-7.7-17.2-17.2-17.2S8.6,14.5,8.6,24
				C8.6,33.5,16.5,41.2,25.9,41.2z M25.9,8.6c8.5,0,15.4,6.9,15.4,15.4c0,8.5-6.9,15.4-15.4,15.4c-8.5,0-15.4-6.9-15.4-15.4
				C10.4,15.5,17.4,8.6,25.9,8.6z"/>
		</g>
		<g>
			<circle fill="#FFFFFF" cx="25.9" cy="14.1" r="2.6"/>
			<path fill="#FFFFFF" d="M17.1,22.7l4.8-4.4c0.4-0.4,1.2-0.8,1.8-0.8h1.9h0.8h1.9c0.6,0,1.3,0.4,1.8,0.8l4.8,4.4
				c0.4,0.4,0.5,1,0.1,1.5c-0.4,0.5-0.9,0.5-1.4,0.1l-3.6-3c-0.5-0.4-0.9-0.5-1-0.4c-0.3,0.1-0.3,0.8-0.3,1.3c0,0,0.8,8.1,1.3,12.4
				l0,0l0,0c0,0.1,0,0.3,0,0.4c0,0.5,0,1.4-0.9,1.4h-1c-0.6,0-1-0.5-1-0.9l-0.4-6.3c0-0.4-0.3-0.8-0.6-0.9c-0.4,0.1-0.6,0.5-0.6,0.9
				L25,35.6c0,0.6-0.5,0.9-1,0.9h-1c-0.9,0-0.9-0.9-0.9-1.4c0-0.1,0-0.3,0-0.4l0,0l0,0c0.8-4.2,1.3-12.4,1.3-12.4
				c0-0.6-0.1-1.2-0.3-1.3c-0.3-0.1-0.8,0-1,0.4l-3.6,3c-0.5,0.4-1,0.3-1.4-0.1C16.6,23.6,16.7,23.1,17.1,22.7z"/>
		</g>
	</g>
	<g>
		<rect x="0" y="98.1" fill="#E6E9EC" width="294" height="1"/>
	</g>
	<g>
		<rect x="0" y="149.1" fill="#E6E9EC" width="294" height="1"/>
	</g>
	<g>
		<rect x="0" y="200.1" fill="#E6E9EC" width="294" height="1"/>
	</g>
	<g>
		<rect x="0" y="251" fill="#E6E9EC" width="294" height="1"/>
	</g>
	<g>
		<rect x="0" y="302" fill="#E6E9EC" width="294" height="1"/>
	</g>
	<g>
		<rect x="0" y="352.9" fill="#E6E9EC" width="294" height="1"/>
	</g>
	<g>
		<rect x="0" y="403.9" fill="#E6E9EC" width="294" height="1"/>
	</g>
	<g>
		<rect x="0" y="454.9" fill="#E6E9EC" width="294" height="1"/>
	</g>
	<g>
		<circle fill="#DC143C" cx="262.4" cy="73" r="17.6"/>
		<g>
			<path fill="#FFFFFF" d="M259.2,75.7H255l-0.9,3.3h-2.8l4.2-13.2h3.3L263,79h-2.9L259.2,75.7z M258.6,73.6l-0.4-1.4
				c-0.2-0.6-0.4-1.5-0.7-2.8l-0.4-1.5h-0.1c-0.4,1.7-0.8,3.2-1.1,4.3l-0.4,1.4H258.6z"/>
			<path fill="#FFFFFF" d="M267.2,73.3h-3.6v-2h3.6v-3.8h2v3.8h3.6v2h-3.6v3.8h-2V73.3z"/>
		</g>
	</g>
	<g>
		<circle fill="#DC143C" cx="262.4" cy="124.1" r="17.6"/>
		<g>
			<path fill="#FFFFFF" d="M259.2,126.8H255l-0.9,3.3h-2.8l4.2-13.2h3.3l4.2,13.2h-2.9L259.2,126.8z M258.6,124.7l-0.4-1.4
				c-0.2-0.6-0.4-1.5-0.7-2.8l-0.4-1.5h-0.1c-0.4,1.7-0.8,3.2-1.1,4.3l-0.4,1.4H258.6z"/>
			<path fill="#FFFFFF" d="M266.6,124h4.9v2h-4.9V124z"/>
		</g>
	</g>
	<g>
		<circle fill="#DC143C" cx="262.4" cy="175.1" r="17.6"/>
		<g>
			<path fill="#FFFFFF" d="M264.4,177.9h-4.1l-0.9,3.3h-2.8l4.2-13.2h3.3l4.2,13.2h-2.9L264.4,177.9z M263.9,175.7l-0.4-1.4
				c-0.2-0.6-0.4-1.5-0.7-2.8l-0.4-1.5h-0.1c-0.4,1.7-0.8,3.2-1.1,4.3l-0.4,1.4H263.9z"/>
		</g>
	</g>
	<g>
		<circle cx="262.4" cy="226.2" r="17.6"/>
	</g>
	<g>
		<g>
			<circle fill="#FFFFFF" cx="262.4" cy="277.2" r="17.6"/>
			<path fill="#91969B" d="M262.4,295.3c-10,0-18.1-8.1-18.1-18.1s8.1-18.1,18.1-18.1c10,0,18.1,8.1,18.1,18.1
				S272.4,295.3,262.4,295.3z M262.4,260.1c-9.4,0-17.1,7.7-17.1,17.1s7.7,17.1,17.1,17.1c9.4,0,17.1-7.7,17.1-17.1
				S271.8,260.1,262.4,260.1z"/>
		</g>
	</g>
	<g>
		<circle fill="#006400" cx="262.4" cy="379.3" r="17.6"/>
		<g>
			<path fill="#FFFFFF" d="M251.7,383.4c-0.4-0.4-0.6-1-0.6-1.6c0-0.8,0.3-1.4,1-1.9c0.7-0.4,1.8-0.8,3.3-0.9c0-0.8-0.5-1.2-1.3-1.2
				c-0.3,0-0.6,0.1-1,0.2c-0.3,0.1-0.7,0.3-1.1,0.5l-0.8-1.4c1.1-0.7,2.1-1,3.2-1c1,0,1.7,0.3,2.2,0.9c0.5,0.6,0.8,1.4,0.8,2.5v4.4
				h-1.7l-0.2-0.8h0c-0.8,0.7-1.5,1-2.3,1C252.7,384.1,252.1,383.9,251.7,383.4z M254.7,382.3c0.2-0.1,0.4-0.3,0.7-0.5v-1.5
				c-0.8,0.1-1.4,0.3-1.8,0.5c-0.4,0.2-0.5,0.5-0.5,0.8c0,0.3,0.1,0.5,0.2,0.6c0.2,0.1,0.4,0.2,0.7,0.2
				C254.3,382.5,254.5,382.4,254.7,382.3z"/>
			<path fill="#FFFFFF" d="M262.4,383.8c-0.3-0.2-0.7-0.4-1-0.7h-0.1l-0.2,0.8h-1.6v-10.8h2.1v2.7l0,1.2c0.3-0.3,0.6-0.5,1-0.6
				c0.4-0.2,0.7-0.2,1.1-0.2c0.9,0,1.7,0.3,2.2,1c0.5,0.7,0.8,1.6,0.8,2.8c0,0.8-0.1,1.6-0.4,2.2c-0.3,0.6-0.7,1.1-1.2,1.4
				c-0.5,0.3-1,0.5-1.6,0.5C263.1,384.1,262.7,384,262.4,383.8z M264,381.8c0.3-0.4,0.4-1,0.4-1.8c0-1.4-0.5-2.2-1.4-2.2
				c-0.5,0-0.9,0.2-1.4,0.7v3.3c0.4,0.4,0.8,0.5,1.3,0.5C263.4,382.4,263.7,382.2,264,381.8z"/>
			<path fill="#FFFFFF" d="M269.6,383.6c-0.6-0.3-1-0.8-1.3-1.4c-0.3-0.6-0.5-1.3-0.5-2.1c0-0.8,0.2-1.5,0.5-2.1
				c0.4-0.6,0.8-1.1,1.4-1.4c0.6-0.3,1.2-0.5,2-0.5c0.8,0,1.6,0.3,2.2,0.8l-1,1.4c-0.2-0.2-0.4-0.3-0.6-0.4
				c-0.2-0.1-0.4-0.1-0.6-0.1c-0.6,0-1,0.2-1.4,0.6c-0.3,0.4-0.5,1-0.5,1.7c0,0.7,0.2,1.2,0.5,1.7s0.8,0.6,1.3,0.6
				c0.5,0,0.9-0.2,1.4-0.6l0.8,1.4c-0.4,0.3-0.8,0.5-1.2,0.7c-0.4,0.2-0.9,0.2-1.3,0.2C270.8,384.1,270.2,383.9,269.6,383.6z"/>
		</g>
	</g>
	<g>
		<g>
			<circle fill="#FFFFFF" cx="262.4" cy="328.3" r="17.6"/>
			<path fill="#91969B" d="M262.4,346.3c-10,0-18.1-8.1-18.1-18.1s8.1-18.1,18.1-18.1c10,0,18.1,8.1,18.1,18.1
				S272.4,346.3,262.4,346.3z M262.4,311.2c-9.4,0-17.1,7.7-17.1,17.1s7.7,17.1,17.1,17.1c9.4,0,17.1-7.7,17.1-17.1
				S271.8,311.2,262.4,311.2z"/>
		</g>
		<path d="M262.4,310.7v35.2c9.7,0,17.6-7.9,17.6-17.6C280,318.5,272.1,310.7,262.4,310.7z"/>
	</g>
	<g>
		<circle fill="#006400" cx="262.4" cy="430.4" r="17.6"/>
		<g>
			<path fill="#FFFFFF" d="M264.4,431.2h-4.1l-0.9,3.3h-2.8l4.2-13.2h3.3l4.2,13.2h-2.9L264.4,431.2z M263.9,429.1l-0.4-1.4
				c-0.2-0.6-0.4-1.5-0.7-2.8l-0.4-1.5h-0.1c-0.4,1.7-0.8,3.2-1.1,4.3l-0.4,1.4H263.9z"/>
		</g>
		<g>
			<rect x="256.2" y="436.9" fill="#FFFFFF" width="12.5" height="1.4"/>
		</g>
	</g>
	<g>
		<g>
			<path fill="#FFFFFF" d="M262.4,496.5c-8.3,0-15.1-6.8-15.1-15.1s6.8-15.1,15.1-15.1c8.3,0,15.1,6.8,15.1,15.1
				S270.7,496.5,262.4,496.5z"/>
			<path fill="#0B8CF7" d="M262.4,468.8c6.9,0,12.6,5.6,12.6,12.6s-5.6,12.6-12.6,12.6c-6.9,0-12.6-5.6-12.6-12.6
				S255.5,468.8,262.4,468.8 M262.4,463.8c-9.7,0-17.6,7.9-17.6,17.6c0,9.7,7.9,17.6,17.6,17.6c9.7,0,17.6-7.9,17.6-17.6
				C280,471.7,272.1,463.8,262.4,463.8L262.4,463.8z"/>
		</g>
		<circle fill="#0B8CF7" cx="262.4" cy="481.4" r="2.1"/>
	</g>
</g>
</svg>
