<?xml version="1.0" encoding="utf-8"?>
<!-- Generator: Adobe Illustrator 18.1.0, SVG Export Plug-In . SVG Version: 6.00 Build 0)  -->
<svg version="1.1" id="Layer_1" xmlns="http://www.w3.org/2000/svg" xmlns:xlink="http://www.w3.org/1999/xlink" x="0px" y="0px"
	 width="83px" height="77px" viewBox="0 0 83 77" enable-background="new 0 0 83 77" xml:space="preserve">
<g>
	<g>
		<path fill="#D44A69" d="M7.7,76.7c-4.2,0-7.6-3.4-7.6-7.6v-2.3c0-0.6,0.5-1,1-1h1.8v-21c0-0.6,0.5-1,1-1s1,0.5,1,1v21h73.1V23.4
			c0-2.9-2.1-5.2-5-5.5l-0.7-0.1v34.8c0,3.5-2.8,6.3-6.3,6.3H16.9c-3.5,0-6.3-2.8-6.3-6.3V17.8l-0.7,0.1c-2.8,0.3-5,2.6-5,5.5v7.9
			c0,0.6-0.5,1-1,1s-1-0.5-1-1v-7.9c0-4,3.1-7.4,7.2-7.6l0.6,0V6.6c0-3.5,2.8-6.3,6.3-6.3h49.3c3.5,0,6.3,2.8,6.3,6.3v9.1l0.6,0
			c4,0.2,7.2,3.6,7.2,7.6v42.3h1.8c0.6,0,1,0.5,1,1v2.3c0,4.2-3.4,7.6-7.6,7.6H7.7z M2.1,69.1c0,3,2.5,5.5,5.5,5.5h67.7
			c3,0,5.5-2.5,5.5-5.5v-1.3h-1.7c0,0,0,0-0.1,0H3.9c0,0,0,0,0,0l-1.7,0V69.1z M12.6,52.6c0,2.3,1.9,4.2,4.2,4.2h49.3
			c2.3,0,4.2-1.9,4.2-4.2V14.2H12.6V52.6z M16.9,2.4c-2.3,0-4.2,1.9-4.2,4.2v5.5h57.7V6.6c0-2.3-1.9-4.2-4.2-4.2H16.9z"/>
		<path fill="#D44A69" d="M38.5,72.2c-0.6,0-1-0.5-1-1s0.5-1,1-1h5.9c0.6,0,1,0.5,1,1s-0.5,1-1,1H38.5z"/>
		<path fill="#D44A69" d="M3.9,38.8c-0.3,0-0.5-0.1-0.7-0.3C3,38.3,2.8,38,2.8,37.8c0-0.3,0.1-0.5,0.3-0.7c0.2-0.2,0.5-0.3,0.7-0.3
			s0.5,0.1,0.7,0.3c0.2,0.2,0.3,0.5,0.3,0.7c0,0.3-0.1,0.5-0.3,0.7C4.4,38.7,4.2,38.8,3.9,38.8z"/>
		<path fill="#D44A69" d="M37.4,8.3c-0.6,0-1-0.5-1-1s0.5-1,1-1h27.5c0.6,0,1,0.5,1,1s-0.5,1-1,1H37.4z"/>
		<path fill="#D44A69" d="M23,8.3c-0.3,0-0.5-0.1-0.7-0.3C22.1,7.8,22,7.6,22,7.3c0-0.3,0.1-0.5,0.3-0.7c0.2-0.2,0.5-0.3,0.7-0.3
			c0.3,0,0.5,0.1,0.7,0.3C24,6.7,24.1,7,24.1,7.3c0,0.3-0.1,0.5-0.3,0.7C23.6,8.2,23.3,8.3,23,8.3z"/>
		<path fill="#D44A69" d="M18.2,8.3c-0.3,0-0.5-0.1-0.7-0.3c-0.2-0.2-0.3-0.5-0.3-0.7c0-0.3,0.1-0.5,0.3-0.7
			c0.2-0.2,0.5-0.3,0.7-0.3c0.3,0,0.5,0.1,0.7,0.3c0.2,0.2,0.3,0.5,0.3,0.7c0,0.3-0.1,0.5-0.3,0.7C18.7,8.2,18.4,8.3,18.2,8.3z"/>
		<path fill="#D44A69" d="M27.9,8.3c-0.3,0-0.5-0.1-0.7-0.3c-0.2-0.2-0.3-0.5-0.3-0.7c0-0.3,0.1-0.5,0.3-0.7
			c0.2-0.2,0.5-0.3,0.7-0.3c0.3,0,0.5,0.1,0.7,0.3c0.2,0.2,0.3,0.5,0.3,0.7c0,0.3-0.1,0.5-0.3,0.7C28.4,8.2,28.2,8.3,27.9,8.3z"/>
		<path fill="#D44A69" d="M31.5,33.9c-0.3,0-0.5-0.1-0.7-0.3l-5.5-5.5c-0.4-0.4-0.4-1.1,0-1.5l5.5-5.5c0.2-0.2,0.5-0.3,0.7-0.3
			c0.3,0,0.5,0.1,0.7,0.3c0.4,0.4,0.4,1.1,0,1.5l-4.8,4.8l4.8,4.8c0.4,0.4,0.4,1.1,0,1.5C32.1,33.8,31.8,33.9,31.5,33.9z"/>
		<path fill="#D44A69" d="M51.5,33.9c-0.3,0-0.5-0.1-0.7-0.3c-0.2-0.2-0.3-0.5-0.3-0.7c0-0.3,0.1-0.5,0.3-0.7l4.8-4.8l-4.8-4.8
			c-0.2-0.2-0.3-0.5-0.3-0.7c0-0.3,0.1-0.5,0.3-0.7c0.2-0.2,0.5-0.3,0.7-0.3c0.3,0,0.5,0.1,0.7,0.3l5.5,5.5c0.4,0.4,0.4,1.1,0,1.5
			l-5.5,5.5C52,33.8,51.8,33.9,51.5,33.9z"/>
		<path fill="#D44A69" d="M37.6,35c-0.2,0-0.4,0-0.5-0.1c-0.5-0.3-0.7-0.9-0.4-1.4l7.8-13.3c0.2-0.3,0.5-0.5,0.9-0.5
			c0.2,0,0.4,0,0.5,0.1c0.2,0.1,0.4,0.4,0.5,0.6c0.1,0.3,0,0.5-0.1,0.8l-7.8,13.3C38.3,34.8,38,35,37.6,35z"/>
		<path fill="#D44A69" d="M34.3,42.8c-0.6,0-1-0.5-1-1s0.5-1,1-1h27.3c0.6,0,1,0.5,1,1s-0.5,1-1,1H34.3z"/>
		<path fill="#D44A69" d="M19.8,42.8c-0.6,0-1-0.5-1-1s0.5-1,1-1h8c0.6,0,1,0.5,1,1s-0.5,1-1,1H19.8z"/>
		<path fill="#D44A69" d="M19.8,50.7c-0.6,0-1-0.5-1-1s0.5-1,1-1h35.5c0.6,0,1,0.5,1,1s-0.5,1-1,1H19.8z"/>
		<path fill="#D44A69" d="M61.6,50.7c-0.3,0-0.5-0.1-0.7-0.3c-0.2-0.2-0.3-0.5-0.3-0.7c0-0.3,0.1-0.5,0.3-0.7
			c0.2-0.2,0.5-0.3,0.7-0.3s0.5,0.1,0.7,0.3c0.2,0.2,0.3,0.5,0.3,0.7c0,0.3-0.1,0.5-0.3,0.7C62.2,50.6,61.9,50.7,61.6,50.7z"/>
	</g>
</g>
</svg>
