<?xml version="1.0" encoding="utf-8"?>
<!-- Generator: Adobe Illustrator 18.1.0, SVG Export Plug-In . SVG Version: 6.00 Build 0)  -->
<svg version="1.1" id="Layer_1" xmlns="http://www.w3.org/2000/svg" xmlns:xlink="http://www.w3.org/1999/xlink" x="0px" y="0px"
	 width="83px" height="77px" viewBox="0 0 83 77" enable-background="new 0 0 83 77" xml:space="preserve">
<g>
	<g>
		<path fill="#3A8FCD" d="M41.7,54c-0.6,0-1-0.5-1-1s0.5-1,1-1c0.6,0,1,0.5,1,1S42.2,54,41.7,54L41.7,54z"/>
		<path fill="#3A8FCD" d="M7.6,47.4c-0.3,0-0.5-0.1-0.7-0.3c-0.2-0.2-0.3-0.5-0.3-0.7c0-0.3,0.1-0.5,0.3-0.7
			c0.2-0.2,0.5-0.3,0.7-0.3c0.3,0,0.5,0.1,0.7,0.3c0.2,0.2,0.3,0.5,0.3,0.7c0,0.3-0.1,0.5-0.3,0.7C8.1,47.3,7.9,47.4,7.6,47.4z"/>
		<path fill="#3A8FCD" d="M25.1,76.7c-0.6,0-1-0.5-1-1v-1.3c0-3.5,2.8-6.3,6.3-6.3h2.9v-7.4H7.7C3.5,60.6,0,57.2,0,53V6.6
			c0-3.5,2.8-6.3,6.3-6.3h70.3c3.5,0,6.3,2.8,6.3,6.3V53c0,4.2-3.4,7.6-7.6,7.6H49.8V68h2.9c3.5,0,6.3,2.8,6.3,6.3v1.3
			c0,0.6-0.5,1-1,1H25.1z M30.3,70.1c-2.2,0-4,1.7-4.2,3.8l-0.1,0.7h30.9l-0.1-0.7c-0.2-2.1-2-3.8-4.2-3.8H30.3z M35.3,68h12.4v-7.4
			H35.3V68z M6.3,2.4C4,2.4,2.1,4.3,2.1,6.6V53c0,3,2.5,5.5,5.5,5.5h67.7c3,0,5.5-2.5,5.5-5.5v-5.5h-67c-0.6,0-1-0.5-1-1s0.5-1,1-1
			h67V6.6c0-2.3-1.9-4.2-4.2-4.2H6.3z"/>
		<path fill="#3A8FCD" d="M14.9,37.6c-2.2,0-3.9-1.8-3.9-3.9v-6.8l-1.7-1.7c-0.4-0.4-0.4-1.1,0-1.5l1.7-1.7v-6.8
			c0-2.2,1.8-3.9,3.9-3.9c0.6,0,1,0.5,1,1s-0.5,1-1,1c-1,0-1.9,0.8-1.9,1.9v7.2c0,0.3-0.1,0.5-0.3,0.7l-1.3,1.3l1.3,1.3
			c0.2,0.2,0.3,0.5,0.3,0.7v7.2c0,1,0.8,1.9,1.9,1.9c0.6,0,1,0.5,1,1S15.5,37.6,14.9,37.6L14.9,37.6z"/>
		<path fill="#3A8FCD" d="M68.1,37.6c-0.6,0-1-0.5-1-1s0.5-1,1-1c1,0,1.9-0.8,1.9-1.9v-7.2c0-0.3,0.1-0.5,0.3-0.7l1.3-1.3L70.2,23
			c-0.2-0.2-0.3-0.5-0.3-0.7v-7.2c0-1-0.8-1.9-1.9-1.9c-0.6,0-1-0.5-1-1s0.5-1,1-1c2.2,0,3.9,1.8,3.9,3.9v6.8l1.7,1.7
			c0.4,0.4,0.4,1.1,0,1.5L72,26.8v6.8C72,35.8,70.3,37.6,68.1,37.6z"/>
		<path fill="#3A8FCD" d="M22.6,21.8c-0.6,0-1-0.5-1-1c0-0.6,0.5-1,1-1H47c0.6,0,1,0.5,1,1c0,0.6-0.5,1-1,1H22.6z"/>
		<path fill="#3A8FCD" d="M54.1,21.8c-0.6,0-1-0.5-1-1c0-0.6,0.5-1,1-1h7c0.6,0,1,0.5,1,1c0,0.6-0.5,1-1,1H54.1z"/>
		<path fill="#3A8FCD" d="M56.3,37.6c-0.6,0-1-0.5-1-1c0-0.6,0.5-1,1-1H61c0.6,0,1,0.5,1,1c0,0.6-0.5,1-1,1H56.3z"/>
		<path fill="#3A8FCD" d="M22.6,37.6c-0.6,0-1-0.5-1-1s0.5-1,1-1h27.1c0.6,0,1,0.5,1,1s-0.5,1-1,1H22.6z"/>
		<path fill="#3A8FCD" d="M22.6,29.7c-0.6,0-1-0.5-1-1c0-0.6,0.5-1,1-1h7.2c0.6,0,1,0.5,1,1c0,0.6-0.5,1-1,1H22.6z"/>
		<path fill="#3A8FCD" d="M61,29.7c-0.3,0-0.5-0.1-0.7-0.3c-0.2-0.2-0.3-0.5-0.3-0.7c0-0.3,0.1-0.5,0.3-0.7c0.2-0.2,0.5-0.3,0.7-0.3
			c0.3,0,0.5,0.1,0.7,0.3c0.2,0.2,0.3,0.5,0.3,0.7c0,0.3-0.1,0.5-0.3,0.7C61.6,29.6,61.3,29.7,61,29.7z"/>
		<path fill="#3A8FCD" d="M37.1,29.7c-0.6,0-1-0.5-1-1c0-0.6,0.5-1,1-1h18.4c0.6,0,1,0.5,1,1c0,0.6-0.5,1-1,1H37.1z"/>
		<path fill="#3A8FCD" d="M22.6,13.9c-0.6,0-1-0.5-1-1s0.5-1,1-1h14.5c0.6,0,1,0.5,1,1s-0.5,1-1,1H22.6z"/>
		<path fill="#3A8FCD" d="M45.9,13.9c-0.6,0-1-0.5-1-1s0.5-1,1-1H61c0.6,0,1,0.5,1,1s-0.5,1-1,1H45.9z"/>
	</g>
</g>
</svg>
