<?xml version="1.0" encoding="utf-8"?>
<!-- Generator: Adobe Illustrator 18.1.0, SVG Export Plug-In . SVG Version: 6.00 Build 0)  -->
<svg version="1.1" id="Layer_1" xmlns="http://www.w3.org/2000/svg" xmlns:xlink="http://www.w3.org/1999/xlink" x="0px" y="0px"
	 width="83px" height="77px" viewBox="0 0 83 77" enable-background="new 0 0 83 77" xml:space="preserve">
<g>
	<g>
		<path fill="#7DC147" d="M41.7,54c-0.6,0-1-0.5-1-1c0-0.6,0.5-1,1-1c0.6,0,1,0.5,1,1C42.7,53.5,42.2,54,41.7,54L41.7,54z"/>
		<path fill="#7DC147" d="M15.2,20.5c-0.6,0-1-0.5-1-1c0-0.6,0.5-1,1-1h22.9c0.6,0,1,0.5,1,1c0,0.6-0.5,1-1,1H15.2z"/>
		<path fill="#7DC147" d="M46.1,20.5c-0.6,0-1-0.5-1-1c0-0.6,0.5-1,1-1h21.7c0.6,0,1,0.5,1,1c0,0.6-0.5,1-1,1H46.1z"/>
		<path fill="#7DC147" d="M15.2,12.6c-0.6,0-1-0.5-1-1s0.5-1,1-1h37.5c0.6,0,1,0.5,1,1s-0.5,1-1,1H15.2z"/>
		<path fill="#7DC147" d="M61.2,12.6c-0.6,0-1-0.5-1-1s0.5-1,1-1h6.6c0.6,0,1,0.5,1,1s-0.5,1-1,1H61.2z"/>
		<path fill="#7DC147" d="M37.1,36.3c-0.6,0-1-0.5-1-1s0.5-1,1-1h6.6c0.6,0,1,0.5,1,1s-0.5,1-1,1H37.1z"/>
		<path fill="#7DC147" d="M15.2,36.3c-0.6,0-1-0.5-1-1c0-0.6,0.5-1,1-1H28c0.6,0,1,0.5,1,1c0,0.6-0.5,1-1,1H15.2z"/>
		<path fill="#7DC147" d="M15.2,28.4c-0.6,0-1-0.5-1-1c0-0.6,0.5-1,1-1h13.4c0.6,0,1,0.5,1,1c0,0.6-0.5,1-1,1H15.2z"/>
		<path fill="#7DC147" d="M34.9,28.4c-0.3,0-0.5-0.1-0.7-0.3c-0.2-0.2-0.3-0.5-0.3-0.7c0-0.3,0.1-0.5,0.3-0.7
			c0.2-0.2,0.5-0.3,0.7-0.3c0.3,0,0.5,0.1,0.7,0.3c0.2,0.2,0.3,0.5,0.3,0.7c0,0.3-0.1,0.5-0.3,0.7C35.5,28.3,35.2,28.4,34.9,28.4z"
			/>
		<path fill="#7DC147" d="M76.7,0.3H6.3C2.9,0.3,0,3.2,0,6.6V53c0,4.2,3.4,7.6,7.6,7.6h25.6V68h-2.9c-3.5,0-6.3,2.8-6.3,6.3v1.3
			c0,0.6,0.5,1,1,1h28.4c0,0,0.1,0,0.1,0l0,0l0,0c0.5,0,23.2,0,23.4,0c3.2,0,5.9-2.6,5.9-5.9V6.6C83,3.2,80.1,0.3,76.7,0.3z
			 M7.7,58.5c-3,0-5.5-2.5-5.5-5.5v-5.5H48v11.1H7.7z M48,60.6V68H35.3v-7.4H48z M26.1,74.6l0.1-0.7c0.2-2.1,2-3.8,4.2-3.8H48v0.7
			c0,1,0.3,2,0.8,2.9l0.5,0.9H26.1z M80.9,34.2v2.1v29.4v2.1v3c0,2.1-1.7,3.8-3.8,3.8H53.9c-2.1,0-3.8-1.7-3.8-3.8v-2.4v-0.6v-2.1
			V36.3v-2.1v-3.7c0-2.1,1.7-3.8,3.8-3.8h23.2c2.1,0,3.8,1.7,3.8,3.8V34.2z M80.9,25.9L80,25.4c-0.9-0.5-1.9-0.8-2.9-0.8H53.9
			c-1.4,0-2.8,0.5-3.9,1.5l-0.2,0.2h-9.1c-0.6,0-1,0.5-1,1c0,0.6,0.5,1,1,1h7.6l-0.2,0.7c-0.1,0.5-0.2,0.9-0.2,1.4v14.8H2.1V6.6
			c0-2.3,1.9-4.2,4.2-4.2h70.3c2.3,0,4.2,1.9,4.2,4.2V25.9z"/>
		<g>
			<path fill="#7DC147" d="M55.4,35.9c-0.6,0-1-0.5-1-1c0-0.6,0.5-1,1-1H62c0.6,0,1,0.5,1,1c0,0.6-0.5,1-1,1H55.4z"/>
			<path fill="#7DC147" d="M68.8,35.9c-0.6,0-1-0.5-1-1c0-0.6,0.5-1,1-1h6.6c0.6,0,1,0.5,1,1c0,0.6-0.5,1-1,1H68.8z"/>
		</g>
		<g>
			<path fill="#7DC147" d="M55.4,42.3c-0.6,0-1-0.5-1-1c0-0.6,0.5-1,1-1H62c0.6,0,1,0.5,1,1c0,0.6-0.5,1-1,1H55.4z"/>
			<path fill="#7DC147" d="M68.8,42.3c-0.6,0-1-0.5-1-1c0-0.6,0.5-1,1-1h6.6c0.6,0,1,0.5,1,1c0,0.6-0.5,1-1,1H68.8z"/>
		</g>
		<g>
			<path fill="#7DC147" d="M55.4,48.6c-0.6,0-1-0.5-1-1s0.5-1,1-1H62c0.6,0,1,0.5,1,1s-0.5,1-1,1H55.4z"/>
			<path fill="#7DC147" d="M68.8,48.6c-0.6,0-1-0.5-1-1s0.5-1,1-1h6.6c0.6,0,1,0.5,1,1s-0.5,1-1,1H68.8z"/>
		</g>
		<g>
			<path fill="#7DC147" d="M55.4,55c-0.6,0-1-0.5-1-1s0.5-1,1-1H62c0.6,0,1,0.5,1,1s-0.5,1-1,1H55.4z"/>
			<path fill="#7DC147" d="M68.8,55c-0.6,0-1-0.5-1-1s0.5-1,1-1h6.6c0.6,0,1,0.5,1,1s-0.5,1-1,1H68.8z"/>
		</g>
		<g>
			<path fill="#7DC147" d="M55.4,61.4c-0.6,0-1-0.5-1-1c0-0.6,0.5-1,1-1H62c0.6,0,1,0.5,1,1c0,0.6-0.5,1-1,1H55.4z"/>
			<path fill="#7DC147" d="M68.8,61.4c-0.6,0-1-0.5-1-1c0-0.6,0.5-1,1-1h6.6c0.6,0,1,0.5,1,1c0,0.6-0.5,1-1,1H68.8z"/>
		</g>
		<g>
			<path fill="#7DC147" d="M55.4,67.8c-0.6,0-1-0.5-1-1c0-0.6,0.5-1,1-1H62c0.6,0,1,0.5,1,1c0,0.6-0.5,1-1,1H55.4z"/>
			<path fill="#7DC147" d="M68.8,67.8c-0.6,0-1-0.5-1-1c0-0.6,0.5-1,1-1h6.6c0.6,0,1,0.5,1,1c0,0.6-0.5,1-1,1H68.8z"/>
		</g>
	</g>
</g>
</svg>
