<?xml version="1.0" encoding="utf-8"?>
<!-- Generator: Adobe Illustrator 18.1.0, SVG Export Plug-In . SVG Version: 6.00 Build 0)  -->
<svg version="1.1" id="Layer_1" xmlns="http://www.w3.org/2000/svg" xmlns:xlink="http://www.w3.org/1999/xlink" x="0px" y="0px"
	 width="83px" height="77px" viewBox="0 0 83 77" enable-background="new 0 0 83 77" xml:space="preserve">
<g>
	<g>
		<path fill="#F1B300" d="M15.6,64.5c-0.6,0-1-0.5-1-1s0.5-1,1-1h31.9c0.3,0,0.5,0.1,0.7,0.3c0.2,0.2,0.3,0.5,0.3,0.7
			c0,0.6-0.5,1-1,1H15.6z"/>
		<path fill="#F1B300" d="M31.7,56.6c-0.6,0-1-0.5-1-1c0-0.6,0.5-1,1-1h9.7c0.6,0,1,0.5,1,1c0,0.6-0.5,1-1,1H31.7z"/>
		<path fill="#F1B300" d="M9.9,56.6c-0.6,0-1-0.5-1-1c0-0.6,0.5-1,1-1h14.4c0.6,0,1,0.5,1,1c0,0.6-0.5,1-1,1H9.9z"/>
		<path fill="#F1B300" d="M82.6,68.5L69.3,55.2l2.4-2.4l0,0l0,0l2.4-2.4l6.8,6.8c0.2,0.2,0.5,0.3,0.7,0.3s0.5-0.1,0.7-0.3
			c0.4-0.4,0.4-1.1,0-1.5L75,48.1c-0.2-0.2-0.5-0.3-0.7-0.3s-0.5,0.1-0.7,0.3L71,50.5l-1.8-1.8l0.4-0.4c2.8-3.3,4.4-7.6,4.4-12
			c0-10.3-8.3-18.6-18.6-18.6c-5.1,0-9.9,2-13.4,5.8l-0.2,0.2l-0.3,0c0,0,0,0,0,0H9.9c-0.6,0-1,0.5-1,1v23c0,0.6,0.5,1,1,1h31.6
			l0.2,0.2c3.5,3.8,8.5,6,13.7,6c4.4,0,8.6-1.6,12-4.4l0.4-0.4l1.8,1.8l-2.5,2.5c-0.2,0.2-0.3,0.5-0.3,0.7c0,0.3,0.1,0.5,0.3,0.7
			l7,7v7.3c0,2.3-1.9,4.2-4.2,4.2H6.3c-2.3,0-4.2-1.9-4.2-4.2v-56h0.6c0,0,0,0,0,0h71.4v8c0,0.6,0.5,1,1,1s1-0.5,1-1V6.7
			c0-3.5-2.8-6.3-6.3-6.3H6.3C2.9,0.4,0,3.2,0,6.7v63.6c0,3.5,2.8,6.3,6.3,6.3h63.6c3.5,0,6.3-2.8,6.3-6.3V65l4.9,4.9
			c0.2,0.2,0.5,0.3,0.7,0.3s0.5-0.1,0.7-0.3C83.1,69.6,83.1,68.9,82.6,68.5z M11,46.6V25.8H40l-0.6,0.9c-1.8,2.9-2.7,6.2-2.7,9.7
			c0,0.2,0,0.3,0,0.5c0,0-0.2,2.4,0.8,4.9c0.9,2.4,0.7,2,0.7,2c0.3,0.7,0.7,1.4,1.1,2.1l0.5,0.9H11z M55.4,52.9
			c-9.1,0-16.5-7.4-16.5-16.5c0-0.1,0-0.3,0-0.4c0-1.5,0.4-3.4,0.4-3.4l0.2-0.8c2-7.1,8.6-12,15.9-12c9.1,0,16.5,7.4,16.5,16.5
			S64.5,52.9,55.4,52.9z M2.1,6.7c0-2.3,1.9-4.2,4.2-4.2h63.6c2.3,0,4.2,1.9,4.2,4.2v5.5H2.8l-0.6,0V6.7z"/>
		<g>
			<path fill="#F1B300" d="M55,42.4v-7.1c0-3-1.1-4.4-3.4-4.4c-0.7,0-1.4,0.2-1.9,0.5c-0.6,0.3-1.2,0.8-1.8,1.4h-0.1l-0.2-1.6h-1.9
				v11.2H48v-8c0.6-0.6,1-0.9,1.4-1.2c0.4-0.2,0.9-0.4,1.4-0.4c0.7,0,1.2,0.2,1.5,0.6c0.3,0.4,0.4,1.1,0.4,2.1v6.8H55z"/>
			<path fill="#F1B300" d="M67.4,36.2c0-1.6-0.4-2.9-1.2-3.9c-0.8-1-1.9-1.4-3.4-1.4c-0.9,0-1.7,0.2-2.5,0.7
				c-0.8,0.5-1.4,1.2-1.9,2.1s-0.7,1.9-0.7,3.1c0,1.2,0.2,2.2,0.7,3.1c0.5,0.9,1.1,1.6,2,2c0.8,0.5,1.8,0.7,2.8,0.7
				c1.3,0,2.6-0.4,3.8-1.2L66.1,40c-0.9,0.6-1.8,0.9-2.7,0.9c-1,0-1.8-0.3-2.4-0.9c-0.7-0.6-1.1-1.5-1.2-2.6h7.4
				C67.3,37.1,67.4,36.7,67.4,36.2z M59.9,35.8c0.2-1,0.5-1.8,1.1-2.3c0.6-0.5,1.2-0.8,1.9-0.8c0.8,0,1.4,0.3,1.9,0.8
				c0.4,0.5,0.6,1.3,0.6,2.3H59.9z"/>
			<path fill="#F1B300" d="M42.2,40c0.5-0.9,0.7-1.9,0.7-3.1c0-1.2-0.2-2.3-0.7-3.2c-0.5-0.9-1.1-1.6-1.9-2
				c-0.6-0.3-1.1-0.5-1.8-0.6c-0.1,0.6-0.2,1.2-0.2,1.9c0.6,0.1,1.1,0.5,1.5,1c0.5,0.7,0.8,1.7,0.8,2.9c0,1.2-0.3,2.2-0.8,2.9
				c-0.2,0.3-0.4,0.5-0.7,0.7c0.2,0.6,0.4,1.3,0.6,1.9c0.2-0.1,0.4-0.2,0.5-0.3C41.1,41.5,41.7,40.8,42.2,40z"/>
			<path fill="#F1B300" d="M15.1,30.9v11.6h1.8v-4.4h1.8c1.3,0,2.4-0.3,3.2-0.9s1.2-1.5,1.2-2.8c0-2.3-1.5-3.5-4.4-3.5H15.1z
				 M21.2,34.4c0,0.8-0.2,1.3-0.7,1.7c-0.4,0.4-1.1,0.5-2.1,0.5h-1.6v-4.3h1.5c1,0,1.7,0.2,2.1,0.5C21,33.1,21.2,33.6,21.2,34.4z"/>
			<path fill="#F1B300" d="M34.9,35.7c-0.4,0.7-0.6,1.5-0.6,2.4c0,0.9,0.2,1.7,0.6,2.4c0.4,0.7,0.9,1.2,1.5,1.6
				c0.5,0.3,1,0.5,1.6,0.5c-0.1-0.3-0.2-0.6-0.4-1c-0.1-0.3-0.2-0.5-0.3-0.8c-0.2-0.1-0.4-0.3-0.5-0.5c-0.4-0.6-0.6-1.3-0.6-2.2
				c0-0.9,0.2-1.7,0.6-2.2c0,0,0,0,0,0c0-0.7,0.1-1.4,0.2-2c-0.2,0.1-0.4,0.2-0.6,0.3C35.7,34.5,35.2,35.1,34.9,35.7z"/>
			<path fill="#F1B300" d="M32.3,42.5V37c0-2.3-0.9-3.4-2.7-3.4c-0.5,0-1,0.1-1.5,0.4c-0.4,0.2-0.9,0.6-1.3,1l0.1-1.7v-3.3h-1.8
				v12.6h1.8v-6.2c0.4-0.4,0.8-0.7,1.1-0.9c0.3-0.2,0.7-0.3,1-0.3c0.5,0,0.9,0.2,1.1,0.5c0.2,0.3,0.3,0.9,0.3,1.6v5.2H32.3z"/>
		</g>
	</g>
</g>
</svg>
