<?xml version="1.0" encoding="utf-8"?>
<!-- Generator: Adobe Illustrator 18.1.0, SVG Export Plug-In . SVG Version: 6.00 Build 0)  -->
<svg version="1.1" id="Layer_1" xmlns="http://www.w3.org/2000/svg" xmlns:xlink="http://www.w3.org/1999/xlink" x="0px" y="0px"
	 width="23px" height="23px" viewBox="0 0 23 23" enable-background="new 0 0 23 23" xml:space="preserve">
<g>
	<g>
		<path fill="#C5CBCF" d="M7.9,15.1c0.6,0.6,1.6,0.6,2.2,0l5-5c0.6-0.6,0.6-1.6,0-2.2c-0.6-0.6-1.6-0.6-2.2,0l-5,5
			C7.3,13.5,7.3,14.5,7.9,15.1z"/>
		<g>
			<path fill="#C5CBCF" d="M22.5,6.1l-5.6-5.6c-0.6-0.6-1.4-0.6-2,0L9.6,5.8c-0.6,0.6-0.6,1.4,0,2c0.6,0.6,1.4,0.6,2,0l4.2-4.2
				l3.6,3.6l-4.2,4.2c-0.6,0.6-0.6,1.4,0,2c0.6,0.6,1.4,0.6,2,0l5.2-5.2C23,7.6,23,6.7,22.5,6.1z"/>
			<path fill="#C5CBCF" d="M13.4,15.3c-0.6-0.6-1.4-0.6-2,0l-4.2,4.2l-3.6-3.6l4.2-4.2c0.6-0.6,0.6-1.4,0-2c-0.6-0.6-1.4-0.6-2,0
				l-5.2,5.2c-0.6,0.6-0.5,1.4,0,2l5.6,5.6c0.6,0.6,1.4,0.6,2,0l5.2-5.2C13.9,16.7,13.9,15.8,13.4,15.3z"/>
		</g>
	</g>
</g>
</svg>
