<?xml version="1.0" encoding="utf-8"?>
<!-- Generator: Adobe Illustrator 18.1.0, SVG Export Plug-In . SVG Version: 6.00 Build 0)  -->
<svg version="1.1" id="Layer_1" xmlns="http://www.w3.org/2000/svg" xmlns:xlink="http://www.w3.org/1999/xlink" x="0px" y="0px"
	 width="16px" height="13px" viewBox="0 0 16 13" enable-background="new 0 0 16 13" xml:space="preserve">
<path fill="#3B8FCD" d="M7.2,12.6c-0.1,0-0.4,0-0.7-0.1c-0.2-0.1-1-0.6-1.1-0.8L0.5,6.8c-0.2-0.2-0.2-0.5,0-0.7l1.9-1.9
	C2.6,4,2.9,4,3.1,4.2l3.4,3.4c0.2,0.2,0.5,0.2,0.7,0l5.5-6.9c0.2-0.2,0.5-0.3,0.7-0.1l2.1,1.7c0.2,0.2,0.3,0.5,0.1,0.7l-6.8,8.5
	c-0.2,0.2-0.5,0.5-0.7,0.7C8.1,12.2,7.7,12.5,7.2,12.6C7.2,12.6,7.2,12.6,7.2,12.6z"/>
</svg>
